<svg width="50" height="50" viewBox="0 0 50 50" fill="none" xmlns="http://www.w3.org/2000/svg">
<mask id="mask0" mask-type="alpha" maskUnits="userSpaceOnUse" x="10" y="0" width="30" height="29">
<path fill-rule="evenodd" clip-rule="evenodd" d="M10.1982 0H40V28.0916H10.1982V0Z" fill="white"/>
</mask>
<g mask="url(#mask0)">
<path fill-rule="evenodd" clip-rule="evenodd" d="M25.6287 8.77774C25.5706 8.19793 25.4963 7.63761 25.4615 7.07471C25.3647 5.51537 25.6082 4.00976 26.2761 2.5881C26.8956 1.26889 27.858 0.282483 29.3539 0.0691555C31.7237 -0.269102 33.7939 0.599966 34.2511 3.41978C34.5457 5.23657 34.2687 7.0098 33.5604 8.71341C33.5333 8.77846 33.5209 8.84937 33.5002 8.91714C33.482 8.97703 33.4616 9.0362 33.4062 9.20568C33.7609 9.08906 34.0281 9.00983 34.2889 8.91399C35.3639 8.51871 36.453 8.20595 37.6124 8.47157C38.9838 8.78562 39.6168 9.77274 39.9124 11.0359C40.19 12.2228 39.8019 13.1835 38.8363 13.9145C37.7404 14.7443 36.4481 15.0515 35.1167 15.2432C34.9935 15.2608 34.8696 15.2731 34.651 15.2992C34.7732 15.4992 34.8624 15.6591 34.9646 15.8107C35.9343 17.2499 36.7089 18.7618 36.9183 20.5179C37.135 22.3358 35.8145 23.6794 33.9946 23.4474C33.7984 23.4224 33.601 23.4072 33.4041 23.3873C32.0814 22.9453 30.8666 22.2957 29.7846 21.4295C29.0474 20.8394 28.3716 20.174 27.6683 19.5422L27.631 19.5183C27.6453 19.5243 27.6596 19.5303 27.6739 19.5364C27.7792 20.0372 27.8846 20.5381 27.9899 21.039C27.9965 21.4484 28.0107 21.858 28.0084 22.2673C28.0047 22.9062 27.8155 23.4591 27.2332 23.8161C26.3833 24.0513 25.5468 23.9748 24.7536 23.626C24.0491 23.3161 23.3376 22.9947 22.6962 22.5774C21.3773 21.7189 20.1503 20.7432 19.2808 19.3518C18.3813 22.4736 17.1875 24.0737 15.4948 24.6245C15.6561 25.3741 15.8803 26.1039 15.9524 26.8482C16.0095 27.4373 15.574 27.8654 14.9806 28.0398C14.4108 28.2074 14.0022 27.9494 13.6684 27.5376C13.1454 26.8926 12.9571 26.1535 13.0614 25.3307C13.0803 25.1821 13.0452 24.9718 12.9485 24.8734C12.5493 24.4675 12.1168 24.0937 11.6965 23.708C10.0251 21.3774 9.94062 18.807 10.5313 16.1346C11.6223 14.2211 11.6073 14.0459 12.9281 12.4115C12.969 12.3696 14.3657 10.9822 14.4066 10.9404L14.6891 10.7291C14.9532 10.5905 15.1032 10.4806 15.3558 10.3239C17.5802 8.94364 19.9453 8.08532 22.6252 8.36441C22.9955 8.40295 23.3681 8.42043 23.7397 8.4475C24.3552 8.5551 24.9707 8.66269 25.6287 8.77774Z" fill="#FC6868"/>
</g>
<path fill-rule="evenodd" clip-rule="evenodd" d="M22.7084 26.5052L22.6985 26.5042C22.6985 26.1291 22.7025 25.7541 22.6976 25.3792C22.6879 24.6391 22.2325 24.1729 21.4942 24.1534C21.0438 24.1415 20.5931 24.1381 20.1426 24.1431C19.4905 24.1503 18.9667 24.5623 18.9282 25.196C18.8549 26.4056 18.8124 27.6186 18.8135 28.8303C18.8143 29.5942 19.321 30.0327 20.0982 30.0512C20.5486 30.062 20.9994 30.0668 21.4498 30.0602C22.1135 30.0505 22.5372 29.6682 22.5815 29.0139C22.6377 28.1785 22.6674 27.3414 22.7084 26.5052M29.743 30.3656V30.3782C29.9411 30.3782 30.1392 30.379 30.3371 30.3782C31.1261 30.3747 31.6085 29.9833 31.6547 29.206C31.7256 28.0154 31.7625 26.8215 31.7675 25.629C31.7704 24.9245 31.2733 24.4936 30.5576 24.4648C30.1457 24.4483 29.7345 24.4135 29.323 24.3863C28.6342 24.3408 28.0312 24.8315 28 25.5129C27.9445 26.7224 27.9075 27.9332 27.8869 29.1438C27.8748 29.8528 28.3289 30.3146 29.0412 30.3633C29.2741 30.379 29.5091 30.3656 29.743 30.3656M27.2331 23.816C27.8155 23.4592 28.0046 22.9063 28.0082 22.2674C28.0106 21.858 27.9965 21.4485 27.9897 21.0391C28.4028 21.4309 28.8278 21.8113 29.2267 22.2167C30.3682 23.3769 31.7416 23.9312 33.3801 23.8186C33.3068 25.1142 33.3438 26.4275 33.1353 27.7016C32.7903 29.81 31.089 31.2527 28.7834 31.5405C27.7873 31.6649 26.7808 31.7076 25.7791 31.7871C25.3727 31.7942 24.966 31.8015 24.5593 31.8087C24.2595 31.771 23.9598 31.7332 23.6602 31.6957C22.5802 31.6583 21.5001 31.6209 20.42 31.5836C20.0343 31.5725 19.6485 31.5614 19.2626 31.5504C18.6135 31.3793 17.9644 31.2084 17.3149 31.0375C17.0494 30.4795 16.6626 29.9462 16.541 29.3588C16.123 27.3406 16.6677 25.485 17.7275 23.7579C18.1196 23.1187 18.5249 22.4879 19.222 22.1107C19.8966 21.7455 20.386 21.8491 20.8889 22.4205C21.2272 22.805 21.5972 23.1783 22.0103 23.4795C23.2979 24.4182 24.7855 24.5908 26.3235 24.4503C26.7085 24.4152 27.1128 24.2835 27.2331 23.816" fill="#69D1E5"/>
<path fill-rule="evenodd" clip-rule="evenodd" d="M23.6602 31.6955C23.9599 31.7332 24.2596 31.7709 24.5588 31.8082C24.6957 32.3325 24.8654 32.8514 24.9627 33.3834C25.0979 34.1219 25.1787 34.8701 25.283 35.6141L25.2914 37.1876C25.239 37.5286 25.1867 37.8697 25.1344 38.2108C24.3289 38.3614 23.5289 38.5815 22.7163 38.6468C21.4078 38.7521 20.1632 38.3499 18.9207 37.9986C18.8756 36.9668 18.8305 35.9352 18.7854 34.9032C18.9531 34.7218 19.1096 34.5283 19.2907 34.3613C20.0997 33.6158 20.0703 32.5371 19.2153 31.8655C19.2309 31.7604 19.2465 31.6556 19.2624 31.5504C19.6484 31.5613 20.0342 31.5725 20.4201 31.5837C20.9752 32.0918 21.6887 32.069 22.3553 32.0626C22.7919 32.0582 23.3289 32.1655 23.6602 31.6955" fill="#69D1E5"/>
<mask id="mask1" mask-type="alpha" maskUnits="userSpaceOnUse" x="10" y="19" width="18" height="13">
<path fill-rule="evenodd" clip-rule="evenodd" d="M10 19.3518H27.2331V31.0374H10V19.3518Z" fill="white"/>
</mask>
<g mask="url(#mask1)">
<path fill-rule="evenodd" clip-rule="evenodd" d="M27.2331 23.8161C27.1128 24.2834 26.7086 24.4151 26.3235 24.4503C24.7855 24.5909 23.2979 24.4182 22.0103 23.4794C21.5973 23.1783 21.2273 22.805 20.8889 22.4205C20.3862 21.8492 19.8966 21.7456 19.222 22.1108C18.5249 22.4878 18.1196 23.1187 17.7275 23.7578C16.6677 25.485 16.123 27.3405 16.541 29.3589C16.6626 29.9461 17.0494 30.4795 17.3149 31.0374C16.2523 30.8827 15.4039 30.3405 14.6916 29.5762C14.4716 29.3401 14.2907 29.266 13.9513 29.3616C12.3772 29.8053 10.8137 29.0197 10.2193 27.5288C9.63571 26.0648 10.2469 24.4844 11.6964 23.7082C12.1167 24.0937 12.5491 24.4675 12.9483 24.8734C13.0451 24.9718 13.0802 25.1822 13.0614 25.3307C12.9572 26.1535 13.1453 26.8926 13.6682 27.5376C14.0021 27.9494 14.4107 28.2074 14.9807 28.0398C15.574 27.8654 16.0094 27.4373 15.9523 26.8482C15.8801 26.1039 15.6562 25.3741 15.4947 24.6246C17.1873 24.0737 18.3813 22.4737 19.2808 19.3518C20.1502 20.7433 21.3773 21.7189 22.6961 22.5774C23.3375 22.9947 24.0492 23.3161 24.7536 23.626C25.5467 23.9748 26.3832 24.0513 27.2331 23.8161" fill="#69D1E5"/>
</g>
<path fill-rule="evenodd" clip-rule="evenodd" d="M18.9207 37.9987C20.1631 38.35 21.4077 38.7521 22.7163 38.6467C23.529 38.5813 24.3288 38.3614 25.1345 38.2107C25.1206 38.5981 25.107 38.9855 25.0931 39.3729C24.9981 39.4162 24.8602 39.4335 24.8147 39.5067C24.4572 40.0838 23.8907 40.343 23.269 40.4817C22.899 40.5643 22.6674 40.7258 22.5923 41.094C22.4939 40.8196 22.4074 40.5275 22.0496 40.7119C21.825 41.4795 21.6161 42.2397 21.3774 42.9904C21.2555 43.3733 20.9921 43.6234 20.5495 43.6139C19.7929 43.3803 19.0361 43.1466 18.2795 42.9128C17.9342 42.702 17.8354 42.3715 17.9741 42.0321C18.2897 41.2602 18.6233 40.4915 19.0131 39.7547C19.1656 39.4662 19.2787 39.263 19.1272 38.9325C18.997 38.6488 18.9849 38.312 18.9207 37.9987" fill="#FC6868"/>
<path fill-rule="evenodd" clip-rule="evenodd" d="M17.1078 35.2161C16.7579 35.6691 16.5652 36.1627 16.6061 36.7515C16.643 37.2825 16.6528 37.7511 17.3556 37.8868C17.7942 37.9712 18.0852 38.2851 18.0353 38.8279C18.0035 39.1731 18.1325 39.5297 18.1402 39.8822C18.1491 40.2941 17.9402 40.5191 17.4942 40.5722C17.055 40.6245 16.673 40.7824 16.1813 40.5943C15.3697 40.284 14.915 39.4679 15.2312 38.6402C15.3236 38.3987 15.3681 38.1063 15.3287 37.8533C15.1154 36.4829 15.0574 35.1539 16.0931 34.0332C16.4313 34.4273 16.7696 34.8217 17.1078 35.2161" fill="#69D1E5"/>
<path fill-rule="evenodd" clip-rule="evenodd" d="M22.5924 41.0941C22.6674 40.7259 22.8991 40.5644 23.2691 40.4818C23.8908 40.3431 24.4573 40.0838 24.8147 39.5068C24.8602 39.4335 24.9982 39.4161 25.0932 39.3729C25.8608 40.162 26.331 41.1057 26.504 42.1799C26.5406 42.407 26.3869 42.6643 26.321 42.9074C25.5732 43.1693 24.8252 43.4315 24.0773 43.6937C23.5503 43.7292 23.2187 43.4663 23.0794 42.9894C22.8965 42.3635 22.7529 41.7263 22.5924 41.0941" fill="#FC6868"/>
<path fill-rule="evenodd" clip-rule="evenodd" d="M25.2914 37.1876C25.2885 36.6631 25.2858 36.1386 25.2829 35.6143C25.5667 35.5793 25.8505 35.5445 26.1342 35.5098C26.3008 36.4775 26.5023 36.7954 27.3279 37.454C27.7093 37.2931 28.0378 37.1279 28.3837 37.016C28.743 36.8995 29.0157 37.0058 29.2511 37.3462C29.4473 37.6299 29.8177 37.7938 30.0201 38.0749C30.2812 38.4378 30.3466 38.765 29.8979 39.1771C29.5807 39.4685 29.3437 39.7797 28.8984 39.9151C28.1481 40.1433 27.5147 39.9069 27.1116 39.2487C26.8868 38.8815 26.5733 38.5652 26.2833 38.2404C25.9624 37.8809 25.6228 37.5378 25.2914 37.1876" fill="#69D1E5"/>
<path fill-rule="evenodd" clip-rule="evenodd" d="M17.1078 35.2161C16.7696 34.8217 16.4313 34.4273 16.0931 34.0332C15.8655 33.6234 15.9907 33.2981 16.3133 32.9919C17.127 32.2192 18.0492 31.7384 19.2153 31.8655C20.0704 32.5372 20.0997 33.6158 19.2908 34.3614C19.1096 34.5283 18.9532 34.7219 18.7855 34.9031C18.5752 35.0332 18.3646 35.1621 18.1552 35.2931C17.7864 35.5236 17.4428 35.4298 17.1078 35.2161" fill="#37C2DE"/>
<path fill-rule="evenodd" clip-rule="evenodd" d="M18.2794 42.9128C19.036 43.1466 19.7928 43.3803 20.5494 43.6141C20.3392 44.7037 20.129 45.7931 19.8924 47.0183C19.0307 46.2408 18.1311 46.0181 17.0172 46.1713C17.4666 45.0111 17.873 43.9618 18.2794 42.9128" fill="#69D1E5"/>
<path fill-rule="evenodd" clip-rule="evenodd" d="M24.0773 43.6936C24.8252 43.4316 25.5732 43.1694 26.321 42.9075C26.7299 43.9831 27.1388 45.0584 27.5478 46.1338C26.5917 46.0707 25.6769 46.1525 24.9228 46.8392C24.8741 46.8836 24.7555 46.8525 24.6695 46.8567C24.4722 45.8024 24.2747 44.7479 24.0773 43.6936" fill="#69D1E5"/>
<path fill-rule="evenodd" clip-rule="evenodd" d="M24.6695 46.8568C24.7555 46.8526 24.8741 46.8835 24.9226 46.8393C25.6768 46.1526 26.5915 46.0708 27.5478 46.1338C27.7986 46.7209 28.0495 47.3079 28.3003 47.895C28.1049 47.8804 27.9091 47.8499 27.714 47.8543C27.2696 47.8645 26.7707 47.9401 26.6283 48.3847C26.3929 49.1197 25.8322 49.3794 25.1994 49.6035C25.0328 48.8091 24.8644 48.0151 24.7016 47.2199C24.6774 47.1016 24.6794 46.978 24.6695 46.8568" fill="#69D1E5"/>
<path fill-rule="evenodd" clip-rule="evenodd" d="M33.3801 23.8185C31.7415 23.9311 30.3682 23.3768 29.2267 22.2168C28.8277 21.8113 28.4028 21.4308 27.9897 21.039C27.8845 20.5381 27.7791 20.0372 27.6738 19.5364L27.6682 19.5423C28.3714 20.1741 29.0474 20.8394 29.7845 21.4295C30.8664 22.2957 32.0814 22.9453 33.4039 23.3873C33.396 23.531 33.388 23.6748 33.3801 23.8185" fill="#FC6868"/>
<path fill-rule="evenodd" clip-rule="evenodd" d="M26.1343 35.5098C25.8506 35.5445 25.5668 35.5793 25.2829 35.6142C25.1788 34.8701 25.098 34.1218 24.9628 33.3834C24.8655 32.8515 24.6958 32.3325 24.5589 31.8082C24.966 31.8014 25.3727 31.7941 25.7792 31.7871C26.73 32.6778 26.9217 34.687 26.1343 35.5098" fill="#38C3DE"/>
<path fill-rule="evenodd" clip-rule="evenodd" d="M18.0461 49.8553C17.9917 49.8973 17.9376 49.9754 17.8828 49.9758C16.8693 49.9831 15.8557 49.9811 14.8501 49.9811C14.7534 49.1901 15.2359 48.4528 15.9175 48.2836C16.0693 48.3222 16.2214 48.3594 16.3726 48.3995C17.1725 48.6113 17.7686 49.0537 18.0461 49.8553" fill="#69D1E5"/>
<path fill-rule="evenodd" clip-rule="evenodd" d="M28.7053 48.2818C29.3342 48.4909 29.7801 49.1775 29.8202 49.9981C28.9187 49.998 28.0167 50.0056 27.1152 49.9912C26.9344 49.9882 26.7548 49.9014 26.5746 49.8531C26.722 49.6146 26.8138 49.2905 27.0276 49.1545C27.5572 48.8177 28.1424 48.567 28.7053 48.2818" fill="#69D1E5"/>
<path fill-rule="evenodd" clip-rule="evenodd" d="M28.7053 48.2817C28.1425 48.5669 27.5573 48.8177 27.0277 49.1545C26.8139 49.2904 26.722 49.6145 26.5747 49.8531C26.1127 49.8618 25.6506 49.8705 25.1887 49.8791C25.1923 49.7873 25.1958 49.6953 25.1994 49.6035C25.8323 49.3794 26.393 49.1197 26.6283 48.3847C26.7708 47.9401 27.2696 47.8645 27.7142 47.8543C27.9091 47.8497 28.105 47.8802 28.3004 47.895C28.4354 48.0238 28.5703 48.1529 28.7053 48.2817" fill="#414141"/>
<path fill-rule="evenodd" clip-rule="evenodd" d="M18.0462 49.8553C17.7687 49.0537 17.1726 48.6113 16.3727 48.3995C16.2215 48.3594 16.0694 48.3221 15.9176 48.2836C16.7033 47.5157 17.6587 47.72 18.1561 48.6968C18.3089 48.9971 18.6895 49.1843 18.9678 49.4209C19.1059 49.5381 19.2487 49.6497 19.3896 49.7638C19.3608 49.8252 19.332 49.8865 19.3032 49.9477C18.8842 49.9169 18.4652 49.8861 18.0462 49.8553" fill="#5A5A5A"/>
<path fill-rule="evenodd" clip-rule="evenodd" d="M27.6738 19.5369C27.6595 19.5308 27.6452 19.5248 27.6309 19.5187L27.6682 19.5428L27.6738 19.5369Z" fill="#F9B361"/>
<path fill-rule="evenodd" clip-rule="evenodd" d="M14.4478 10.8645C14.4888 10.8224 14.5297 10.7804 14.5707 10.7383C14.5297 10.7804 14.4888 10.8224 14.4478 10.8645" fill="#FC6868"/>
<path fill-rule="evenodd" clip-rule="evenodd" d="M31.2501 27.4246L31.3247 27.4244C31.3247 27.2816 31.3217 27.1386 31.3251 26.9959C31.363 25.4404 31.2369 25.3122 29.6723 25.3191C28.9919 25.3221 28.6944 25.605 28.6667 26.2957C28.6461 26.8131 28.6683 27.3332 28.625 27.8483C28.4798 29.5772 29.0232 29.5156 30.3416 29.5083C30.898 29.5051 31.2138 29.2054 31.2455 28.6541C31.2689 28.2455 31.2501 27.8345 31.2501 27.4246V27.4246ZM29.7431 30.3655C29.509 30.3655 29.2741 30.379 29.0411 30.3632C28.3289 30.3145 27.8749 29.8527 27.8869 29.1437C27.9076 27.9331 27.9446 26.7223 28 25.5128C28.0313 24.8315 28.6343 24.3408 29.3229 24.3862C29.7344 24.4134 30.1456 24.4482 30.5576 24.4647C31.2733 24.4936 31.7704 24.9244 31.7675 25.6289C31.7624 26.8216 31.7255 28.0153 31.6547 29.2059C31.6084 29.9833 31.1261 30.3747 30.3372 30.3781C30.1391 30.379 29.9411 30.3781 29.7431 30.3781V30.3655Z" fill="#F9FBFA"/>
<path fill-rule="evenodd" clip-rule="evenodd" d="M22.2622 27.0692C22.2622 26.9263 22.2526 26.7829 22.2636 26.6411C22.3965 24.9137 21.8392 25.013 20.5682 25.0127C19.9793 25.0125 19.6741 25.3153 19.6446 25.8952C19.6174 26.4298 19.6178 26.9662 19.5753 27.4993C19.4338 29.2748 19.9193 29.2019 21.2963 29.2013C21.8433 29.2011 22.1342 28.9477 22.1933 28.4056C22.2416 27.963 22.2405 27.515 22.2622 27.0692V27.0692ZM22.7084 26.5051C22.6673 27.3415 22.6377 28.1786 22.5815 29.0139C22.5372 29.6683 22.1134 30.0505 21.4498 30.0603C20.9994 30.0669 20.5484 30.062 20.0982 30.0511C19.321 30.0328 18.8142 29.5941 18.8135 28.8302C18.8124 27.6186 18.8549 26.4055 18.9282 25.196C18.9666 24.5624 19.4905 24.1502 20.1426 24.143C20.5931 24.1381 21.0438 24.1416 21.4942 24.1533C22.2324 24.1728 22.6879 24.6391 22.6976 25.3793C22.7025 25.7541 22.6984 26.1291 22.6984 26.5041L22.7084 26.5051Z" fill="#F9FCFB"/>
<path fill-rule="evenodd" clip-rule="evenodd" d="M23.6602 31.6956C23.329 32.1655 22.792 32.0582 22.3553 32.0627C21.6888 32.0691 20.9752 32.0919 20.4202 31.5837C21.5002 31.621 22.5802 31.6582 23.6602 31.6956" fill="#69D1E5"/>
<path fill-rule="evenodd" clip-rule="evenodd" d="M31.25 27.4247C31.25 27.8346 31.2688 28.2456 31.2454 28.6542C31.2138 29.2055 30.898 29.5052 30.3416 29.5084C29.0231 29.5157 28.4798 29.5773 28.6249 27.8485C28.6683 27.3333 28.646 26.8132 28.6667 26.2959C28.6943 25.6052 28.9919 25.3222 29.6723 25.3192C31.2369 25.3123 31.363 25.4406 31.3251 26.996C31.3216 27.1387 31.3247 27.2817 31.3247 27.4245L31.25 27.4247Z" fill="#06CDFE"/>
<path fill-rule="evenodd" clip-rule="evenodd" d="M22.2616 27.0693C22.2405 27.515 22.2416 27.963 22.1933 28.4056C22.1342 28.9477 21.8432 29.2012 21.2963 29.2013C19.9193 29.2019 19.4338 29.2748 19.5753 27.4993C19.6178 26.9662 19.6172 26.4298 19.6444 25.8952C19.6741 25.3153 19.9793 25.0126 20.5682 25.0127C21.8393 25.013 22.3965 24.9137 22.2636 26.6411C22.2526 26.7829 22.2622 26.9263 22.2616 27.0693" fill="#06CCFE"/>
</svg>
