<svg width="50" height="50" viewBox="0 0 50 50" fill="none" xmlns="http://www.w3.org/2000/svg">
<path d="M25.1017 39.4197C25.0615 39.3693 25.0263 39.3138 24.981 39.2634C24.7497 38.9861 24.6792 38.6736 24.7295 38.3358C24.7547 38.1644 24.805 37.993 24.8402 37.8216C24.8452 37.8014 24.8352 37.7762 24.8301 37.751C24.8251 37.7611 24.815 37.7661 24.81 37.7762C24.6692 38.0132 24.5485 38.2602 24.5082 38.5324C24.4831 38.7139 24.3372 38.8248 24.1813 38.8349C23.7337 38.8651 23.3816 38.7038 23.1 38.4064C23.0446 38.3459 22.9893 38.2753 22.9642 38.1997C22.939 38.1039 22.9491 38.0031 22.939 37.9022C22.9239 37.9174 22.9038 37.9325 22.8937 37.9527C22.8384 38.0585 22.7831 38.1694 22.7227 38.2803C22.7077 38.4064 22.6825 38.5324 22.6775 38.6584C22.6724 38.724 22.6926 38.7895 22.7026 38.8551C22.8183 39.1475 23.0949 39.2785 23.3866 39.3995C23.4068 39.4096 23.4219 39.4197 23.442 39.4298C24.0053 39.4197 24.5535 39.4197 25.1017 39.4197Z" fill="#A8A8AA"/>
<path d="M25.5745 36.6721C25.3834 36.5663 25.1772 36.5259 24.9509 36.5663C24.8855 36.5864 24.8201 36.6015 24.7547 36.6268C24.5334 36.7175 24.3171 36.8183 24.0958 36.9141C24.0757 36.9242 24.0556 36.9343 24.0355 36.9444C23.955 36.9998 23.8745 37.0502 23.7941 37.1057C23.7236 37.1561 23.6482 37.2065 23.5778 37.2569C23.5174 37.3023 23.4621 37.3527 23.4017 37.3981C23.3716 37.4233 23.3414 37.4535 23.3112 37.4787C23.281 37.509 23.2458 37.5392 23.2207 37.5745C23.1302 37.6804 23.0396 37.7913 22.9541 37.9022C22.9591 38.003 22.9491 38.1039 22.9793 38.1997C22.9994 38.2753 23.0547 38.3459 23.1151 38.4063C23.3967 38.7038 23.7488 38.8701 24.1964 38.8349C24.3523 38.8248 24.4982 38.7139 24.5233 38.5324C24.5586 38.2601 24.6843 38.0182 24.8251 37.7762C24.8301 37.7661 24.8402 37.7611 24.8452 37.751C24.8855 37.6451 24.9207 37.5342 24.971 37.4334C25.0313 37.3124 25.1017 37.1914 25.1822 37.0754C25.2778 36.9393 25.3834 36.8032 25.5443 36.7175C25.5544 36.7175 25.5594 36.6923 25.5745 36.6721Z" fill="#CACACA"/>
<path d="M26.6056 39.3944C26.6006 39.3994 26.6006 39.4146 26.5955 39.4196C26.0976 39.4196 25.5997 39.4196 25.1017 39.4196C25.0615 39.3692 25.0263 39.3137 24.981 39.2633C24.7497 38.986 24.6793 38.6735 24.7296 38.3357C24.7547 38.1643 24.805 37.9929 24.8402 37.8215C24.8452 37.8013 24.8352 37.7761 24.8302 37.7509C24.8704 37.645 24.9056 37.5341 24.9559 37.4333C25.0162 37.3123 25.0867 37.1913 25.1671 37.0754C25.2627 36.9393 25.3683 36.8031 25.5293 36.7174C25.5494 36.7074 25.5544 36.6822 25.5695 36.662C25.6902 36.7275 25.8109 36.7981 25.9266 36.8636C26.0473 36.9645 26.168 37.0703 26.2887 37.1712C26.3441 37.2367 26.3943 37.3073 26.4497 37.3728C26.4597 37.3879 26.4799 37.393 26.5 37.4031C26.505 37.4232 26.505 37.4484 26.5151 37.4686C26.6106 37.64 26.6307 37.8265 26.6559 38.008C26.6861 38.2349 26.6458 38.4718 26.7414 38.6936C26.7665 38.7541 26.7665 38.8247 26.7766 38.8953C26.7867 39.0818 26.7313 39.2482 26.6056 39.3944Z" fill="#B2B2B2"/>
<path d="M25.7103 36.8183C25.5947 36.7729 25.5695 36.783 25.5695 36.8939C25.5695 37.0703 25.6148 37.2417 25.7103 37.398C25.7556 37.4736 25.831 37.5089 25.9266 37.5089C25.987 37.5089 26.0473 37.5089 26.1127 37.5089C26.1831 37.5089 26.2535 37.514 26.3239 37.5089C26.4145 37.4988 26.4346 37.4585 26.3793 37.393C26.3189 37.3174 26.2535 37.2468 26.1881 37.1812C26.0423 37.0401 25.9115 36.8939 25.7103 36.8183Z" fill="#B2B2B2"/>
<path d="M20.555 39.0516C20.5198 38.9911 20.4745 38.9357 20.4494 38.8702C20.4041 38.7441 20.3739 38.613 20.3337 38.482C20.3086 38.482 20.2784 38.487 20.2583 38.4769C20.1828 38.4366 20.1074 38.3912 20.0319 38.3459C19.8911 38.2652 19.7503 38.1896 19.6145 38.0988C19.4988 38.0232 19.3731 37.9526 19.2926 37.8518C19.187 37.7207 19.1266 37.5644 19.0461 37.4132C18.9908 37.3073 18.9355 37.2065 18.8802 37.1006C18.8751 37.0855 18.845 37.0906 18.8248 37.0805C18.9204 37.2771 18.9506 37.4888 18.9958 37.7006C19.0361 37.8921 19.0461 38.0837 18.9405 38.2652C18.8047 38.5021 18.5482 38.3811 18.4024 38.613C18.3671 38.6735 18.1257 39.092 18.0603 39.1172C17.8994 39.1777 18.0302 39.2331 17.8642 39.2684C17.4819 39.3491 17.0947 39.3944 16.7124 39.2886C16.5816 39.2533 16.4559 39.2079 16.3805 39.0869C16.3704 39.092 16.3603 39.092 16.3553 39.097C16.4559 39.3239 16.637 39.465 16.8633 39.5709C17.155 39.707 17.4719 39.7423 17.7938 39.7373C18.1609 39.7322 18.5281 39.7171 18.8902 39.702C19.1316 39.6919 19.368 39.6465 19.5893 39.5507C19.8559 39.4348 20.1124 39.3138 20.3739 39.1827C20.4343 39.1575 20.4896 39.097 20.555 39.0516Z" fill="#7C7D81"/>
<path d="M20.6003 38.4517C20.6305 38.2803 20.6606 38.1089 20.6958 37.9374C20.7059 37.887 20.721 37.8316 20.7361 37.7812C20.6908 37.7257 20.6506 37.6652 20.6053 37.6098C20.5852 37.5795 20.5651 37.5543 20.545 37.5241C20.5047 37.4736 20.4695 37.4283 20.4293 37.3779C20.389 37.3274 20.3488 37.2821 20.3086 37.2317C20.2834 37.2014 20.2532 37.1762 20.2281 37.146C20.218 37.1359 20.213 37.1258 20.2029 37.1107C20.1426 37.0451 20.0772 36.9846 20.0168 36.9191C19.9666 36.8737 19.9163 36.8334 19.866 36.788C19.8308 36.7578 19.7955 36.7326 19.7553 36.7023C19.7251 36.6822 19.695 36.6569 19.6648 36.6368C19.4384 36.536 19.2071 36.4402 18.9808 36.3393C18.9657 36.3343 18.9556 36.3343 18.9405 36.3293C18.8047 36.3091 18.6639 36.2889 18.5281 36.2688C18.4828 36.2637 18.4426 36.2637 18.4024 36.2587C18.3873 36.2587 18.3722 36.2587 18.3571 36.2587C18.3269 36.2637 18.2967 36.2688 18.2615 36.2738C18.2515 36.2788 18.2414 36.2839 18.2313 36.2889C18.2263 36.294 18.2263 36.3041 18.2213 36.3041C18.0754 36.3595 17.9296 36.42 17.7837 36.4704C17.7535 36.4805 17.7133 36.4603 17.6781 36.4553C17.658 36.4402 17.6379 36.4301 17.6228 36.415C17.5926 36.3898 17.5624 36.3696 17.5322 36.3444C17.497 36.3141 17.2103 36.5107 17.0645 36.7023C16.9639 36.8334 16.8683 36.9645 16.7677 37.0905C16.637 37.2518 16.5112 37.4182 16.4509 37.6299C16.4106 37.766 16.3654 37.9022 16.3251 38.0383C16.3201 38.0534 16.3352 38.0736 16.3402 38.0937C16.3603 38.0635 16.3805 38.0332 16.3956 37.9979C16.5615 37.635 16.7225 37.8568 16.974 37.5644C17.0896 37.4283 17.5222 36.9897 17.6982 36.9443C17.7686 36.9241 17.5876 36.667 17.658 36.6569C17.7787 36.6418 17.8994 36.6166 18.0201 36.6368C18.342 36.7074 18.6035 36.8939 18.8047 37.1913C18.8248 37.2014 18.86 37.2014 18.8701 37.2165C18.9405 37.3476 19.0059 37.4787 19.0763 37.6098C19.1719 37.7963 19.2524 37.9979 19.3781 38.1643C19.4737 38.2954 19.6195 38.3912 19.7553 38.487C19.9112 38.6029 20.0772 38.7037 20.2381 38.8146C20.3237 38.8751 20.4092 38.9356 20.4997 38.9911C20.5248 39.0062 20.555 38.9961 20.5852 39.0012C20.5852 38.8449 20.5802 38.6836 20.5852 38.5273C20.5802 38.5071 20.5952 38.4819 20.6003 38.4517Z" fill="#868789"/>
<path d="M18.8198 37.0906C18.6538 36.8587 18.4225 36.7175 18.1408 36.6772C18.0352 36.6621 17.9245 36.6923 17.8139 36.7075C17.7485 36.7175 17.834 36.9192 17.7686 36.9394C17.6027 36.9847 17.4367 37.1612 17.326 37.2771C17.0846 37.5242 16.7778 37.5544 16.6118 37.8569C16.5967 37.8871 16.5766 37.9123 16.5615 37.9376C16.5314 37.993 16.5012 38.0535 16.476 38.109C16.4106 38.2904 16.3453 38.4719 16.2799 38.6585C16.2799 38.6938 16.2748 38.729 16.2748 38.7643C16.2648 38.8904 16.3 39.0013 16.3754 39.1021C16.4509 39.2231 16.5766 39.2685 16.7074 39.3038C17.0896 39.4096 17.4769 39.3643 17.8592 39.2836C18.0251 39.2483 17.9648 39.2281 18.1257 39.1676C18.1911 39.1424 18.2615 38.8904 18.2967 38.8349C18.4426 38.603 18.8047 38.5223 18.9405 38.2854C19.0461 38.1039 19.0311 37.9123 18.9958 37.7208C18.9455 37.499 18.9103 37.2872 18.8198 37.0906Z" fill="#9C9D9F"/>
<path d="M29.6032 39.1271C29.568 39.0666 29.5177 39.0112 29.4976 38.9456C29.4523 38.8196 29.4222 38.6885 29.3869 38.5574C29.3568 38.5574 29.3266 38.5675 29.3065 38.5574C29.221 38.5222 29.1455 38.4768 29.0651 38.4365C28.9142 38.3608 28.7633 38.2903 28.6174 38.2046C28.4967 38.134 28.3609 38.0684 28.2754 37.9676C28.1698 37.8416 28.1044 37.6803 28.0239 37.5341C27.9686 37.4332 27.9133 37.3274 27.8529 37.2265C27.8479 37.2165 27.8127 37.2165 27.7926 37.2114C27.8881 37.408 27.9183 37.6198 27.9535 37.8365C27.9887 38.0281 27.9938 38.2247 27.873 38.4112C27.7171 38.6583 27.4405 38.5474 27.2745 38.7843C27.2343 38.8448 26.9526 39.2784 26.8822 39.3036C26.7062 39.3741 26.847 39.4195 26.6609 39.4649C26.2384 39.5607 25.821 39.6262 25.4086 39.5304C25.2677 39.5002 25.1319 39.4598 25.0565 39.3389C25.0464 39.3439 25.0364 39.3489 25.0263 39.3489C25.1269 39.5758 25.323 39.7119 25.5594 39.8077C25.8713 39.9337 26.2183 39.9589 26.5654 39.9388C26.9627 39.9186 27.3651 39.8884 27.7624 39.8581C28.0239 39.8379 28.2804 39.7825 28.5269 39.6766C28.8186 39.5506 29.1053 39.4145 29.392 39.2784C29.4674 39.238 29.5328 39.1775 29.6032 39.1271Z" fill="#7C7D81"/>
<path d="M29.4473 38.0988C29.4926 37.9526 29.5328 37.8114 29.5781 37.6652C29.5931 37.6199 29.6133 37.5795 29.6284 37.5341C29.5931 37.4888 29.5529 37.4484 29.5177 37.4031C29.5026 37.3829 29.4825 37.3577 29.4674 37.3375C29.4322 37.3022 29.402 37.2619 29.3668 37.2266C29.3316 37.1913 29.2964 37.151 29.2562 37.1157C29.231 37.0956 29.2059 37.0754 29.1857 37.0502C29.1807 37.0401 29.1707 37.0351 29.1656 37.025C29.1103 36.9746 29.055 36.9292 28.9997 36.8788C28.9544 36.8485 28.9091 36.8132 28.8639 36.783C28.8286 36.7628 28.7985 36.7427 28.7633 36.7225C28.7331 36.7074 28.7079 36.6922 28.6778 36.6771C28.4615 36.6116 28.2452 36.5511 28.0289 36.4855C28.0139 36.4855 28.0038 36.4805 27.9887 36.4805C27.8529 36.4755 27.7221 36.4704 27.5863 36.4603C27.5461 36.4603 27.5008 36.4603 27.4606 36.4603C27.4455 36.4603 27.4304 36.4603 27.4153 36.4654C27.3852 36.4704 27.355 36.4755 27.3248 36.4855C27.3147 36.4906 27.3047 36.4956 27.2946 36.5007C27.2896 36.5057 27.2896 36.5108 27.2846 36.5158C27.1387 36.5763 26.9929 36.6317 26.842 36.6872C26.8118 36.6973 26.7766 36.6822 26.7414 36.6822C26.7263 36.6721 26.7062 36.662 26.6911 36.6519C26.6659 36.6368 26.6358 36.6166 26.6106 36.6015C26.5754 36.5813 26.2837 36.7628 26.1227 36.9342C26.0171 37.0502 25.9065 37.1661 25.8008 37.2821C25.66 37.4283 25.5242 37.5745 25.4488 37.756C25.3985 37.8719 25.3432 37.9879 25.2929 38.1038C25.2878 38.1139 25.2979 38.1341 25.3029 38.1492C25.323 38.1189 25.3432 38.0937 25.3633 38.0635C25.5544 37.7509 25.6952 37.9223 25.9668 37.6602C26.0926 37.5392 26.5503 37.1409 26.7263 37.0905C26.7967 37.0703 26.6408 36.8687 26.7062 36.8586C26.8218 36.8384 26.9476 36.8032 27.0633 36.8132C27.3701 36.8435 27.6165 36.9796 27.7875 37.2065C27.8076 37.2115 27.8429 37.2115 27.8479 37.2216C27.9082 37.3224 27.9636 37.4283 28.0189 37.5291C28.0994 37.6753 28.1647 37.8366 28.2704 37.9627C28.3559 38.0635 28.4917 38.129 28.6124 38.1996C28.7582 38.2853 28.9091 38.3559 29.06 38.4315C29.1405 38.4718 29.221 38.5172 29.3014 38.5525C29.3215 38.5626 29.3568 38.5525 29.3819 38.5525C29.392 38.4214 29.402 38.2903 29.4171 38.1643C29.4221 38.1442 29.4372 38.124 29.4473 38.0988Z" fill="#868789"/>
<path d="M27.7875 37.2064C27.6165 36.9795 27.3701 36.8434 27.0633 36.8131C26.9526 36.8031 26.8269 36.8333 26.7062 36.8585C26.6358 36.8736 26.7213 37.0753 26.6509 37.0955C26.4698 37.1509 26.2837 37.3324 26.158 37.4534C25.8864 37.7105 25.5494 37.7559 25.3583 38.0684C25.3381 38.0987 25.318 38.1239 25.2979 38.1541C25.2627 38.2146 25.2325 38.2751 25.1973 38.3356C25.1168 38.5222 25.0414 38.7087 24.9609 38.8952C24.9559 38.9305 24.9559 38.9658 24.9509 39.0011C24.9358 39.1271 24.971 39.238 25.0515 39.3389C25.1269 39.4599 25.2627 39.5002 25.4035 39.5304C25.8159 39.6262 26.2384 39.5657 26.6559 39.4649C26.842 39.4246 26.7716 39.4044 26.9476 39.3338C27.018 39.3036 27.1035 39.0515 27.1488 38.991C27.3148 38.749 27.7121 38.6532 27.868 38.4113C27.9887 38.2247 27.9837 38.0332 27.9485 37.8365C27.9133 37.6147 27.8831 37.403 27.7875 37.2064Z" fill="#9C9D9F"/>
<path d="M31.3736 40.1808C31.3284 40.1153 31.2831 40.0447 31.2328 39.9792C30.9612 39.6213 30.8757 39.223 30.9411 38.7894C30.9713 38.5676 31.0316 38.3508 31.0719 38.1341C31.0769 38.1089 31.0618 38.0736 31.0568 38.0484C31.0467 38.0584 31.0417 38.0685 31.0316 38.0786C30.8656 38.3861 30.7248 38.6987 30.6795 39.0465C30.6494 39.2835 30.4784 39.4196 30.2973 39.4347C29.7692 39.4751 29.3568 39.2633 29.0298 38.8802C28.9645 38.7995 28.8991 38.7088 28.8739 38.613C28.8438 38.492 28.8538 38.3609 28.8488 38.2298C28.8287 38.25 28.8085 38.2702 28.7935 38.2903C28.7281 38.4265 28.6627 38.5676 28.5973 38.7088C28.5772 38.8701 28.552 39.0314 28.542 39.1927C28.5369 39.2734 28.5621 39.3591 28.5722 39.4398C28.708 39.8128 29.0349 39.9842 29.3769 40.1355C29.402 40.1456 29.4222 40.1607 29.4423 40.1708C30.0861 40.1808 30.7298 40.1808 31.3736 40.1808Z" fill="#A8A8AA"/>
<path d="M31.9269 36.657C31.7005 36.5259 31.4591 36.4705 31.1976 36.5209C31.1221 36.5461 31.0417 36.5663 30.9662 36.5965C30.7047 36.7175 30.4482 36.8385 30.1917 36.9595C30.1665 36.9746 30.1464 36.9847 30.1213 36.9998C30.0257 37.0704 29.9301 37.136 29.8396 37.2065C29.7541 37.2721 29.6686 37.3376 29.5881 37.4031C29.5177 37.4636 29.4473 37.5241 29.3819 37.5897C29.3467 37.625 29.3115 37.6602 29.2763 37.6905C29.2411 37.7308 29.2008 37.7712 29.1707 37.8115C29.065 37.9526 28.9594 38.0888 28.8538 38.2299C28.8588 38.356 28.8488 38.487 28.879 38.6131C28.9041 38.7088 28.9695 38.7996 29.0349 38.8803C29.3618 39.2634 29.7792 39.4751 30.3023 39.4348C30.4834 39.4197 30.6544 39.2836 30.6846 39.0466C30.7298 38.6988 30.8707 38.3862 31.0366 38.0787C31.0417 38.0686 31.0517 38.0585 31.0618 38.0484C31.1121 37.9123 31.1473 37.7712 31.2076 37.6401C31.2781 37.4838 31.3636 37.3275 31.4591 37.1813C31.5698 37.0049 31.6955 36.8335 31.8866 36.7226C31.9017 36.7125 31.9118 36.6772 31.9269 36.657Z" fill="#CACACA"/>
<path d="M33.134 40.1456C33.1289 40.1557 33.1239 40.1708 33.1239 40.1809C32.5405 40.1809 31.957 40.1809 31.3736 40.1809C31.3283 40.1153 31.2831 40.0448 31.2328 39.9792C30.9612 39.6213 30.8757 39.223 30.9411 38.7895C30.9712 38.5677 31.0316 38.3509 31.0718 38.1341C31.0769 38.1089 31.0618 38.0736 31.0568 38.0484C31.107 37.9123 31.1423 37.7711 31.2026 37.64C31.273 37.4838 31.3585 37.3275 31.4541 37.1813C31.5647 37.0048 31.6905 36.8334 31.8816 36.7225C31.9017 36.7074 31.9118 36.6772 31.9269 36.6519C32.0677 36.7376 32.2085 36.8234 32.3494 36.9091C32.4902 37.0401 32.631 37.1712 32.7769 37.3023C32.8422 37.388 32.9026 37.4737 32.968 37.5594C32.9831 37.5745 33.0082 37.5846 33.0233 37.5997C33.0283 37.6249 33.0283 37.6552 33.0434 37.6804C33.1541 37.8972 33.1792 38.1391 33.2044 38.3761C33.2396 38.6685 33.1893 38.9659 33.2999 39.2533C33.3301 39.3339 33.3301 39.4247 33.3402 39.5104C33.3452 39.7473 33.2798 39.9591 33.134 40.1456ZM32.807 37.7207C32.9127 37.7056 32.9378 37.6552 32.8724 37.5695C32.802 37.4737 32.7266 37.3829 32.6461 37.2972C32.4801 37.1258 32.3192 36.9393 32.0878 36.8385C31.952 36.783 31.9218 36.7931 31.9218 36.9343C31.9218 37.1611 31.9721 37.3779 32.0878 37.5796C32.1431 37.6753 32.2286 37.7258 32.3443 37.7258C32.4147 37.7258 32.4902 37.7258 32.5606 37.7258C32.6411 37.7258 32.7266 37.7308 32.807 37.7207Z" fill="#B2B2B2"/>
<path d="M32.5606 37.7256C32.6411 37.7256 32.7266 37.7357 32.807 37.7256C32.9127 37.7105 32.9378 37.6601 32.8724 37.5744C32.802 37.4786 32.7266 37.3879 32.6461 37.3022C32.4801 37.1308 32.3192 36.9442 32.0878 36.8434C31.952 36.7879 31.9218 36.798 31.9218 36.9392C31.9218 37.166 31.9721 37.3828 32.0878 37.5845C32.1431 37.6803 32.2286 37.7307 32.3443 37.7307C32.4147 37.7256 32.4902 37.7256 32.5606 37.7256Z" fill="#B2B2B2"/>
<path d="M36.9413 39.3592C36.9011 39.2987 36.8508 39.2382 36.8307 39.1676C36.7854 39.0315 36.7552 38.8954 36.715 38.7542C36.6848 38.7542 36.6496 38.7643 36.6295 38.7542C36.544 38.7139 36.4585 38.6685 36.373 38.6231C36.2171 38.5425 36.0511 38.4669 35.9002 38.3761C35.7695 38.3005 35.6286 38.2299 35.5381 38.1241C35.4224 37.9879 35.357 37.8216 35.2715 37.6653C35.2112 37.5544 35.1558 37.4435 35.0905 37.3376C35.0804 37.3225 35.0502 37.3275 35.0251 37.3225C35.1257 37.5292 35.1558 37.756 35.1961 37.9829C35.2313 38.1896 35.2363 38.3912 35.1106 38.5929C34.9446 38.855 34.6529 38.7341 34.4769 38.9912C34.4316 39.0567 34.1399 39.5155 34.0594 39.5457C33.8733 39.6213 34.0192 39.6717 33.823 39.7171C33.3804 39.8179 32.9328 39.8835 32.4952 39.7827C32.3493 39.7474 32.2035 39.707 32.123 39.581C32.113 39.586 32.1029 39.5911 32.0928 39.5911C32.2035 39.828 32.4047 39.9793 32.6561 40.0801C32.9881 40.2162 33.3502 40.2414 33.7224 40.2212C34.1449 40.2011 34.5674 40.1708 34.9899 40.1355C35.2665 40.1154 35.5381 40.0549 35.7996 39.944C36.1064 39.8079 36.4132 39.6667 36.72 39.5205C36.7955 39.4751 36.8659 39.4096 36.9413 39.3592Z" fill="#7C7D81"/>
<path d="M36.7754 38.2753C36.8207 38.124 36.8659 37.9677 36.9162 37.8165C36.9313 37.7711 36.9514 37.7257 36.9716 37.6753C36.9313 37.63 36.8911 37.5846 36.8508 37.5392C36.8307 37.514 36.8156 37.4938 36.7955 37.4686C36.7603 37.4283 36.7251 37.393 36.6899 37.3527C36.6497 37.3124 36.6145 37.2771 36.5742 37.2367C36.5491 37.2166 36.5239 37.1914 36.4988 37.1712C36.4887 37.1611 36.4837 37.151 36.4736 37.146C36.4133 37.0956 36.3579 37.0452 36.2976 36.9948C36.2473 36.9595 36.202 36.9242 36.1517 36.8939C36.1165 36.8738 36.0813 36.8486 36.0461 36.8284C36.0159 36.8133 35.9858 36.7931 35.9606 36.778C35.7343 36.7124 35.5029 36.6419 35.2766 36.5763C35.2615 36.5763 35.2514 36.5713 35.2364 36.5713C35.0955 36.5662 34.9547 36.5562 34.8139 36.5511C34.7686 36.5511 34.7233 36.5511 34.6831 36.5562C34.668 36.5562 34.6529 36.5562 34.6328 36.5612C34.5976 36.5662 34.5674 36.5763 34.5322 36.5814C34.5222 36.5864 34.5071 36.5914 34.497 36.5965C34.492 36.6015 34.492 36.6066 34.4869 36.6116C34.331 36.6721 34.1751 36.7376 34.0192 36.7931C33.989 36.8032 33.9488 36.7881 33.9136 36.7881C33.8935 36.778 33.8784 36.7679 33.8582 36.7578C33.8281 36.7427 33.7979 36.7225 33.7727 36.7074C33.7375 36.6872 33.4257 36.8788 33.2547 37.0603C33.139 37.1813 33.0284 37.3073 32.9127 37.4283C32.7668 37.5846 32.621 37.7358 32.5355 37.9274C32.4852 38.0484 32.4248 38.1694 32.3745 38.2954C32.3695 38.3105 32.3796 38.3257 32.3846 38.3408C32.4047 38.3105 32.4298 38.2803 32.45 38.25C32.6512 37.9224 32.802 38.0988 33.0887 37.8215C33.2245 37.6905 33.7074 37.272 33.8935 37.2166C33.9639 37.1964 33.8029 36.9847 33.8733 36.9695C33.9991 36.9443 34.1298 36.9141 34.2506 36.9242C34.5775 36.9595 34.834 37.1006 35.0201 37.3426C35.0402 37.3476 35.0754 37.3476 35.0855 37.3577C35.1508 37.4636 35.2062 37.5745 35.2665 37.6854C35.352 37.8417 35.4174 38.0081 35.5331 38.1442C35.6236 38.25 35.7695 38.3206 35.8952 38.3962C36.0461 38.487 36.2121 38.5626 36.368 38.6433C36.4535 38.6886 36.539 38.734 36.6245 38.7743C36.6497 38.7844 36.6849 38.7743 36.71 38.7743C36.7201 38.6382 36.7352 38.4971 36.7452 38.361C36.7503 38.3206 36.7653 38.2954 36.7754 38.2753Z" fill="#868789"/>
<path d="M35.0201 37.3275C34.839 37.0855 34.5775 36.9443 34.2506 36.909C34.1298 36.899 33.9991 36.9292 33.8733 36.9544C33.7979 36.9695 33.8884 37.1813 33.813 37.2065C33.6219 37.2619 33.4207 37.4586 33.2899 37.5846C33.0032 37.8619 32.6461 37.9022 32.4449 38.2349C32.4248 38.2652 32.4047 38.2954 32.3796 38.3257C32.3443 38.3912 32.3091 38.4517 32.2739 38.5172C32.1884 38.7138 32.108 38.9155 32.0225 39.1121C32.0174 39.1524 32.0124 39.1877 32.0124 39.2281C31.9973 39.3642 32.0325 39.4801 32.118 39.586C32.1985 39.712 32.3443 39.7574 32.4902 39.7877C32.9278 39.8885 33.3754 39.8229 33.818 39.7221C34.0142 39.6767 33.9387 39.6566 34.1298 39.586C34.2053 39.5558 34.2958 39.2835 34.3411 39.223C34.5171 38.9659 34.9346 38.8651 35.1006 38.608C35.2263 38.4114 35.2213 38.2047 35.1861 37.998C35.1508 37.761 35.1207 37.5342 35.0201 37.3275Z" fill="#9C9D9F"/>
<path d="M11.9394 40.5338C11.9343 40.559 11.9293 40.5842 11.9243 40.6094C11.9293 40.5842 11.9343 40.559 11.9394 40.5338Z" fill="#868789"/>
<path d="M23.1805 42.9284C23.1905 42.9435 23.1955 42.9637 23.2056 42.9788C23.1955 42.9637 23.1905 42.9435 23.1805 42.9284Z" fill="#B2B2B2"/>
<path d="M21.2239 47.995C21.0026 47.9496 20.7763 47.9042 20.555 47.8488C19.8157 47.6723 19.0763 47.5009 18.342 47.3093C17.9195 47.1984 17.5121 47.0522 17.1651 46.7699C16.9689 46.6086 16.8382 46.417 16.8633 46.1448C16.8683 46.1196 16.8482 46.0893 16.8382 46.0641C16.8633 46.0137 16.9136 45.9633 16.9186 45.9078C16.9438 45.4844 17.0796 45.1012 17.2908 44.7383C17.6077 44.1887 18.0201 43.735 18.5432 43.3771C18.7544 43.2309 18.9757 43.1099 19.2373 43.0797C19.2674 43.0948 19.2926 43.125 19.3228 43.1301C19.4083 43.1401 19.4435 43.1855 19.4384 43.2611C19.4334 43.3368 19.4183 43.4073 19.4032 43.483C19.368 43.6544 19.2775 43.8359 19.3932 44.0022C19.4787 44.1232 19.5893 44.2392 19.7151 44.3097C20.1275 44.5517 20.555 44.7685 20.9775 44.9954C21.4553 45.2474 21.9381 45.4945 22.4159 45.7465C22.5417 45.8121 22.6574 45.8877 22.7781 45.9583C22.7781 45.9935 22.7781 46.0238 22.7781 46.0591C22.7881 46.0742 22.7932 46.0944 22.8032 46.1095C22.8133 46.3666 22.8284 46.6187 22.8284 46.8758C22.8284 47.2488 22.8133 47.6269 22.8083 48C22.2801 47.995 21.752 47.995 21.2239 47.995Z" fill="#A8A8AA"/>
<path d="M22.7781 46.0541C22.7781 46.0188 22.7781 45.9886 22.7781 45.9533C22.8334 45.55 22.8686 45.1416 22.9491 44.7434C23.0396 44.2997 22.9943 43.8662 22.9441 43.4276C22.9088 43.1049 22.8787 42.7873 22.8585 42.4647C22.8485 42.3235 22.939 42.2378 23.0748 42.253C23.1905 42.2681 23.3062 42.3135 23.4168 42.3387C23.4621 42.3487 23.5124 42.3588 23.5577 42.3689C23.7085 42.4647 23.8544 42.5605 24.0053 42.6563C24.0556 42.6916 24.1059 42.7268 24.1562 42.7571C24.2417 42.8176 24.3222 42.8781 24.4077 42.9386C24.4278 42.9587 24.4429 42.9789 24.463 42.994C24.5032 43.0293 24.5485 43.0646 24.5887 43.0999C24.6038 43.11 24.6189 43.1251 24.634 43.1352C24.6541 43.1554 24.6692 43.1755 24.6893 43.1957C24.7547 43.2511 24.8201 43.3066 24.8804 43.3621C24.8955 43.3772 24.9106 43.3873 24.9307 43.4024C24.9961 43.4629 25.0665 43.5234 25.1319 43.5839C25.1722 43.6141 25.2174 43.6494 25.2577 43.6797C25.2778 43.6948 25.2929 43.7099 25.313 43.7301C25.3532 43.7654 25.3935 43.8006 25.4287 43.8359C25.5293 43.9418 25.6349 44.0527 25.7355 44.1586C25.8159 44.2997 25.8964 44.4359 25.9719 44.577C25.9668 44.6123 25.9618 44.6526 25.9467 44.6879C25.8059 44.9803 25.7757 45.2929 25.7405 45.6054C25.6952 45.9936 25.7556 46.3919 25.6148 46.77C25.5745 46.8759 25.5795 46.9969 25.5645 47.1078C25.5343 47.1279 25.4991 47.1431 25.4739 47.1683C25.2275 47.4657 24.9408 47.7127 24.5938 47.8892C24.5485 47.9093 24.5183 47.9547 24.4831 47.99C23.9198 47.99 23.3615 47.99 22.7982 47.99C22.8083 47.6169 22.8183 47.2388 22.8183 46.8658C22.8183 46.6087 22.8032 46.3566 22.7932 46.0995C22.7932 46.0894 22.7881 46.0693 22.7781 46.0541Z" fill="#CCCCCC"/>
<path d="M25.5745 47.1126C25.5896 46.9967 25.5846 46.8757 25.6248 46.7749C25.7657 46.3968 25.7053 45.9985 25.7506 45.6103C25.7858 45.2978 25.816 44.9802 25.9568 44.6928C25.9719 44.6626 25.9719 44.6222 25.9819 44.5819C26.0071 44.5668 26.0373 44.5516 26.0574 44.5315C26.1429 44.4206 26.2183 44.3046 26.3038 44.1887C26.4849 44.0173 26.666 43.8408 26.847 43.6694C27.0281 43.5535 27.2041 43.4425 27.3852 43.3266C27.4053 43.3568 27.4154 43.4022 27.4405 43.4173C27.6819 43.5686 27.8429 43.7904 27.9887 44.0273C28.1094 44.2189 28.2151 44.4256 28.3056 44.6323C28.381 44.8037 28.4313 44.9902 28.4917 45.1717C28.4867 45.2121 28.4665 45.2524 28.4766 45.2877C28.5319 45.5801 28.6023 45.8674 28.6426 46.1548C28.7231 46.7245 28.6174 47.2538 28.2654 47.7277C28.2 47.8134 28.1447 47.9041 28.0843 47.9949C27.3399 47.9949 26.5905 47.9949 25.8461 47.9949C25.8411 47.9798 25.8411 47.9596 25.831 47.9495C25.65 47.7025 25.5645 47.4202 25.5745 47.1126ZM26.5704 44.7382C26.5704 44.7432 26.5704 44.7432 26.5704 44.7382C26.6609 44.7432 26.7565 44.7382 26.847 44.7432C26.9929 44.7432 27.1086 44.6777 27.1739 44.5516C27.3198 44.2845 27.3852 44.0021 27.3852 43.6997C27.3852 43.5182 27.345 43.498 27.1739 43.5736C26.8772 43.7047 26.676 43.9517 26.4597 44.1786C26.3541 44.2895 26.2586 44.4155 26.168 44.5416C26.0876 44.6525 26.1177 44.7231 26.2535 44.7382C26.3592 44.7483 26.4648 44.7382 26.5704 44.7382Z" fill="#B2B2B2"/>
<path d="M28.0893 47.995C28.1496 47.9042 28.205 47.8135 28.2704 47.7278C28.6174 47.2589 28.7281 46.7245 28.6476 46.1549C28.6073 45.8625 28.5319 45.5751 28.4816 45.2878C28.4766 45.2525 28.4917 45.2121 28.4967 45.1718C28.5067 45.1869 28.5168 45.197 28.5269 45.2121C28.7381 45.6155 28.9192 46.0339 28.9745 46.4926C29.0097 46.8052 29.231 46.9867 29.4624 47.0069C30.1363 47.0623 30.6644 46.785 31.0819 46.2759C31.1674 46.17 31.2529 46.049 31.2831 45.923C31.3233 45.7617 31.3082 45.5852 31.3183 45.4188C31.3434 45.444 31.3736 45.4693 31.3887 45.4995C31.4742 45.681 31.5597 45.8675 31.6402 46.054C31.6653 46.2658 31.6955 46.4775 31.7106 46.6943C31.7156 46.8052 31.6854 46.9161 31.6703 47.022C31.4943 47.516 31.0819 47.7429 30.6443 47.9446C30.6141 47.9597 30.589 47.9798 30.5588 47.995C29.7289 47.995 28.9091 47.995 28.0893 47.995Z" fill="#A8A8AA"/>
<path d="M19.2373 43.0797C18.9757 43.11 18.7544 43.231 18.5432 43.3772C18.0201 43.7351 17.6077 44.1939 17.2908 44.7383C17.0796 45.1013 16.9488 45.4895 16.9186 45.9079C16.9136 45.9634 16.8683 46.0138 16.8382 46.0642C16.5012 45.9785 16.1642 45.8978 15.8323 45.8021C15.3544 45.6659 14.8867 45.4945 14.4039 45.3836C14.0669 45.303 13.7148 45.2929 13.3728 45.2526C13.2169 45.2324 13.0559 45.2122 12.9 45.187C12.5831 45.1316 12.3618 44.94 12.1657 44.698C12.0098 44.5014 11.8388 44.3149 11.6728 44.1283C11.5672 44.0174 11.4817 43.9065 11.5219 43.7402C11.5269 43.7149 11.532 43.6897 11.537 43.6645C11.542 43.4629 11.542 43.2612 11.5471 43.0596C11.6929 43.0041 11.8337 42.9386 11.9846 42.8882C12.4976 42.7117 12.9956 42.7168 13.4583 43.0444C13.4935 43.0697 13.5539 43.0797 13.5991 43.0797C13.9814 43.0797 14.3536 43.1049 14.7257 43.2058C14.761 43.2159 14.8263 43.1906 14.8414 43.1654C15.0124 42.8882 15.1784 42.6059 15.3394 42.3185C15.5204 41.9958 15.6612 41.653 15.7417 41.2901C15.7467 41.2699 15.7719 41.2598 15.792 41.2447C15.8071 41.5925 15.7216 41.9253 15.6009 42.2479C15.4852 42.5554 15.3544 42.8579 15.2438 43.1654C15.2186 43.231 15.2186 43.3167 15.2388 43.3822C15.3695 43.8107 15.5003 44.2342 15.6462 44.6577C15.7115 44.8442 15.8021 45.0257 15.8976 45.1971C15.9731 45.3332 16.129 45.3685 16.2396 45.2878C16.3 45.2475 16.3654 45.2021 16.4107 45.1416C16.5867 44.9299 16.7527 44.7081 16.9237 44.4964C17.0997 44.2745 17.2607 44.0376 17.4518 43.8359C17.6429 43.6393 17.8642 43.473 18.0805 43.3016C18.3672 43.0697 18.684 42.8983 19.0411 42.8125C19.197 42.7722 19.3278 42.7016 19.4284 42.5806C19.4787 42.5201 19.5189 42.4496 19.5592 42.384C19.6547 42.5353 19.695 42.7016 19.6899 42.8831C19.539 42.9436 19.3882 43.0092 19.2373 43.0797Z" fill="#7C7D81"/>
<path d="M15.792 41.2395C15.7769 41.2546 15.7467 41.2697 15.7417 41.2849C15.6612 41.6478 15.5204 41.9906 15.3393 42.3133C15.1784 42.6006 15.0124 42.883 14.8414 43.1602C14.8263 43.1905 14.7609 43.2106 14.7257 43.2006C14.3586 43.0997 13.9814 43.0745 13.5991 43.0745C13.5538 43.0745 13.4935 43.0644 13.4583 43.0392C12.9956 42.7116 12.4976 42.7015 11.9846 42.883C11.8388 42.9334 11.6929 42.9989 11.547 43.0544C11.4464 42.5401 11.6124 42.0915 11.9142 41.6882C12.2612 41.2193 12.7189 40.9168 13.3024 40.811C13.3929 40.7958 13.4834 40.7706 13.5689 40.7505C13.584 40.7454 13.5991 40.7404 13.6192 40.7404C14.3083 40.5287 14.9671 40.2262 15.6914 40.1405C15.9831 40.1052 16.2799 40.08 16.5716 40.0497C16.5867 40.1606 16.5313 40.2161 16.4408 40.2665C16.2145 40.4026 16.0032 40.5589 15.9077 40.816C15.8574 40.9572 15.8272 41.1034 15.792 41.2395Z" fill="#868789"/>
<path d="M31.6653 47.0221C31.6804 46.9112 31.7106 46.8002 31.7056 46.6944C31.6955 46.4826 31.6603 46.2709 31.6351 46.0541C31.6704 46.039 31.7207 46.0289 31.7408 46.0037C31.8263 45.8978 31.9067 45.7819 31.9872 45.671C32.1381 45.4643 32.294 45.2677 32.4348 45.0559C32.5556 44.8795 32.6914 44.698 32.7467 44.4964C32.8171 44.2443 32.8121 43.9721 32.8372 43.7049C32.8573 43.5183 32.8674 43.3318 32.8925 43.1453C32.8976 43.1201 32.9378 43.1049 32.963 43.0848C32.9479 43.4326 33.0233 43.7654 33.0887 44.0981C33.149 44.4056 33.2446 44.6879 33.5011 44.8896C33.8331 45.1517 34.165 45.424 34.507 45.676C34.5925 45.7416 34.7233 45.7769 34.8289 45.7718C35.0955 45.7668 35.3621 45.7466 35.6236 45.6962C36.2171 45.5802 36.7905 45.4088 37.2683 45.0156C37.4292 44.8845 37.5851 44.7383 37.6153 44.5165C37.6304 44.5165 37.6455 44.5165 37.6606 44.5165C37.6505 44.9097 37.4795 45.2324 37.223 45.5197C36.886 45.9029 36.4585 46.1449 36.0008 46.3364C35.4777 46.5532 34.9496 46.7549 34.4215 46.9565C34.0745 47.0876 33.7124 47.1683 33.3402 47.1582C32.8976 47.1531 32.455 47.1279 32.0124 47.1027C31.8967 47.1027 31.781 47.0523 31.6653 47.0221Z" fill="#7C7D81"/>
<path d="M17.2959 36.6267C17.2204 36.9242 17.1249 37.2115 17.0796 37.514C17.0142 37.9224 16.9891 38.3358 16.9488 38.7441C16.8231 38.9962 16.6822 39.2382 16.5766 39.4953C16.4962 39.707 16.3604 39.7776 16.1491 39.8078C15.6059 39.8834 15.0778 40.0347 14.5648 40.2313C14.3133 40.3271 14.0568 40.4128 13.8003 40.4985C13.7198 40.5237 13.6394 40.5388 13.5539 40.559C13.4633 40.1506 13.3929 39.7272 13.5689 39.344C13.7148 39.0365 13.9512 38.7744 14.1473 38.492C14.2077 38.4719 14.2681 38.4618 14.3234 38.4315C14.6402 38.2652 14.9571 38.0887 15.274 37.9224C15.3092 37.9022 15.3544 37.8972 15.3896 37.9022C15.7467 37.9677 16.0988 38.0434 16.4559 38.1089C16.5766 38.1341 16.6973 38.1442 16.8231 38.1643C16.8231 38.1543 16.8281 38.1442 16.8281 38.1341C16.4962 37.998 16.1642 37.8619 15.8322 37.7308C15.6763 37.6703 15.5154 37.6098 15.3595 37.5543C15.4299 37.514 15.5003 37.4737 15.5707 37.4334C15.8775 37.2619 16.1893 37.0905 16.4962 36.9141C16.7476 36.7729 17.0092 36.662 17.2959 36.6267Z" fill="#CCCCCC"/>
<path d="M39.8384 41.4865C39.9088 41.5974 39.9943 41.7083 40.0446 41.8293C40.1754 42.1268 40.2911 42.4343 40.4168 42.7368C40.5476 43.0493 40.5174 43.2611 40.2709 43.4879C39.8334 43.8862 39.3556 44.2189 38.7822 44.3903C38.7671 44.3954 38.747 44.3954 38.7319 44.3954C38.5709 44.3702 38.405 44.3399 38.244 44.3198C37.9775 44.2845 37.7964 44.1433 37.7511 43.8812C37.7109 43.6543 37.7109 43.4174 37.6958 43.1855C37.6958 43.1098 37.7008 43.0342 37.7008 42.9586C37.7159 42.8931 37.736 42.8326 37.7511 42.767C37.7763 42.636 37.8014 42.5099 37.8266 42.3788C37.9221 42.3536 38.0328 42.3436 38.1183 42.2982C38.3245 42.1873 38.5357 42.1117 38.7671 42.0764C39.0035 42.0411 39.2449 42.0007 39.4763 41.9503C39.7127 41.8999 39.7881 41.7991 39.8133 41.5571C39.8082 41.5269 39.8283 41.5067 39.8384 41.4865Z" fill="#B0B1B2"/>
<path d="M39.8384 41.4866C39.8283 41.5068 39.8133 41.532 39.8082 41.5521C39.7831 41.7941 39.7076 41.8949 39.4712 41.9454C39.2349 41.9958 38.9985 42.0361 38.7621 42.0714C38.5307 42.1067 38.3195 42.1773 38.1133 42.2932C38.0278 42.3386 37.9171 42.3487 37.8215 42.3739C37.565 42.1319 37.4041 41.8345 37.2884 41.5068C37.213 41.3001 37.1325 41.0984 37.0721 40.8917C36.9866 40.5892 36.8056 40.3674 36.5239 40.2263C36.3227 40.1305 36.1266 40.0297 35.9254 39.9288C35.855 39.8935 35.7896 39.8431 35.694 39.7877C35.7946 39.7473 35.8499 39.7221 35.9053 39.702C35.9908 39.707 36.0813 39.702 36.1668 39.7221C36.4032 39.7776 36.6346 39.8381 36.8659 39.9087C37.4946 40.1103 38.1032 40.3573 38.6816 40.685C38.7168 40.7052 38.757 40.7052 38.7973 40.7153C38.8778 40.7758 38.9582 40.8413 39.0437 40.9018C39.2952 41.0833 39.5517 41.2597 39.8032 41.4412C39.8183 41.4463 39.8283 41.4664 39.8384 41.4866Z" fill="#CACACA"/>
<path d="M38.7973 40.7102C38.757 40.7001 38.7168 40.7001 38.6816 40.6799C38.1032 40.3522 37.4946 40.1052 36.8659 39.9036C36.6346 39.833 36.4032 39.7725 36.1668 39.717C36.0813 39.6969 35.9958 39.7019 35.9053 39.6969C35.7544 39.6263 35.6085 39.6465 35.4828 39.7372C35.3721 39.8179 35.2766 39.9288 35.176 40.0246C35.1257 40.0346 35.0704 40.0397 35.0201 40.0498C34.9195 40.075 34.8239 40.1002 34.7233 40.1254C34.6278 39.9842 34.6529 39.838 34.7535 39.7322C34.9849 39.4801 35.2212 39.228 35.4727 38.9961C35.8499 38.6533 36.2473 38.3307 36.6295 37.9929C36.7452 37.8921 36.8307 37.761 36.9313 37.6451C36.9665 37.6703 37.0067 37.6955 37.042 37.7207C37.0218 37.756 37.0067 37.8064 36.9766 37.8316C36.7704 38.0131 36.6044 38.2198 36.5742 38.5021C36.534 38.8751 36.5943 39.0113 36.9011 39.107C37.3286 39.2381 37.6606 39.5154 38.0177 39.7574C38.2541 39.9187 38.4955 40.0498 38.7872 40.0447C38.7922 40.2766 38.7973 40.4934 38.7973 40.7102Z" fill="#7C7B7A"/>
<path d="M38.7922 40.0599C38.5005 40.0599 38.2541 39.9288 38.0227 39.7725C37.6656 39.5306 37.3337 39.2533 36.9061 39.1222C36.5993 39.0264 36.539 38.8903 36.5792 38.5172C36.6094 38.2349 36.7754 38.0282 36.9816 37.8467C37.0118 37.8215 37.0269 37.7711 37.047 37.7358C37.5902 38.0938 38.1032 38.487 38.5206 38.9911C38.7872 39.2987 38.8375 39.6667 38.7922 40.0599Z" fill="#9A9A9A"/>
<path d="M13.5538 40.559C13.6343 40.5388 13.7198 40.5237 13.8003 40.4985C14.0568 40.4128 14.3133 40.3271 14.5648 40.2313C15.0778 40.0347 15.6059 39.8835 16.1541 39.8078C16.3603 39.7776 16.4961 39.707 16.5817 39.4953C16.6822 39.2382 16.8281 38.9911 16.9538 38.7441C16.974 38.9004 16.989 39.0567 17.0092 39.213C17.0444 39.5003 17.155 39.7675 17.2808 40.0297C17.0444 40.0397 16.808 40.0498 16.5716 40.0549C16.2799 40.0851 15.9831 40.1103 15.6914 40.1456C14.9672 40.2263 14.3033 40.5338 13.6192 40.7405C13.6041 40.7455 13.5891 40.7506 13.5689 40.7506C13.5639 40.6901 13.5589 40.6245 13.5538 40.559Z" fill="#B2B2B2"/>
<path d="M15.3544 37.5493C15.5103 37.6098 15.6713 37.6653 15.8272 37.7258C16.1592 37.8569 16.4911 37.993 16.8231 38.1291C16.8231 38.1392 16.818 38.1493 16.818 38.1593C16.6973 38.1392 16.5716 38.1291 16.4509 38.1039C16.0938 38.0333 15.7417 37.9627 15.3846 37.8972C15.3494 37.8922 15.2991 37.8972 15.2689 37.9174C14.9521 38.0837 14.6352 38.2602 14.3183 38.4265C14.263 38.4568 14.2027 38.4669 14.1423 38.487C14.434 38.0938 14.776 37.756 15.2438 37.5746C15.284 37.5645 15.3192 37.5594 15.3544 37.5493Z" fill="#B0B1B2"/>
<path d="M37.6908 43.1805C37.7109 43.4124 37.7109 43.6493 37.7461 43.8762C37.7914 44.1383 37.9724 44.2795 38.239 44.3148C38.3999 44.3349 38.5659 44.3652 38.7269 44.3904C38.4351 44.4257 38.1434 44.461 37.8467 44.4963C37.7863 44.5013 37.726 44.5114 37.6606 44.5164C37.6455 44.5164 37.6304 44.5164 37.6153 44.5164C37.6656 44.3249 37.6505 44.1383 37.56 43.9619C37.5348 43.9115 37.5097 43.8611 37.4896 43.8106C37.5147 43.7854 37.56 43.7653 37.565 43.7401C37.5952 43.5939 37.6153 43.4426 37.6405 43.2914C37.6505 43.2511 37.6757 43.2158 37.6908 43.1805Z" fill="#959698"/>
<path d="M19.2373 43.0796C19.3881 43.009 19.539 42.9384 19.6899 42.8729C19.8559 42.7872 20.0269 42.7015 20.1929 42.6158C20.379 42.52 20.56 42.4242 20.7461 42.3234C20.9876 42.2074 21.229 42.1016 21.4704 41.9806C21.9784 41.7235 22.4813 41.7235 22.9742 42.0108C23.0346 42.0461 23.1 42.0764 23.1603 42.1116C23.2911 42.1822 23.4219 42.2578 23.5526 42.3284C23.5577 42.3436 23.5577 42.3536 23.5627 42.3688C23.5174 42.3587 23.4671 42.3486 23.4219 42.3385C23.3062 42.3083 23.1955 42.2629 23.0799 42.2528C22.9441 42.2377 22.8535 42.3234 22.8636 42.4645C22.8837 42.7872 22.9139 43.1098 22.9491 43.4274C22.9994 43.866 23.0446 44.2996 22.9541 44.7432C22.8736 45.1415 22.8384 45.5498 22.7831 45.9531C22.6624 45.8826 22.5417 45.807 22.421 45.7414C21.9432 45.4893 21.4603 45.2423 20.9825 44.9903C20.56 44.7684 20.1325 44.5466 19.7201 44.3046C19.5944 44.2341 19.4837 44.1131 19.3982 43.9971C19.2775 43.8307 19.368 43.6493 19.4083 43.4779C19.4234 43.4073 19.4384 43.3317 19.4435 43.256C19.4485 43.1754 19.4133 43.13 19.3278 43.125C19.2926 43.125 19.2624 43.0947 19.2373 43.0796Z" fill="#B2B2B2"/>
<path d="M27.3801 43.3266C27.6668 43.1501 27.9787 43.0745 28.3106 43.1501C28.4062 43.1854 28.5118 43.2106 28.6023 43.251C28.9343 43.4072 29.2612 43.5736 29.5932 43.7349C29.6233 43.7551 29.6535 43.7702 29.6837 43.7904C29.8044 43.8811 29.9251 43.9719 30.0458 44.0626C30.1514 44.1483 30.2621 44.234 30.3677 44.3248C30.4582 44.4054 30.5437 44.4861 30.6343 44.5668C30.6795 44.6121 30.7248 44.6575 30.7701 44.7029C30.8153 44.7583 30.8656 44.8087 30.9059 44.8642C31.0417 45.0457 31.1724 45.2322 31.3082 45.4187C31.2982 45.5851 31.3133 45.7616 31.273 45.9229C31.2429 46.0489 31.1574 46.1749 31.0718 46.2758C30.6544 46.7849 30.1213 47.0622 29.4523 47.0068C29.221 46.9866 29.0047 46.8051 28.9645 46.4925C28.9091 46.0287 28.7281 45.6154 28.5168 45.212C28.5118 45.1969 28.4967 45.1868 28.4866 45.1717C28.4263 44.9902 28.376 44.8037 28.3006 44.6323C28.21 44.4256 28.0994 44.2189 27.9837 44.0273C27.8378 43.7954 27.6819 43.5686 27.4355 43.4173C27.4103 43.4022 27.4003 43.3568 27.3801 43.3266Z" fill="#CACACA"/>
<path d="M26.5704 44.7383C26.4648 44.7383 26.3591 44.7483 26.2585 44.7332C26.1228 44.7181 26.0926 44.6475 26.173 44.5366C26.2636 44.4106 26.3591 44.2896 26.4648 44.1736C26.681 43.9468 26.8822 43.6997 27.179 43.5687C27.35 43.4931 27.3902 43.5132 27.3902 43.6947C27.3902 43.9972 27.3248 44.2845 27.179 44.5467C27.1086 44.6727 26.9979 44.7383 26.852 44.7383C26.7514 44.7433 26.6609 44.7433 26.5704 44.7383C26.5704 44.7433 26.5704 44.7433 26.5704 44.7383Z" fill="#CACACA"/>
<path d="M31.3133 45.4189C31.1775 45.2324 31.0467 45.0458 30.9109 44.8643C30.8707 44.8089 30.8204 44.7585 30.7751 44.703C30.8003 44.6173 30.8254 44.5266 30.8506 44.4409C30.8606 44.4005 30.8707 44.3552 30.8807 44.3148C30.9059 44.2392 30.926 44.1636 30.9512 44.093C30.9763 44.0174 31.0065 43.9418 31.0316 43.8661C31.0517 43.8208 31.0719 43.7754 31.092 43.73C31.097 43.7149 31.102 43.6947 31.1071 43.6796C31.1523 43.5738 31.1976 43.4679 31.2429 43.3671C31.2831 43.2914 31.3233 43.2158 31.3636 43.1402C31.3938 43.0898 31.429 43.0394 31.4591 42.989C31.4843 42.9486 31.5145 42.9083 31.5396 42.868C31.781 42.6411 32.0275 42.4142 32.2689 42.1874C32.284 42.1773 32.2991 42.1672 32.3142 42.1571C32.4801 42.0664 32.6511 41.9756 32.8171 41.8849C32.8724 41.8597 32.9227 41.8345 32.9781 41.8093C32.9982 41.7992 33.0183 41.7942 33.0384 41.7841C33.0837 41.774 33.1239 41.7639 33.1692 41.7538C33.1843 41.7538 33.2044 41.7538 33.2195 41.7538C33.2245 41.7589 33.2346 41.7639 33.2396 41.7639C33.4609 41.7589 33.6772 41.7589 33.8985 41.7437C33.9437 41.7437 33.984 41.6984 34.0242 41.6732C34.0393 41.648 34.0594 41.6228 34.0745 41.5975C34.0997 41.5572 34.1248 41.5169 34.155 41.4715C34.1902 41.4211 34.2204 41.3656 34.2556 41.3152C34.2858 41.2799 34.3159 41.2447 34.3411 41.2094C34.4115 41.1186 34.4769 41.0228 34.5473 40.927C34.5423 41.2497 34.663 41.5018 34.9597 41.658C35.1609 41.7589 35.3571 41.8698 35.5582 41.9656C35.8147 42.0916 36.0713 42.2227 36.2674 42.4445C36.3932 42.5856 36.5239 42.7167 36.6497 42.8579C36.6647 42.873 36.6547 42.9033 36.6597 42.9285C36.6195 42.8982 36.5742 42.873 36.539 42.8428C36.1266 42.4999 35.6639 42.2428 35.181 42.0261C34.9547 41.9252 34.7183 41.8345 34.4568 41.8698C34.3562 41.8799 34.2556 41.8748 34.16 41.9C33.9991 41.9404 33.818 41.9706 33.6822 42.0563C33.3 42.2933 33.0585 42.6411 32.963 43.0847C32.9378 43.1049 32.8976 43.1251 32.8926 43.1452C32.8724 43.3318 32.8574 43.5183 32.8372 43.7048C32.8121 43.972 32.8171 44.2442 32.7467 44.4963C32.6914 44.698 32.5506 44.8795 32.4349 45.0559C32.294 45.2676 32.1381 45.4693 31.9872 45.6709C31.9068 45.7819 31.8263 45.8928 31.7408 46.0037C31.7207 46.0339 31.6704 46.039 31.6352 46.0541C31.5497 45.8676 31.4692 45.6861 31.3837 45.4995C31.3686 45.4693 31.3384 45.4491 31.3133 45.4189Z" fill="#868789"/>
<path d="M16.5716 40.0549C16.808 40.0448 17.0444 40.0347 17.2808 40.0296C17.316 40.0397 17.3512 40.0498 17.3864 40.0549C17.5674 40.0851 17.7284 40.1406 17.8541 40.2918C18 40.4682 18.1559 40.6296 18.3068 40.801C18.3873 40.8968 18.4677 40.9925 18.5482 41.0934C18.6035 41.1589 18.6589 41.2244 18.7092 41.29C18.8852 41.4765 19.0562 41.6681 19.2322 41.8546C19.3026 41.9403 19.3731 42.026 19.4435 42.1117C19.4636 42.1521 19.4887 42.1924 19.5089 42.2277C19.5239 42.2781 19.5441 42.3235 19.5591 42.3739C19.5139 42.4394 19.4787 42.51 19.4284 42.5705C19.3278 42.6915 19.197 42.7671 19.0411 42.8024C18.684 42.8931 18.3671 43.0645 18.0805 43.2914C17.8642 43.4628 17.6429 43.6292 17.4518 43.8258C17.2556 44.0274 17.0947 44.2644 16.9237 44.4862C16.7526 44.703 16.5867 44.9197 16.4106 45.1315C16.3654 45.1869 16.3 45.2323 16.2396 45.2777C16.129 45.3533 15.9731 45.3231 15.8976 45.1869C15.8021 45.0155 15.7115 44.834 15.6461 44.6475C15.5003 44.224 15.3695 43.8006 15.2387 43.3721C15.2186 43.3065 15.2237 43.2208 15.2438 43.1553C15.3595 42.8478 15.4852 42.5453 15.6009 42.2378C15.7216 41.9151 15.8071 41.5824 15.792 41.2345C15.8322 41.0984 15.8624 40.9522 15.9077 40.8211C16.0032 40.559 16.2145 40.4027 16.4408 40.2716C16.5263 40.2212 16.5867 40.1658 16.5716 40.0549Z" fill="#939496"/>
<path d="M32.963 43.0797C33.0636 42.6361 33.305 42.2882 33.6822 42.0513C33.823 41.9656 33.9991 41.9354 34.16 41.895C34.2556 41.8698 34.3562 41.8799 34.4567 41.8648C34.7183 41.8345 34.9496 41.9202 35.181 42.0211C35.6689 42.2378 36.1266 42.4949 36.539 42.8378C36.5792 42.868 36.6195 42.8932 36.6597 42.9235C36.7351 42.989 36.8106 43.0596 36.886 43.1251C37.0872 43.352 37.2884 43.5788 37.4896 43.8057C37.5147 43.8561 37.5399 43.9065 37.56 43.9569C37.6455 44.1334 37.6606 44.3199 37.6153 44.5115C37.5851 44.7383 37.4292 44.8795 37.2683 45.0106C36.7905 45.4038 36.2121 45.5752 35.6236 45.6912C35.3621 45.7416 35.0955 45.7567 34.8289 45.7668C34.7183 45.7718 34.5925 45.7315 34.507 45.671C34.165 45.4189 33.8331 45.1517 33.5011 44.8845C33.2446 44.6829 33.1491 44.3955 33.0887 44.093C33.0233 43.7603 32.9479 43.4276 32.963 43.0797Z" fill="#9C9D9F"/>
<path d="M36.8911 43.1301C36.8156 43.0645 36.7402 42.9939 36.6647 42.9284C36.6597 42.9032 36.6698 42.8729 36.6547 42.8578C36.5289 42.7167 36.3982 42.5856 36.2724 42.4444C36.0763 42.2226 35.8198 42.0966 35.5633 41.9655C35.3621 41.8647 35.1609 41.7588 34.9647 41.658C34.668 41.5067 34.5473 41.2496 34.5523 40.927C34.6227 40.8161 34.6881 40.7052 34.7585 40.5943C34.8088 40.5237 34.8642 40.4531 34.9144 40.3825C35.005 40.2666 35.0955 40.1456 35.186 40.0296C35.2866 39.9338 35.3822 39.8229 35.4928 39.7423C35.6186 39.6515 35.7644 39.6314 35.9153 39.7019C35.86 39.7271 35.8047 39.7473 35.7041 39.7876C35.7946 39.8431 35.86 39.8935 35.9355 39.9288C36.1316 40.0296 36.3328 40.1254 36.534 40.2262C36.8156 40.3674 36.9967 40.5842 37.0822 40.8917C37.1425 41.0984 37.223 41.3051 37.2985 41.5067C37.4192 41.8344 37.5751 42.1319 37.8316 42.3739C37.8064 42.5049 37.7813 42.636 37.7562 42.762C37.7411 42.8276 37.726 42.8881 37.7059 42.9536C37.6908 42.9687 37.6656 42.9788 37.6556 42.999C37.5349 43.2359 37.1979 43.3317 36.9917 43.1401C36.9615 43.12 36.9212 43.1351 36.8911 43.1301Z" fill="#959698"/>
<path d="M36.891 43.1301C36.9212 43.1301 36.9665 43.12 36.9816 43.1401C37.1878 43.3317 37.5197 43.2359 37.6455 42.999C37.6555 42.9788 37.6807 42.9687 37.6958 42.9536C37.6958 43.0292 37.6907 43.1049 37.6907 43.1805C37.6757 43.2158 37.6555 43.2561 37.6455 43.2914C37.6203 43.4426 37.6002 43.5888 37.57 43.7401C37.565 43.7653 37.5197 43.7854 37.4946 43.8106C37.2934 43.5838 37.0922 43.3569 36.891 43.1301Z" fill="#868789"/>
<path d="M22.1444 39.8279C22.1091 39.7775 22.079 39.7321 22.0438 39.6868C21.8476 39.4347 21.7873 39.1473 21.8325 38.8398C21.8577 38.6835 21.8979 38.5272 21.9281 38.371C21.9331 38.3508 21.9231 38.3306 21.918 38.3105C21.913 38.3155 21.908 38.3256 21.9029 38.3306C21.7822 38.5474 21.6816 38.7743 21.6515 39.0213C21.6313 39.1877 21.5106 39.2885 21.3799 39.2986C21.0077 39.3288 20.7109 39.1776 20.4745 38.9053C20.4242 38.8499 20.379 38.7844 20.3639 38.7138C20.3438 38.6281 20.3488 38.5323 20.3438 38.4415C20.3287 38.4567 20.3136 38.4668 20.3035 38.4869C20.2532 38.5877 20.208 38.6835 20.1627 38.7844C20.1476 38.9003 20.1325 39.0112 20.1225 39.1272C20.1174 39.1877 20.1376 39.2431 20.1476 39.3036C20.2432 39.5708 20.4745 39.6918 20.721 39.8027C20.7361 39.8077 20.7512 39.8229 20.7663 39.8279C21.229 39.8279 21.6867 39.8279 22.1444 39.8279Z" fill="#A8A8AA"/>
<path d="M22.5367 37.3173C22.3757 37.2215 22.2047 37.1812 22.0186 37.2215C21.9633 37.2417 21.908 37.2518 21.8577 37.277C21.6716 37.3627 21.4905 37.4484 21.3044 37.5391C21.2893 37.5492 21.2692 37.5593 21.2541 37.5694C21.1887 37.6198 21.1183 37.6702 21.0529 37.7156C20.9926 37.7609 20.9322 37.8114 20.8719 37.8567C20.8216 37.9021 20.7713 37.9424 20.726 37.9878C20.7009 38.013 20.6757 38.0382 20.6506 38.0584C20.6254 38.0886 20.6003 38.1138 20.5751 38.1441C20.4997 38.2449 20.4242 38.3407 20.3488 38.4415C20.3538 38.5323 20.3438 38.6281 20.3689 38.7138C20.384 38.7843 20.4343 38.8499 20.4796 38.9053C20.716 39.1776 21.0077 39.3288 21.3849 39.2986C21.5157 39.2885 21.6364 39.1876 21.6565 39.0213C21.6867 38.7743 21.7873 38.5474 21.908 38.3306C21.913 38.3205 21.918 38.3155 21.9231 38.3105C21.9583 38.2147 21.9834 38.1138 22.0287 38.0181C22.079 37.9071 22.1393 37.7962 22.2047 37.6904C22.2852 37.5643 22.3757 37.4433 22.5115 37.3627C22.5216 37.3576 22.5266 37.3324 22.5367 37.3173Z" fill="#CACACA"/>
<path d="M23.4018 39.8078C23.3967 39.8128 23.3967 39.8229 23.3917 39.833C22.9742 39.833 22.5618 39.833 22.1444 39.833C22.1092 39.7826 22.079 39.7372 22.0438 39.6918C21.8476 39.4398 21.7873 39.1524 21.8325 38.8449C21.8577 38.6886 21.8979 38.5323 21.9281 38.376C21.9331 38.3559 21.9231 38.3357 21.918 38.3156C21.9532 38.2198 21.9784 38.1189 22.0237 38.0232C22.074 37.9122 22.1343 37.8013 22.1997 37.6955C22.2802 37.5694 22.3707 37.4484 22.5065 37.3678C22.5216 37.3577 22.5266 37.3375 22.5367 37.3174C22.6373 37.3779 22.7379 37.4384 22.8384 37.4989C22.939 37.5946 23.0396 37.6854 23.1402 37.7812C23.1855 37.8417 23.2308 37.9022 23.276 37.9627C23.2861 37.9727 23.3012 37.9828 23.3163 37.9879C23.3213 38.008 23.3213 38.0282 23.3313 38.0484C23.4118 38.2046 23.4269 38.376 23.447 38.5424C23.4722 38.7491 23.437 38.9659 23.5174 39.1675C23.5376 39.223 23.5376 39.2885 23.5476 39.349C23.5526 39.5204 23.5024 39.6717 23.4018 39.8078Z" fill="#B2B2B2"/>
<path d="M22.6523 37.4485C22.5568 37.4081 22.5367 37.4182 22.5367 37.514C22.5367 37.6753 22.5719 37.8316 22.6523 37.9728C22.6926 38.0383 22.7529 38.0736 22.8334 38.0736C22.8837 38.0736 22.934 38.0736 22.9893 38.0736C23.0497 38.0736 23.105 38.0786 23.1654 38.0736C23.2408 38.0635 23.2559 38.0282 23.2106 37.9677C23.1603 37.9022 23.11 37.8316 23.0497 37.7762C22.929 37.6552 22.8183 37.5241 22.6523 37.4485Z" fill="#B2B2B2"/>
<g opacity="0.8">
<path d="M16.7921 30.4301L16.7808 34.3656L19.6203 38.057L28.7636 39.5904L34.7266 39.4768L36.8846 36.5805L37.5093 35.3879C37.5093 35.3879 37.1118 32.6619 37.5093 32.6619C37.9069 32.6619 36.7143 31.1854 36.7143 31.1854L30.1266 28.8002L23.2549 27.9483L17.2919 29.1409L16.7921 30.4301Z" fill="#F4B546"/>
<path d="M19.0013 30.163L18.723 35.6036L21.3297 37.5458L30.8137 38.3977L35.0162 37.8866L34.1076 31.2989" fill="#E39736"/>
<path d="M10.0281 3C10.0169 3.01125 10.0113 3.01688 10 3.02813C10.0113 3.01688 10.0169 3.01125 10.0281 3Z" fill="#DADBDD"/>
<path d="M17.042 27.3342C17.1215 27.1468 17.201 26.9594 17.2862 26.7777C17.3203 26.7039 17.3657 26.6357 17.4112 26.5732C17.4339 26.5392 17.485 26.5278 17.5247 26.5051C17.5418 26.5448 17.5759 26.5789 17.5815 26.6244C17.6099 26.8345 17.6326 27.0446 17.6667 27.2547C17.6724 27.3002 17.6951 27.3456 17.7122 27.3853C17.7519 27.4535 17.7917 27.5216 17.8371 27.5898C17.9166 27.6863 17.9961 27.7829 18.0756 27.8851C18.0926 27.8794 18.104 27.8737 18.121 27.8624C18.1438 27.8056 18.1608 27.7545 18.1835 27.6977C18.3652 27.3058 18.6435 26.9878 18.9218 26.6641C19.2682 26.2552 19.2341 25.9202 18.865 25.534C18.5129 25.1648 18.0813 24.8979 17.6554 24.6253C17.1442 24.2959 16.6047 24.0006 16.122 23.6372C15.2645 22.9954 14.7704 22.1265 14.6511 21.0589C14.5262 19.9231 14.9067 18.9576 15.6563 18.1228C16.2526 17.4584 16.9966 17.004 17.803 16.6519C17.8314 16.6406 17.8655 16.6349 17.9109 16.6235C16.7297 17.6117 16.9739 18.9008 17.8371 19.7129C17.803 19.4971 17.7576 19.2813 17.7405 19.0655C17.661 18.0887 18.1154 17.2653 19.0354 16.8905C19.4386 16.7258 19.8759 16.6406 20.2961 16.51C20.6198 16.4077 20.9208 16.2658 21.1821 16.0443C21.7045 15.6013 21.8351 14.9709 21.5626 14.2781C21.4206 13.9203 21.2218 13.608 20.9776 13.307C20.9606 13.2843 20.9492 13.2615 20.9322 13.2388C20.9435 13.2275 20.9492 13.2161 20.9606 13.2048C21.0798 13.2956 21.2048 13.3751 21.3184 13.4773C21.5909 13.7272 21.784 14.0453 21.9601 14.369C22.0509 14.5337 22.1645 14.6927 22.3008 14.8119C22.5053 14.9937 22.7722 14.9028 22.8631 14.6416C22.9312 14.4485 22.9142 14.2611 22.8687 14.068C22.7665 13.6193 22.528 13.2388 22.2951 12.8583C21.8181 12.0746 21.7329 11.2512 22.1361 10.422C22.511 9.63831 23.1413 9.12151 23.9761 8.86596C24.6463 8.66151 25.3391 8.49682 25.9752 8.19015C26.2534 8.05385 26.526 7.90052 26.7078 7.64496C26.8157 7.49731 26.8838 7.33261 26.9747 7.1736C27.0485 7.83805 27.1451 8.51386 26.9804 9.18966C26.9122 9.46794 26.7986 9.71782 26.6112 9.92794C26.5885 9.95066 26.5772 9.97905 26.5715 10.0131C27.0939 9.78596 27.4688 9.41115 27.713 8.87164C27.7243 8.97386 27.73 9.05337 27.7414 9.13287C27.8379 9.8314 28.2468 10.3084 28.8261 10.6605C29.2293 10.9047 29.5927 11.183 29.8256 11.5976C30.2345 12.3245 30.3026 13.0798 30.0187 13.8635C30.013 13.8862 30.0016 13.909 29.9959 13.9317C29.9959 13.9374 29.9959 13.9487 30.0073 14.0055C30.1663 13.8181 30.3083 13.6534 30.4389 13.483C30.5752 13.307 30.7058 13.1252 30.8194 12.9378C30.9273 12.7504 31.0125 12.5403 31.1147 12.3245C31.1261 12.3813 31.1488 12.4381 31.1488 12.4892C31.1545 12.8129 31.0295 13.1025 30.8535 13.3638C30.5468 13.8124 30.808 14.0509 31.1942 14.1191C31.5179 14.1759 31.8246 14.1248 32.1199 13.9885C32.4947 13.8124 32.7276 13.9203 32.8298 14.3178C32.932 14.7211 32.9036 15.1243 32.8809 15.5332C32.8639 15.8171 32.8468 16.1011 32.8695 16.3793C32.8979 16.6803 33.0797 16.8223 33.3863 16.8337C33.5681 16.8393 33.7555 16.845 33.9372 16.8337C34.6414 16.7996 35.2036 17.3789 35.3343 17.9979C35.3967 18.2932 35.357 18.5715 35.232 18.8384C35.2036 18.8952 35.1923 18.9576 35.1696 19.0258C35.4365 18.9804 35.7375 18.35 35.7999 17.6515C35.851 17.1119 35.6523 16.6349 35.3456 16.1919C36.1748 16.544 36.612 17.2142 36.8449 18.0433C37.0777 18.8838 36.9357 19.6789 36.4985 20.4455C36.5382 20.4228 36.578 20.3944 36.6234 20.3717C36.9414 20.173 37.2595 19.9628 37.5888 19.7811C37.7762 19.6789 37.9977 19.6562 38.2476 19.6902C38.1227 19.7697 38.0091 19.8265 37.9125 19.9004C37.5548 20.1673 37.4469 20.5364 37.4809 20.9623C37.5207 21.4451 37.7308 21.871 37.9296 22.2969C38.1624 22.7853 38.4066 23.2624 38.6224 23.7564C38.7758 24.1085 38.878 24.4834 38.7985 24.8752C38.7644 25.0342 38.6906 25.1876 38.6338 25.3409C38.6167 25.3863 38.5884 25.4261 38.5486 25.4999C39.0711 25.5113 39.2585 25.1308 39.5027 24.7787C39.5538 24.8752 39.5992 24.9434 39.6276 25.0172C40.0252 26.1757 39.9059 27.2888 39.2812 28.3451C39.2585 28.3849 39.2414 28.4303 39.2244 28.47C39.1108 28.6007 39.0143 28.7483 38.8837 28.8619C38.4521 29.2424 38.0034 29.6059 37.5775 29.992C37.2935 30.2533 37.0266 30.5315 36.7654 30.8212C36.6518 30.9461 36.6234 31.1108 36.7313 31.2641C36.4644 31.3436 36.2031 31.4288 35.9362 31.5083C35.8624 31.3209 35.7147 31.2074 35.5444 31.1278C35.3115 31.0199 35.0673 31.054 34.8231 31.1108C34.5789 31.1676 34.3347 31.2357 34.0849 31.3039C34.1871 31.213 34.2893 31.1278 34.3972 31.0427C34.7152 30.7757 35.0503 30.5202 35.357 30.2306C35.6352 29.9693 35.8908 29.6854 36.1407 29.3957C36.4928 28.9812 36.7767 28.5268 36.9357 27.9987C37.0777 27.5216 37.0607 27.0673 36.8733 26.6073C36.7086 26.2155 36.578 25.8123 36.6177 25.375C36.6461 25.0399 36.7767 24.7559 37.1061 24.6253C37.2822 24.5515 37.4753 24.5231 37.6627 24.472C37.6627 24.4663 37.6456 24.4436 37.6172 24.4209C37.2651 24.1483 36.8903 23.9382 36.4473 23.8587C35.9817 23.7735 35.6012 23.9041 35.2945 24.2562C35.2207 24.3414 35.1525 24.4266 35.0844 24.5117C34.9708 23.5066 34.5051 22.6888 33.7441 22.03C33.5113 21.8256 33.2557 21.6325 32.9547 21.553C32.9945 21.7404 33.0286 21.9164 33.0626 22.0925C33.0342 22.0641 32.9888 22.0357 32.9831 22.0016C32.8184 21.2349 32.5004 20.5364 32.0858 19.8833C31.8303 19.4801 31.5406 19.1053 31.2624 18.7191C31.1885 18.6169 31.092 18.526 31.0068 18.4352C30.9955 18.4408 30.9898 18.4522 30.9784 18.4579C31.0977 18.7248 31.1545 19.0031 31.1374 19.2927C31.109 19.7981 30.9671 20.2809 30.7853 20.7522C30.5525 21.3428 30.2572 21.9051 29.9108 22.4389C29.6893 22.7796 29.4508 23.1147 29.2122 23.4498C29.1554 23.535 29.0646 23.5974 28.9964 23.6656C28.9851 23.6542 28.9737 23.6485 28.9624 23.6372C29.1214 23.3532 29.2917 23.0749 29.428 22.7796C29.8426 21.9164 30.0414 21.0191 29.8994 20.0537C29.7972 19.3608 29.5303 18.7589 29.093 18.2194C28.6103 17.6231 28.4512 16.9416 28.633 16.1919C28.7409 15.7376 28.9396 15.323 29.2179 14.9482C29.2633 14.8858 29.3031 14.8119 29.3485 14.7438C29.1895 14.7722 29.0419 14.8176 28.9169 14.8914C28.5535 15.1129 28.2809 15.4366 28.1105 15.8114C27.8777 16.3112 27.7016 16.8393 27.5085 17.3618C27.3836 17.7026 27.2757 18.049 27.1507 18.3897C27.1337 18.4352 27.0883 18.4636 27.0542 18.5033C26.9747 18.4408 26.8952 18.3784 26.81 18.3216C26.526 18.1399 26.2307 17.9752 25.9638 17.7707C25.8218 17.6685 25.7253 17.5038 25.606 17.3675C25.6174 17.0381 25.6288 16.7144 25.6401 16.385C25.6458 16.2771 25.6401 16.1635 25.6401 16.0556C25.6515 15.9023 25.6628 15.7546 25.6685 15.6013C25.6855 15.5559 25.7139 15.5161 25.7196 15.4707C25.7367 15.3287 25.7367 15.1867 25.7594 15.0504C25.8218 14.6983 25.9127 14.3519 25.873 13.9828C25.7934 13.2899 25.4981 12.7277 24.9359 12.3075C24.7883 12.1996 24.6292 12.1087 24.4475 11.9951C24.5497 12.1996 24.6406 12.3586 24.7144 12.5233C24.8791 12.9094 24.9132 13.307 24.7542 13.7045C24.5781 14.1361 24.2601 14.4541 23.8682 14.704C23.7433 14.7835 23.6013 14.846 23.4821 14.9312C23.2776 15.0788 23.0561 15.2151 22.971 15.4764C22.9198 15.624 22.829 15.766 22.8063 15.9193C22.7438 16.3793 22.8914 16.811 23.0448 17.2426C23.164 17.5719 23.2947 17.9013 23.4139 18.2307C23.5048 18.4749 23.3401 18.7305 23.0732 18.7418C22.7438 18.7532 22.4371 18.7248 22.1305 18.5374C21.784 18.3216 21.5966 17.8275 21.6875 17.4924C21.7272 17.3448 21.767 17.2028 21.8238 17.0097C21.6137 17.1801 21.4092 17.305 21.2502 17.4754C20.9322 17.8218 20.7107 18.2307 20.6596 18.7134C20.6028 19.2132 20.6596 19.7016 20.8413 20.1673C20.8243 20.2354 20.8072 20.3036 20.7902 20.3717C20.7277 20.6159 20.6709 20.8601 20.6141 21.1043C20.6141 21.1327 20.6141 21.1611 20.6141 21.1895C20.6141 21.2065 20.6141 21.2293 20.6141 21.2463C20.3245 21.1895 20.0917 21.0532 19.9327 20.792C19.7396 20.4796 19.7339 20.1502 19.802 19.8095C19.8134 19.747 19.8304 19.6789 19.8588 19.571C19.7793 19.6221 19.7396 19.6448 19.7055 19.6732C19.4499 19.8663 19.2625 20.1162 19.1035 20.3888C18.8536 20.809 18.7457 21.269 18.7514 21.7517C18.7571 22.189 18.8707 22.6093 19.1035 22.9954C19.4272 23.5293 19.8816 23.8871 20.4381 24.1426C20.6993 24.2619 20.9549 24.3925 21.1877 24.5572C21.4376 24.7332 21.6648 24.9547 21.8976 25.1592C21.8692 25.2216 21.8465 25.2898 21.8124 25.3522C21.6477 25.71 21.6988 26.0224 21.9885 26.2893C22.085 26.3802 22.21 26.4426 22.3235 26.5165C22.3065 26.9197 22.1759 27.2718 21.8749 27.55C21.6534 27.7545 21.3751 27.7091 21.2729 27.4592C21.165 27.1979 21.0571 26.9424 20.9322 26.6868C20.7618 26.3461 20.5176 26.0735 20.1996 25.8634C20.1144 25.8066 20.0235 25.7668 19.9383 25.7214C19.927 25.7952 19.9383 25.8406 19.9497 25.8861C19.9838 25.9883 20.0292 26.0848 20.0519 26.1927C20.1201 26.5448 20.2109 26.8913 20.1371 27.2491C20.069 27.5955 20.0292 27.9476 19.9156 28.277C19.6885 28.9187 19.4215 29.5491 19.1717 30.1851C19.1206 30.1794 19.0694 30.1738 19.0183 30.1624C18.5867 30.0999 18.1551 30.0431 17.7235 29.9807C17.6667 29.9693 17.627 29.9636 17.6554 30.0488C17.6951 30.1624 17.7235 30.276 17.7462 30.3896C17.7633 30.4691 17.803 30.5031 17.8882 30.5145C18.246 30.5599 18.6094 30.6167 18.9672 30.6678C18.9388 30.7757 18.9104 30.878 18.882 30.9859C18.7855 30.9915 18.6946 30.9972 18.5981 31.0029C18.581 31.0086 18.5583 31.0086 18.5413 31.0143C18.4788 31.0256 18.4107 31.037 18.3482 31.054C18.3482 31.0711 18.3482 31.0824 18.3539 31.0994C18.5129 31.1108 18.6719 31.1165 18.8309 31.1278C18.8139 31.4118 18.7969 31.6958 18.7741 31.9854C18.7685 32.0251 18.7401 32.0592 18.7173 32.0933C18.6719 32.0876 18.6265 32.0819 18.5754 32.0762C18.5583 32.0706 18.5356 32.0649 18.5186 32.0592C18.4164 32.0479 18.3085 32.0308 18.2062 32.0195C18.0359 31.8264 17.8598 31.639 17.6951 31.4459C17.5531 31.2812 17.3714 31.213 17.167 31.179C17.1272 31.1733 17.0875 31.1619 17.0477 31.1506C16.9057 30.8553 16.6956 29.8785 16.6786 29.7024C16.724 29.2424 16.7524 28.7767 16.8262 28.3167C16.8433 27.993 16.9568 27.6636 17.042 27.3342ZM29.9789 14.0225C29.9732 14.0225 29.9732 14.0282 29.9732 14.0282C29.9732 14.0339 29.9789 14.0339 29.9789 14.0396C29.9846 14.0396 29.9846 14.0339 29.9846 14.0339C29.9846 14.0282 29.9789 14.0225 29.9789 14.0225Z" fill="#F4B546"/>
<path d="M39.2925 16.851C39.3493 16.7715 39.3891 16.7147 39.4175 16.6636C39.6163 16.3172 39.5708 15.9594 39.2982 15.6641C39.2017 15.5562 39.0938 15.4483 39.02 15.3291C38.9177 15.153 38.9234 14.9713 39.0483 14.8009C39.1619 14.6476 39.3948 14.4999 39.6049 14.4658C39.338 14.7214 39.4516 14.9883 39.5651 15.2495C39.6617 15.471 39.798 15.6868 39.8661 15.9197C39.9968 16.3342 39.7639 16.7091 39.2925 16.851Z" fill="#E39E43"/>
<path d="M32.3471 6.43582C32.2165 6.67434 32.1313 6.9299 32.2335 7.19681C32.3017 7.37287 32.4039 7.54324 32.5231 7.69089C32.7844 8.0146 32.932 8.3667 32.7844 8.78127C32.7333 8.92325 32.6424 9.05386 32.5686 9.18448C32.5515 9.1788 32.5402 9.17312 32.5231 9.16745C32.5231 9.12201 32.5175 9.0709 32.5231 9.02547C32.5743 8.55979 32.4664 8.13954 32.1824 7.75904C31.978 7.49213 31.8757 7.19114 32.0063 6.85607C32.0802 6.6857 32.171 6.52101 32.3471 6.43582Z" fill="#E39E43"/>
<path d="M18.0359 4.39136C17.9961 4.53901 17.945 4.66395 17.9223 4.79457C17.8484 5.20914 17.9677 5.56692 18.263 5.87359C18.3766 5.99285 18.4788 6.13483 18.564 6.28248C18.6492 6.41878 18.6606 6.57779 18.6038 6.73681C18.5867 6.78792 18.547 6.82767 18.5015 6.90718C18.4618 6.78792 18.4334 6.70841 18.405 6.62323C18.3085 6.35063 18.1835 6.10643 17.9166 5.9531C17.7519 5.85655 17.6838 5.68618 17.6326 5.51013C17.5247 5.10692 17.6894 4.6242 18.0359 4.39136Z" fill="#E39E43"/>
<path d="M34.0054 5.55569C34.17 5.20927 34.0508 4.94803 33.7782 4.71519C33.6646 4.61865 33.5737 4.47667 33.5113 4.34038C33.3239 3.89741 33.676 3.48852 34.1757 3.55667C33.7895 3.75543 33.7441 3.92013 33.9826 4.30062C34.0508 4.4142 34.1246 4.52211 34.1757 4.64137C34.3063 4.931 34.2325 5.33421 34.0054 5.55569Z" fill="#E39E43"/>
<path d="M16.0766 8.4971C16.3833 8.61068 16.6842 8.72994 16.8149 9.06501C16.9114 9.30353 17.042 9.40007 17.3771 9.51933C17.2976 9.53637 17.2181 9.5534 17.1329 9.56476C16.866 9.59884 16.6558 9.48526 16.5479 9.24106C16.4287 8.97414 16.2981 8.70723 16.0766 8.4971Z" fill="#E39E43"/>
<path d="M18.1779 27.6979C18.1551 27.7547 18.1381 27.8058 18.1154 27.8626C18.0984 27.8683 18.087 27.874 18.07 27.8854C17.9905 27.7888 17.9109 27.6923 17.8314 27.59C17.8598 27.556 17.8939 27.5276 17.9223 27.4935C18.0075 27.5673 18.0927 27.6355 18.1779 27.6979Z" fill="#9A9A9A"/>
<path d="M17.9223 27.4991C17.8939 27.5332 17.8598 27.5616 17.8314 27.5957C17.7916 27.5275 17.7519 27.4594 17.7065 27.3912C17.7803 27.4253 17.8484 27.4594 17.9223 27.4991Z" fill="#CCCCCC"/>
<path d="M32.3471 6.43594C32.3471 6.42469 32.3527 6.41344 32.3527 6.40219C32.3527 6.41344 32.3471 6.42469 32.3471 6.43594Z" fill="#E39E43"/>
<path d="M20.5914 21.1163C20.6482 20.8721 20.7107 20.6279 20.7675 20.3837C20.7845 20.3155 20.8016 20.2474 20.8186 20.1792C20.8356 20.1679 20.8584 20.1565 20.8697 20.1395C21.0798 19.8214 21.2729 19.492 21.4944 19.1911C21.6591 18.9753 21.8636 18.7878 22.051 18.5891C21.7954 19.4807 22.3065 20.0997 22.7268 20.2246C22.7381 20.1963 22.7495 20.1622 22.7608 20.1338C22.7665 20.1054 22.7665 20.077 22.7665 20.0486C22.7665 19.4864 22.971 19.015 23.431 18.6856C23.6468 18.5323 23.9023 18.4244 24.1409 18.2994C24.3964 18.1688 24.5611 17.9928 24.4248 17.6804C24.4021 17.6293 24.368 17.5839 24.3396 17.5328C24.2317 17.3227 24.067 17.1068 24.2147 16.8626C24.2942 16.732 24.4134 16.6071 24.5384 16.5162C24.9473 16.2152 25.2426 15.8461 25.3618 15.3463C25.4016 15.1816 25.4016 15.0113 25.4243 14.8239C25.5606 15.0794 25.6004 15.3463 25.6344 15.6076C25.6231 15.7609 25.6117 15.9086 25.606 16.0619C25.5493 16.1868 25.5038 16.3118 25.4414 16.431C25.3448 16.6184 25.2767 16.8059 25.3562 17.0103C25.4073 17.1409 25.4981 17.2488 25.572 17.3681C25.6912 17.5044 25.7878 17.6691 25.9298 17.7713C26.2023 17.9701 26.4977 18.1348 26.7759 18.3222C26.8611 18.379 26.9406 18.4414 27.0201 18.5039C27.5256 19.0832 27.6732 19.7703 27.6051 20.5086C27.5369 21.2526 27.1905 21.8659 26.6169 22.3543C27.5369 22.2123 27.9572 21.5763 28.19 20.7528C28.2127 20.8039 28.2184 20.8437 28.2184 20.8834C28.2184 21.3377 28.2695 21.7864 28.4115 22.218C28.4853 22.4338 28.5762 22.6382 28.65 22.854C28.8261 23.3652 28.775 23.8536 28.4342 24.2795C28.2014 24.5748 27.9061 24.819 27.571 25.0007C27.2927 25.1484 27.0088 25.2904 26.7362 25.4551C26.5942 25.5402 26.4125 25.6425 26.4465 25.8526C26.4806 26.0684 26.6851 26.0684 26.8384 26.0798C27.5312 26.1309 28.0878 25.8356 28.5364 25.3415C28.7295 25.1257 28.9283 24.9553 29.2179 24.9042C29.3599 24.8815 29.5019 24.8872 29.6382 24.9894C29.5814 25.0121 29.5473 25.0291 29.5132 25.0405C28.8658 25.2733 28.5194 25.8242 28.491 26.4375C28.474 26.7783 28.4569 27.1247 28.4342 27.4654C28.3945 28.1242 28.2582 28.7603 28.0083 29.3736C27.855 29.7427 27.6505 30.0835 27.3552 30.3561C27.0258 30.6571 26.6396 30.8558 26.1853 30.8956C26.0717 30.9069 25.9525 30.9353 25.8389 30.9581C25.8389 30.9751 25.8446 30.9921 25.8446 31.0092C25.9695 30.9978 26.1001 30.9921 26.2251 30.9751C26.5601 30.9353 26.9009 30.9069 27.2303 30.8445C27.9288 30.7139 28.6216 30.5321 29.2634 30.2084C29.6439 30.0153 29.996 29.7825 30.2629 29.4418C30.5411 29.0953 30.5866 28.6808 30.5866 28.2662C30.5866 27.704 30.5525 27.1417 30.5355 26.5852C30.5241 26.1252 30.5014 25.6709 30.5127 25.2109C30.5184 25.0462 30.5866 24.8815 30.6547 24.7281C30.7286 24.5691 30.8876 24.4953 31.0182 24.5294C30.6774 24.9326 30.7342 25.3642 30.9614 25.7788C31.1318 26.0968 31.4328 26.216 31.7905 26.1706C32.0915 26.1138 32.3187 25.9435 32.4323 25.6709C32.5118 25.4778 32.5345 25.2506 32.5799 25.0405C32.5742 24.5975 32.4493 24.1773 32.3073 23.7627C32.1597 23.3368 32.0234 22.9052 31.9098 22.4679C31.8416 22.1896 31.8303 21.8943 31.7905 21.6047C31.7224 21.1163 31.7905 20.6392 31.9098 20.1622C31.9155 20.1338 31.9439 20.1054 31.9552 20.0883C32.0518 20.5767 32.1313 21.0651 32.2562 21.5422C32.3187 21.7807 32.4379 22.0079 32.5742 22.2123C32.6254 22.2918 32.7844 22.3202 32.898 22.3202C32.9888 22.3202 33.0626 22.2294 33.0456 22.1158C33.0115 21.9397 32.9775 21.7637 32.9377 21.5763C33.2387 21.6558 33.4886 21.8489 33.7271 22.0533C34.4881 22.7064 34.9538 23.5242 35.0673 24.535C35.0787 24.6316 35.0957 24.7338 35.0901 24.8304C35.0787 25.0973 35.0617 25.3642 35.039 25.6311C35.0276 25.7788 35.0957 25.8412 35.232 25.7901C35.3456 25.7504 35.4308 25.6822 35.4819 25.563C35.5728 25.3585 35.5614 25.1597 35.516 24.9553C35.5046 24.9042 35.5046 24.8588 35.499 24.8076C35.516 24.802 35.5387 24.7963 35.5557 24.7906C35.6523 24.961 35.7545 25.1257 35.8397 25.3017C36.1237 25.8639 36.2145 26.4716 36.1293 27.0849C36.0385 27.7721 35.6864 28.3287 35.1185 28.7432C34.5789 29.1351 33.9713 29.3906 33.3523 29.6178C32.7673 29.8393 32.1654 30.0267 31.5747 30.2311C31.2908 30.3334 31.234 30.5264 31.4157 30.765C31.4271 30.782 31.4441 30.7934 31.4555 30.8047C31.5407 30.9126 31.6258 31.0148 31.7053 31.1227C31.535 31.1568 31.3646 31.1909 31.1942 31.225C30.7286 31.3158 30.2629 31.4124 29.7801 31.384C29.6609 31.3783 29.5359 31.401 29.4167 31.4067C29.3713 31.4067 29.3201 31.401 29.2747 31.401C29.2974 31.3556 29.3201 31.3386 29.3485 31.3272C29.4678 31.2931 29.5814 31.2534 29.7006 31.225C29.7972 31.2023 29.7801 31.1341 29.7631 31.066C29.7461 30.9978 29.7063 30.9865 29.6382 31.0035C29.1327 31.1341 28.6273 31.259 28.1162 31.384C27.7527 31.4748 27.3836 31.5544 27.0201 31.6395C26.6624 31.6679 26.3102 31.702 25.9525 31.7247C25.7651 31.7361 25.572 31.7645 25.3902 31.7304C24.9643 31.6566 24.5441 31.56 24.1238 31.4692C24.067 31.4521 24.0102 31.4294 23.9591 31.4124C23.7206 31.2988 23.4821 31.1852 23.2436 31.0773C23.2776 30.8672 23.4026 30.7025 23.5502 30.5662C23.9478 30.1914 24.3737 29.862 24.9132 29.7143C25.0154 29.6859 25.1176 29.6405 25.2199 29.5951C25.5209 29.4645 25.5379 29.4134 25.3732 29.118C25.3335 29.1067 25.2823 29.0783 25.2483 29.0896C25.112 29.1351 24.9814 29.1862 24.8564 29.243C24.6179 29.3509 24.3567 29.4247 24.1579 29.578C23.8626 29.8052 23.607 30.0892 23.3401 30.3561C23.3004 30.3958 23.2776 30.4583 23.2492 30.5151C23.2379 30.5321 23.2265 30.5492 23.2152 30.5662C23.1811 30.5889 23.1413 30.606 23.1073 30.6287C22.9369 30.7309 22.8631 30.6911 22.8176 30.4924C22.8403 30.4697 22.8631 30.4526 22.8801 30.4299C23.0675 30.1346 23.2663 29.8506 23.5446 29.6348C23.7433 29.4815 23.9421 29.3168 24.1238 29.1408C24.3453 28.9306 24.4305 28.6467 24.4248 28.3571C24.4078 27.8516 24.1409 27.4598 23.7547 27.1474C23.3231 26.801 22.8006 26.6931 22.2781 26.5738C22.1645 26.5 22.0396 26.4319 21.9431 26.3467C21.6534 26.0798 21.6023 25.7731 21.767 25.4096C21.7954 25.3472 21.8238 25.279 21.8522 25.2165C21.9885 25.0689 22.1134 24.9042 22.2668 24.7736C22.4882 24.5918 22.4996 24.6032 22.3236 24.3704C22.3065 24.3476 22.2838 24.3306 22.2668 24.3079C21.9601 23.9728 21.6421 23.6548 21.3524 23.3084C20.8697 22.7291 20.563 22.0703 20.5687 21.298C20.5687 21.281 20.5687 21.2582 20.5687 21.2412C20.5914 21.173 20.5914 21.1447 20.5914 21.1163Z" fill="#C46326"/>
<path d="M31.8076 26.1646C31.4498 26.2044 31.1488 26.0908 30.9784 25.7728C30.7513 25.3582 30.6945 24.9266 31.0352 24.5234C30.9046 24.4893 30.7456 24.5631 30.6718 24.7221C30.6036 24.8755 30.5355 25.0402 30.5298 25.2049C30.5184 25.6649 30.5411 26.1192 30.5525 26.5792C30.5695 27.1414 30.6036 27.7037 30.6036 28.2602C30.6036 28.6748 30.5582 29.0893 30.2799 29.4358C30.0073 29.7765 29.6609 30.0093 29.2804 30.2024C28.6387 30.5261 27.9515 30.7079 27.2473 30.8385C26.9179 30.901 26.5772 30.9294 26.2421 30.9691C26.1172 30.9861 25.9865 30.9918 25.8616 31.0032C25.8616 30.9861 25.8559 30.9691 25.8559 30.9521C25.9695 30.9294 26.0831 30.901 26.2023 30.8896C26.6567 30.8442 27.0428 30.6511 27.3722 30.3501C27.6675 30.0775 27.872 29.7368 28.0253 29.3676C28.2809 28.76 28.4172 28.1182 28.4513 27.4595C28.4683 27.1187 28.491 26.7723 28.508 26.4315C28.5364 25.8182 28.8829 25.273 29.5303 25.0345C29.5643 25.0231 29.5984 25.0061 29.6552 24.9834C29.5132 24.8812 29.3769 24.8755 29.235 24.8982C28.9453 24.9436 28.7466 25.1197 28.5535 25.3355C28.0992 25.8352 27.5483 26.1306 26.8554 26.0738C26.7021 26.0624 26.492 26.0624 26.4636 25.8466C26.4295 25.6365 26.6112 25.5399 26.7532 25.4491C27.0258 25.2844 27.3098 25.1481 27.588 24.9947C27.9231 24.813 28.2184 24.5688 28.4513 24.2735C28.792 23.8476 28.8431 23.3592 28.6671 22.8481C28.5932 22.6323 28.5024 22.4278 28.4285 22.212C28.2866 21.7804 28.2354 21.3318 28.2354 20.8774C28.2354 20.8377 28.2298 20.7979 28.2071 20.7468C27.9742 21.5703 27.554 22.2063 26.634 22.3483C27.2075 21.8656 27.554 21.2522 27.6221 20.5026C27.6903 19.7643 27.5426 19.0772 27.0372 18.4979C27.0712 18.4638 27.1167 18.4298 27.1337 18.3843C27.2587 18.0436 27.3666 17.6972 27.4915 17.3564C27.6846 16.8396 27.8606 16.3115 28.0935 15.806C28.2695 15.4312 28.5364 15.1018 28.8999 14.886C29.0248 14.8122 29.1725 14.7668 29.3315 14.7384C29.2861 14.8065 29.2463 14.8803 29.2009 14.9428C28.9226 15.3176 28.7238 15.7265 28.6159 16.1865C28.4399 16.9362 28.5989 17.6177 29.0759 18.214C29.5132 18.7535 29.7802 19.3611 29.8824 20.0483C30.0244 21.0137 29.8256 21.911 29.411 22.7742C29.269 23.0695 29.0987 23.3478 28.9453 23.6318C28.9567 23.6431 28.968 23.6488 28.9794 23.6602C29.0532 23.5863 29.1384 23.5239 29.1952 23.4444C29.4337 23.1093 29.6722 22.7799 29.8937 22.4335C30.2402 21.8997 30.5355 21.3374 30.7683 20.7468C30.95 20.2811 31.0977 19.7984 31.1204 19.2873C31.1374 18.9977 31.0807 18.7194 30.9614 18.4525C30.9728 18.4468 30.9784 18.4354 30.9898 18.4298C31.075 18.5263 31.1715 18.6115 31.2453 18.7137C31.5236 19.0999 31.8133 19.4747 32.0688 19.8779C32.4834 20.531 32.8071 21.2352 32.9661 21.9962C32.9718 22.0303 33.0172 22.0587 33.0456 22.0871C33.0626 22.2006 32.9888 22.2915 32.898 22.2915C32.7844 22.2915 32.6254 22.2574 32.5742 22.1836C32.4379 21.9792 32.3187 21.752 32.2562 21.5135C32.1313 21.0364 32.0518 20.548 31.9552 20.0596C31.9439 20.0767 31.9212 20.1051 31.9098 20.1335C31.7905 20.6048 31.7224 21.0819 31.7905 21.576C31.8303 21.8656 31.8416 22.1609 31.9098 22.4392C32.0177 22.8765 32.1597 23.3081 32.3073 23.734C32.4493 24.1486 32.5742 24.5688 32.5799 25.0118C32.5515 25.0231 32.5175 25.0288 32.5004 25.0515C32.33 25.273 32.1597 25.4945 32.0007 25.7217C31.9325 25.8807 31.8814 26.0283 31.8076 26.1646Z" fill="#E39736"/>
<path d="M22.3008 26.5336C22.8176 26.6529 23.3458 26.7665 23.7774 27.1072C24.1636 27.4196 24.4305 27.8114 24.4475 28.3169C24.4532 28.6065 24.368 28.8904 24.1465 29.1006C23.9648 29.2766 23.766 29.4413 23.5673 29.5946C23.289 29.8161 23.0845 30.0944 22.9028 30.3897C22.8858 30.4124 22.8631 30.4351 22.8403 30.4522C22.8347 30.4522 22.829 30.4465 22.8176 30.4465C22.812 30.4181 22.812 30.3897 22.8063 30.3613C22.8006 30.3159 22.7949 30.2704 22.7892 30.225C22.7836 30.1966 22.7836 30.1682 22.7779 30.1341C22.7779 29.7934 22.7779 29.4527 22.7779 29.1119C22.7779 29.0949 22.7779 29.0722 22.7779 29.0551C22.7836 28.9699 22.7892 28.8791 22.7949 28.7769C22.7438 28.7712 22.687 28.7712 22.6359 28.7655C22.5621 28.7257 22.5337 28.7598 22.5223 28.828C22.5053 28.9245 22.4882 29.0211 22.4769 29.1176C22.4258 29.4867 22.369 29.8502 22.4655 30.2193C22.5053 30.3727 22.5394 30.526 22.5848 30.6964C22.3633 30.6793 22.1589 30.6566 21.9544 30.6396C21.926 30.6396 21.9033 30.6339 21.8749 30.6339C21.8238 30.6282 21.7784 30.6169 21.7273 30.6112C21.7102 30.6112 21.6932 30.6055 21.6761 30.6055C21.5058 30.5714 21.3297 30.5374 21.1593 30.5033C21.0912 30.4919 21.0287 30.4806 20.9606 30.4692C20.8924 30.4579 20.8243 30.4522 20.7618 30.4408C20.4495 30.3954 20.1428 30.3443 19.8304 30.3045C19.6771 30.2818 19.5238 30.2818 19.3704 30.2704C19.3648 30.2704 19.3534 30.2704 19.3477 30.2648C19.3137 30.2534 19.2853 30.2364 19.2512 30.225C19.2114 30.2137 19.1774 30.2023 19.1376 30.1909C19.3875 29.5549 19.6544 28.9302 19.8816 28.2828C19.9951 27.9534 20.0349 27.5956 20.103 27.2549C20.1769 26.8914 20.0803 26.545 20.0179 26.1986C19.9951 26.0963 19.9497 25.9941 19.9156 25.8919C19.8986 25.8465 19.8872 25.7954 19.9043 25.7272C19.9895 25.7726 20.086 25.8124 20.1655 25.8692C20.4835 26.0793 20.7334 26.3519 20.8981 26.6926C21.023 26.9425 21.131 27.2038 21.2389 27.465C21.3411 27.7149 21.6194 27.7603 21.8408 27.5559C22.1532 27.2889 22.2781 26.9368 22.3008 26.5336Z" fill="#E39736"/>
<path d="M31.7224 31.1111C31.6372 31.0032 31.5577 30.901 31.4725 30.7931C31.4612 30.776 31.4441 30.7647 31.4328 30.7533C31.251 30.5148 31.3021 30.316 31.5918 30.2195C32.1824 30.015 32.7787 29.8219 33.3693 29.6061C33.9883 29.3733 34.596 29.1234 35.1355 28.7316C35.6977 28.317 36.0498 27.7604 36.1464 27.0733C36.2316 26.4599 36.1407 25.8523 35.8567 25.2901C35.7716 25.114 35.6637 24.9493 35.5728 24.7789C35.5558 24.7846 35.533 24.7903 35.516 24.796C35.5217 24.8471 35.5217 24.8982 35.533 24.9436C35.5785 25.1481 35.5898 25.3525 35.499 25.5513C35.4479 25.6705 35.3627 25.7387 35.2491 25.7785C35.1128 25.8296 35.0446 25.7671 35.056 25.6194C35.0787 25.3525 35.0958 25.0856 35.1071 24.8187C35.1128 24.7221 35.0901 24.6199 35.0844 24.5234C35.1525 24.4382 35.2264 24.353 35.2945 24.2678C35.6012 23.91 35.9817 23.7851 36.4474 23.8703C36.8903 23.9498 37.2652 24.1656 37.6173 24.4325C37.64 24.4496 37.657 24.4779 37.6627 24.4836C37.4753 24.5347 37.2822 24.5631 37.1061 24.637C36.7768 24.7676 36.6461 25.0515 36.6177 25.3866C36.578 25.8239 36.7086 26.2271 36.8733 26.619C37.0664 27.079 37.0834 27.5333 36.9358 28.0103C36.7768 28.5385 36.4928 28.9928 36.1407 29.4074C35.8965 29.697 35.6353 29.981 35.357 30.2422C35.0503 30.5261 34.7209 30.7817 34.3972 31.0543C34.295 31.1395 34.1928 31.2303 34.0849 31.3155C33.8861 31.4007 33.6817 31.4859 33.4829 31.5711C33.2841 31.4745 33.0683 31.4632 32.8525 31.4973C32.6935 31.52 32.5402 31.5484 32.3868 31.5768C32.3698 31.5597 32.3584 31.5427 32.3414 31.5313C32.3301 31.4745 32.313 31.4234 32.3017 31.3666C32.3017 31.3269 32.3017 31.2815 32.296 31.2417C32.2789 31.0543 32.2449 31.0316 32.0631 31.0656C31.9439 31.0827 31.836 31.094 31.7224 31.1111Z" fill="#E39736"/>
<path d="M25.6515 15.6071C25.6174 15.3402 25.5777 15.079 25.4414 14.8234C25.4186 15.0108 25.4186 15.1812 25.3789 15.3459C25.2596 15.84 24.9643 16.2148 24.5554 16.5158C24.4305 16.6066 24.3112 16.7259 24.2317 16.8622C24.0841 17.1121 24.2544 17.3222 24.3567 17.5323C24.3794 17.5834 24.4191 17.6289 24.4418 17.68C24.5781 17.9923 24.4135 18.1684 24.1579 18.299C23.9194 18.4239 23.6638 18.5318 23.448 18.6852C22.988 19.0145 22.7836 19.4859 22.7836 20.0481C22.7836 20.0765 22.7836 20.1049 22.7779 20.1333C22.7722 20.1674 22.7552 20.1958 22.7438 20.2242C22.3236 20.0992 21.8124 19.4802 22.068 18.5886C21.8806 18.7874 21.6761 18.9748 21.5115 19.1906C21.2843 19.4973 21.0912 19.8266 20.8868 20.139C20.8754 20.156 20.8527 20.1674 20.8356 20.1787C20.6539 19.7074 20.5971 19.2247 20.6539 18.7249C20.705 18.2422 20.9208 17.8333 21.2445 17.4869C21.4036 17.3165 21.6023 17.1916 21.8181 17.0212C21.767 17.2143 21.7216 17.3563 21.6818 17.5039C21.591 17.8447 21.7784 18.3387 22.1248 18.5489C22.4258 18.7363 22.7381 18.7647 23.0675 18.7533C23.3344 18.7419 23.4991 18.4921 23.4083 18.2422C23.289 17.9128 23.1584 17.5834 23.0391 17.254C22.8858 16.8281 22.7325 16.3965 22.8006 15.9308C22.8233 15.7775 22.9142 15.6412 22.9653 15.4879C23.0505 15.2266 23.272 15.0903 23.4764 14.9427C23.5957 14.8518 23.7376 14.795 23.8626 14.7155C24.2544 14.4656 24.5668 14.1476 24.7485 13.716C24.9075 13.3185 24.8735 12.9209 24.7088 12.5347C24.6349 12.3701 24.5441 12.211 24.4418 12.0066C24.6236 12.1202 24.7826 12.211 24.9302 12.3189C25.4925 12.7335 25.7878 13.2957 25.8673 13.9943C25.9127 14.3634 25.8162 14.7098 25.7537 15.0619C25.731 15.1982 25.731 15.3402 25.714 15.4822C25.6969 15.5219 25.6685 15.5674 25.6515 15.6071Z" fill="#E39736"/>
<path d="M20.5914 21.2579C20.5858 22.0302 20.8924 22.689 21.3752 23.2682C21.6648 23.6147 21.9828 23.9384 22.2895 24.2677C22.3065 24.2905 22.3292 24.3075 22.3463 24.3302C22.5166 24.5574 22.511 24.546 22.2895 24.7334C22.1361 24.8641 22.0112 25.0287 21.8749 25.1764C21.6421 24.972 21.4206 24.7505 21.165 24.5744C20.9322 24.4097 20.6766 24.2791 20.4154 24.1598C19.8588 23.9043 19.4045 23.5465 19.0808 23.0127C18.848 22.6265 18.7344 22.2063 18.7287 21.769C18.723 21.2862 18.8309 20.8262 19.0808 20.406C19.2455 20.1334 19.4272 19.8835 19.6828 19.6904C19.7169 19.662 19.7566 19.6393 19.8361 19.5882C19.8134 19.6961 19.7964 19.7586 19.7793 19.8267C19.7055 20.1675 19.7169 20.4969 19.91 20.8092C20.069 21.0648 20.2961 21.2011 20.5914 21.2579Z" fill="#E39736"/>
<path d="M25.5833 17.3737C25.5095 17.2544 25.4186 17.1408 25.3675 17.0159C25.288 16.8171 25.3562 16.624 25.4527 16.4366C25.5152 16.3174 25.5606 16.1924 25.6174 16.0675C25.6174 16.1754 25.6174 16.289 25.6174 16.3969C25.606 16.7149 25.5947 17.0443 25.5833 17.3737Z" fill="#E09636"/>
<path d="M25.3902 29.0954C25.3505 29.1578 25.3164 29.2373 25.2596 29.2714C25.0892 29.3623 24.9018 29.4304 24.7258 29.5156C24.5157 29.6122 24.2999 29.6917 24.1068 29.8109C23.8115 29.9926 23.5275 30.1914 23.3117 30.4754C23.3003 30.4867 23.2776 30.4867 23.2606 30.4924C23.289 30.4413 23.306 30.3788 23.3515 30.3334C23.6184 30.0665 23.8739 29.7825 24.1692 29.5554C24.368 29.402 24.6292 29.3282 24.8678 29.2203C24.9984 29.1635 25.129 29.1124 25.2596 29.067C25.2994 29.0556 25.3448 29.084 25.3902 29.0954Z" fill="#7F543C"/>
<path d="M31.8075 26.165C31.8757 26.023 31.9325 25.8754 32.0177 25.7504C32.1767 25.5176 32.3471 25.3018 32.5174 25.0803C32.5345 25.0576 32.5685 25.0519 32.5969 25.0406C32.5515 25.2507 32.5288 25.4722 32.4493 25.6709C32.3357 25.9378 32.1085 26.1139 31.8075 26.165Z" fill="#F4B546"/>
<path d="M22.8062 30.4465L22.1815 33.9675L30.3026 35.7848L31.8359 31.128L29.11 30.7305L26.4295 31.5766L25.0211 30.7305L26.4976 29.3675L25.1914 28.7996L23.0107 30.1512L22.8062 30.4465Z" fill="#C46326"/>
<path d="M19.0013 30.163L22.8062 28.2321V29.7768V30.5037L22.4655 31.1284L19.0013 30.163Z" fill="#E39736"/>
</g>
</svg>
