<svg width="50" height="50" viewBox="0 0 50 50" fill="none" xmlns="http://www.w3.org/2000/svg">
<path d="M19.4196 34.2151C16.3774 35.9604 13.3353 37.742 10.275 39.4508C8.43519 40.4871 5.33844 39.5963 4.15439 37.7601C2.84282 35.7058 2.87925 33.6334 4.31833 31.6882C4.64622 31.2519 5.15628 30.961 5.57525 30.5974C6.48606 30.1066 7.39687 29.6157 8.28946 29.1249C10.4936 27.9068 12.716 26.6888 14.9019 25.4526C16.7782 24.38 18.6545 23.2892 20.5307 22.1803C21.0954 21.8531 21.6055 21.4349 22.152 21.0713C22.5527 20.835 22.9717 20.5987 23.3725 20.3623C23.6093 20.2896 23.8461 20.2351 24.0647 20.126C26.7971 18.5989 29.5113 17.0537 32.2438 15.5084C32.098 16.6174 32.0798 17.69 32.5534 18.7444C33.5007 20.9259 34.6301 22.9075 36.9253 23.9437C36.6156 24.1982 36.3424 24.4891 36.0145 24.6891C35.049 25.3072 34.0654 25.8889 33.0817 26.4888C31.7337 27.2342 30.3675 27.9614 29.0195 28.7249C26.3599 30.2338 23.7004 31.7609 21.0226 33.2698C20.4761 33.5607 19.9478 33.8879 19.4196 34.2151ZM22.9717 25.2708C22.9899 25.2708 23.0081 25.2526 23.0264 25.2526C23.0264 25.2526 23.0264 25.2345 23.0446 25.2163C23.0081 25.2163 22.9899 25.2345 22.9717 25.2708C22.9171 25.3072 22.8806 25.3617 22.826 25.3981C22.7349 25.489 22.6438 25.5799 22.5527 25.6708C22.0973 26.0889 21.6419 26.4888 21.1865 26.907C21.059 27.0524 20.9133 27.1797 20.7858 27.3251C20.6036 27.4524 20.4214 27.5614 20.2393 27.6887C20.3121 27.7432 20.3668 27.8159 20.4397 27.8705C20.549 27.6887 20.6765 27.5069 20.7858 27.3251C20.9315 27.1978 21.059 27.0524 21.2047 26.9251C21.6601 26.5252 22.1155 26.1071 22.571 25.7071C22.662 25.6162 22.7531 25.5253 22.8442 25.4344C22.8806 25.3617 22.9171 25.3072 22.9717 25.2708ZM17.9076 25.798C17.6526 25.9071 17.3793 26.0344 17.1243 26.1434C17.179 26.2161 17.2154 26.2889 17.27 26.3798C17.4886 26.198 17.7072 25.998 17.9076 25.798C17.9805 25.7798 18.0351 25.7617 18.0898 25.7435C18.0716 25.7253 18.0716 25.7071 18.0533 25.6889C18.0169 25.7435 17.9623 25.7798 17.9076 25.798ZM23.7186 24.5618C23.755 24.6345 23.7914 24.7072 23.8279 24.78C24.2286 24.5073 24.6112 24.2346 25.0119 23.9619C24.9573 23.8892 24.9208 23.8165 24.8662 23.7619C24.4837 24.0346 24.1011 24.3073 23.8097 24.8527C23.7914 24.7981 23.7732 24.7254 23.7368 24.6709C23.5728 24.7618 23.4089 24.8709 23.2632 24.9618C23.2996 25.0163 23.336 25.0708 23.3542 25.1254C23.5182 25.0163 23.6639 24.9254 23.7186 24.5618ZM18.0533 29.7612C18.5998 29.4521 19.1463 29.1249 19.6928 28.8158C19.8567 28.7613 20.0389 28.7249 20.2028 28.6522C22.8442 27.3069 25.4855 25.9616 28.1269 24.5982C28.9648 24.1619 29.7846 23.7256 30.6043 23.2711C30.5679 23.1983 30.5314 23.1256 30.495 23.0529C29.9485 23.2347 29.3656 23.362 28.8738 23.6347C26.3053 24.9799 23.755 26.3434 21.2047 27.7432C20.6583 28.0341 20.1846 28.4522 19.6928 28.8158C19.1281 29.1249 18.5816 29.4339 18.0533 29.7612C17.689 29.9066 17.3247 30.0702 16.9786 30.2338C17.0332 30.3065 17.0697 30.3974 17.1243 30.4702C17.434 30.2338 17.7437 29.9975 18.0533 29.7612ZM9.30957 32.9062C9.61924 32.7971 9.92892 32.6699 10.2386 32.5608C10.5301 32.4517 10.8033 32.3245 11.0948 32.2154C8.90881 33.7788 6.88682 35.615 4.31833 36.6148C4.48228 36.6694 4.62801 36.6694 4.7373 36.6148C6.1946 35.924 7.65189 35.2695 9.07276 34.5242C9.72854 34.1788 10.3115 33.6879 10.9126 33.2516C12.1149 32.3608 13.2989 31.47 14.483 30.5611C16.1042 29.852 17.7437 29.143 19.3649 28.434C19.201 28.3432 19.0734 28.3613 18.9641 28.3977C17.8712 28.7613 16.7964 29.1249 15.7217 29.4885C15.9038 29.343 16.086 29.1794 16.3046 29.0703C17.0514 28.6158 17.7983 28.1795 18.5452 27.7432C18.3448 27.616 18.1809 27.5978 18.0716 27.6705C17.0514 28.2341 16.0313 28.7976 15.0295 29.4157C14.5558 29.7066 14.1186 30.1066 13.6815 30.452C13.6268 30.4883 13.5904 30.5247 13.5357 30.5611C13.5904 30.5247 13.6268 30.4883 13.6815 30.452C13.8272 30.452 13.9547 30.452 14.1004 30.452C13.645 30.7247 13.1896 30.9974 12.7342 31.27C12.716 31.1428 12.6796 31.0337 12.6249 30.7428C12.3699 31.0337 12.2059 31.2155 12.042 31.3973C11.1312 31.8518 10.2386 32.3063 9.32778 32.7608C9.30957 32.7789 9.30957 32.8517 9.30957 32.9062C8.59914 32.9971 8.01622 33.3062 7.59725 33.9061C8.32589 33.8334 8.8906 33.5061 9.30957 32.9062ZM16.9604 27.5796C16.086 27.725 13.809 28.9613 13.7908 29.3248C14.2644 29.1067 14.7562 28.9431 15.2116 28.6886C15.7945 28.3431 16.3774 27.9432 16.9604 27.5796C17.0332 27.5251 17.1061 27.4705 17.179 27.416C17.1607 27.3978 17.1425 27.3796 17.1425 27.3796C17.0697 27.4342 17.015 27.5069 16.9604 27.5796ZM9.16384 35.6331C9.40065 35.5604 9.65568 35.5241 9.85605 35.415C10.7122 34.9605 11.5502 34.4696 12.3881 33.9788C13.0803 33.5788 13.7725 33.1971 14.4648 32.8153C14.2279 32.7426 14.0458 32.7971 13.8636 32.888C13.1896 33.2153 12.5156 33.5243 11.8781 33.9061C10.9672 34.4333 10.0746 35.0332 9.16384 35.6331C9.14562 35.6513 9.14562 35.6695 9.12741 35.6877C9.14562 35.6695 9.16384 35.6513 9.16384 35.6331ZM17.5069 25.1254C17.3065 25.1981 17.0697 25.2708 16.8875 25.3799C15.5395 26.1434 14.1915 26.907 12.8435 27.6887C12.0784 28.125 11.3133 28.5977 10.5483 29.0522C10.5847 29.1249 10.6029 29.1976 10.6394 29.2703C10.8033 29.2339 10.9672 29.1794 11.113 29.1249C11.4226 29.0158 11.7323 28.9067 12.042 28.8158C11.6048 29.143 11.1676 29.4521 10.7304 29.7793C10.7669 29.8339 10.7851 29.8702 10.8215 29.9248C11.7688 29.3976 12.6978 28.8522 13.645 28.325C13.6086 28.2523 13.5722 28.1977 13.5357 28.125C13.0439 28.3613 12.5338 28.5795 12.042 28.8158C12.1513 28.6886 12.2424 28.5068 12.3699 28.434C13.4993 27.725 14.6469 27.0524 15.7763 26.3434C16.3592 25.9616 16.9239 25.5253 17.5069 25.1254C17.5251 25.1072 17.5251 25.089 17.5433 25.0708C17.5251 25.089 17.5069 25.1072 17.5069 25.1254ZM14.0822 33.4516C13.9729 33.488 13.8636 33.488 13.7543 33.5425C12.0238 34.5424 10.2932 35.5422 8.5627 36.5421C8.16195 36.7784 7.77941 37.0693 7.34222 37.342C7.46973 37.4511 7.50617 37.4874 7.50617 37.4693C9.63746 36.2512 11.7688 35.015 13.9 33.7788C13.9911 33.7243 14.0276 33.5607 14.0822 33.4516C14.1004 33.4334 14.1004 33.4152 14.1186 33.3971C14.1004 33.3971 14.1004 33.4334 14.0822 33.4516ZM23.919 22.5439C23.7004 22.6711 23.4818 22.7984 23.2632 22.9257C23.3178 22.9984 23.3725 23.0711 23.4271 23.1438C23.5911 22.9984 23.755 22.8529 23.919 22.6893C24.1193 22.6348 24.3197 22.6166 24.5019 22.5257C26.8153 21.2895 29.1106 20.0351 31.424 18.7807C31.6608 18.6535 31.843 18.4535 32.0616 18.2899C31.8612 18.199 31.7155 18.1808 31.6062 18.2535C30.3128 18.9262 29.0013 19.5988 27.7261 20.326C26.4328 21.0168 25.1759 21.7985 23.919 22.5439ZM19.292 32.0518C19.2556 31.9972 19.2374 31.9427 19.201 31.8882C17.9623 32.3063 7.65189 38.1601 7.41508 38.6873C11.4409 36.4512 15.3573 34.2515 19.292 32.0518ZM22.3524 30.0884C25.0666 28.834 27.544 27.216 29.9849 25.489C27.3982 26.9433 24.6658 28.1614 22.3524 30.0884ZM27.0339 28.3977C27.1068 28.5068 27.1614 28.6158 27.2343 28.7067C29.8939 27.1615 32.5534 25.6162 35.2312 24.071C35.1948 23.9982 35.1401 23.9255 35.1037 23.8528C32.4259 25.3799 29.7299 26.8888 27.0339 28.3977ZM13.4629 36.5603C13.4993 36.6148 13.5357 36.6875 13.5722 36.7421C16.1953 35.6513 18.6727 34.2515 20.9679 32.5426C18.4723 33.8879 15.9585 35.215 13.4629 36.5603ZM30.2582 24.9981C30.24 24.9436 30.2035 24.889 30.1853 24.8345C27.9447 25.5071 25.8134 26.4161 23.8279 27.6523C23.8461 27.7069 23.8643 27.7614 23.9007 27.7978C26.0138 26.8706 28.1269 25.9253 30.2582 24.9981ZM30.3493 20.5805C30.3128 20.4896 30.2582 20.3987 30.2218 20.326C28.9102 20.7805 27.7261 21.4895 26.5239 22.1621C26.5603 22.2348 26.5967 22.3076 26.6332 22.3621C27.8536 21.7622 29.1106 21.1804 30.3493 20.5805ZM26.5421 23.8528C27.4347 23.871 30.3493 22.2348 30.5132 21.744C29.1834 22.4712 27.8719 23.162 26.5421 23.8528ZM18.3448 25.489C18.3812 25.5617 18.4359 25.6526 18.4723 25.7253C19.4196 25.2345 20.3486 24.7254 21.2958 24.2346C21.2594 24.1619 21.2047 24.071 21.1683 23.9982C20.2393 24.4891 19.292 24.9799 18.3448 25.489ZM7.25114 32.9244C7.30579 33.0153 7.36044 33.1062 7.41508 33.1971C8.18016 32.7244 8.94524 32.2336 9.71032 31.7609C9.67389 31.6882 9.61924 31.6155 9.58281 31.5427C8.79951 32.0154 8.01622 32.4699 7.25114 32.9244ZM26.196 22.5621C26.1413 22.4893 26.1049 22.4166 26.0502 22.3439C25.358 22.762 24.6658 23.162 23.9554 23.5801C23.9918 23.6528 24.0465 23.7256 24.0829 23.7983C24.7933 23.3983 25.5038 22.9802 26.196 22.5621ZM11.3316 37.8329C11.3862 37.9238 11.4409 38.0146 11.4955 38.1055C11.9327 37.8329 12.3517 37.542 12.7889 37.2693C12.7524 37.1966 12.6978 37.1239 12.6613 37.0511C12.2242 37.3056 11.7688 37.5783 11.3316 37.8329ZM20.7858 25.489C20.7311 25.4162 20.6947 25.3435 20.64 25.289C20.1482 25.5799 19.6381 25.8707 19.1463 26.1616C19.201 26.2343 19.2374 26.307 19.292 26.3798C19.7839 26.0707 20.2939 25.7798 20.7858 25.489ZM21.478 23.8346C21.5144 23.9073 21.5691 23.9982 21.6055 24.071C22.0427 23.8346 22.4617 23.5983 22.8988 23.3801C22.8624 23.3074 22.826 23.2529 22.7895 23.1802C22.3524 23.3983 21.9152 23.6165 21.478 23.8346ZM26.3235 24.1619C26.2871 24.1073 26.2324 24.0528 26.196 24.0164C26.0867 24.1073 25.9592 24.1982 25.8499 24.2891C25.8863 24.3255 25.9227 24.38 25.9592 24.4164C26.0867 24.3255 26.196 24.2528 26.3235 24.1619ZM14.9384 32.5063C14.9202 32.4517 14.9019 32.379 14.8837 32.3972C14.8291 32.3972 14.7562 32.4335 14.7016 32.4517C14.7198 32.5063 14.738 32.5426 14.7744 32.5972C14.8291 32.5426 14.8837 32.5244 14.9384 32.5063ZM21.4962 32.3608C21.478 32.3063 21.4415 32.2517 21.4415 32.2517C21.3869 32.2517 21.314 32.2881 21.2594 32.3063C21.2776 32.3608 21.314 32.4517 21.3323 32.4517C21.3869 32.4335 21.4416 32.379 21.4962 32.3608ZM19.9843 28.0159C19.966 28.0159 19.9478 28.0159 19.9296 28.0341C19.9296 28.0341 19.9296 28.0705 19.9478 28.0886C19.966 28.0886 19.9843 28.0886 20.0025 28.0705C20.0025 28.0705 19.9843 28.0341 19.9843 28.0159ZM16.8146 26.3798C16.7964 26.3979 16.7782 26.3979 16.7782 26.4161C16.7964 26.4343 16.8329 26.4343 16.8511 26.4525C16.8511 26.4343 16.8693 26.4161 16.8693 26.4161C16.8511 26.3979 16.8329 26.3979 16.8146 26.3798ZM6.94146 33.2153C6.94146 33.2334 6.94146 33.2516 6.95968 33.2516C6.9779 33.2698 6.99611 33.2516 7.01433 33.2698C7.01433 33.2516 6.99611 33.2153 6.99611 33.1971C6.9779 33.2153 6.95968 33.2153 6.94146 33.2153Z" fill="#BF904A"/>
<path d="M19.4195 34.2151C19.9478 33.906 20.4761 33.5788 21.0044 33.2697C23.6639 31.7426 26.3235 30.2337 29.0013 28.7248C30.3493 27.9613 31.7155 27.2341 33.0635 26.4888C33.1728 26.8524 33.191 27.4523 33.3914 27.525C34.5026 27.8886 35.6502 28.1249 36.7796 28.3976C38.4737 28.8157 40.186 29.2157 41.8801 29.652C42.0076 29.6884 42.1169 29.8338 42.2262 29.9247C41.8437 30.4155 41.3701 30.87 41.0786 31.4154C40.0949 33.2334 39.5302 35.1786 39.6395 37.2692C39.676 37.9782 39.9128 38.669 40.0585 39.3599C38.1276 38.8872 36.1967 38.3963 34.2657 37.9237C29.4385 36.742 24.6112 35.5603 19.8021 34.3787C19.6564 34.3605 19.5471 34.2696 19.4195 34.2151Z" fill="#A77A3C"/>
<path d="M22.152 21.053C21.6055 21.4166 21.0955 21.8347 20.5307 22.162C18.6727 23.2709 16.8146 24.3617 14.9202 25.4343C12.716 26.6705 10.5118 27.8885 8.30769 29.1065C7.39688 29.6156 6.48607 30.0882 5.59348 30.5791C4.46407 30.5427 3.35288 30.5245 2.22348 30.4882C2.56959 29.8155 3.07964 29.1793 3.24359 28.4702C3.89937 25.7797 4.0451 23.1073 2.46029 20.6349C3.33467 20.6349 4.20904 20.6531 5.06521 20.6531C6.13996 20.6894 7.23293 20.7076 8.30769 20.744C12.9346 20.853 17.5433 20.9621 22.152 21.053Z" fill="#A77A3B"/>
<path d="M42.2262 29.9249C42.1169 29.834 42.0076 29.6704 41.8801 29.6522C40.186 29.2341 38.4919 28.8159 36.7796 28.3978C35.6502 28.1251 34.4843 27.8888 33.3914 27.5252C33.191 27.4525 33.1728 26.8525 33.0635 26.489C34.0472 25.889 35.0308 25.3073 35.9963 24.6892C36.3242 24.471 36.5974 24.1983 36.9071 23.9438C37.8179 23.8529 38.2187 23.4166 38.2551 22.5258C38.2733 22.1622 38.2551 21.8168 38.2551 21.4532C40.86 21.5441 43.4649 21.6168 46.0698 21.7077C46.6163 21.7259 47.1446 21.7805 47.6911 21.835C47.7093 21.8895 47.7457 21.9804 47.7275 21.9986C46.926 22.744 46.7074 23.7257 46.5252 24.7437C46.1791 26.7253 46.1609 28.7069 46.8713 30.6339C46.9989 30.9793 47.1992 31.3065 47.3814 31.6338C46.3431 31.5974 45.2865 31.561 44.2482 31.5247C44.0661 31.3429 43.7928 31.1793 43.7199 30.9611C43.4467 30.034 43.2281 29.8522 42.2262 29.9249Z" fill="#96652C"/>
<path d="M22.152 21.0533C17.5433 20.9624 12.9346 20.8533 8.32591 20.7624C8.89061 19.7625 9.45531 18.7627 10.0018 17.7446C10.6576 16.5084 10.7487 15.1813 10.6576 13.8178C14.902 15.9994 19.1463 18.1809 23.3907 20.3625C22.9717 20.5806 22.571 20.8169 22.152 21.0533Z" fill="#96662E"/>
<path d="M10.6576 13.7994C10.7486 15.1628 10.6576 16.4899 10.0018 17.7261C9.45529 18.7442 8.89059 19.7441 8.32589 20.7439C7.25113 20.7076 6.15816 20.6894 5.0834 20.653C5.46594 18.6533 6.24924 16.8172 7.50616 15.1992C7.92513 14.6538 8.47162 14.1993 9.0181 13.763C9.52816 13.3449 10.1111 13.3267 10.6576 13.7994Z" fill="#E4AD55"/>
<path d="M47.3814 31.6335C47.2175 31.3063 46.9989 30.9791 46.8713 30.6336C46.1609 28.7066 46.1791 26.7432 46.5252 24.7435C46.7074 23.7254 46.9442 22.7437 47.7275 21.9984C47.7457 21.9802 47.7093 21.8893 47.6911 21.8348C48.4197 21.653 48.8751 21.8348 49.2212 22.5438C49.9499 24.0527 50.1138 25.6888 49.9317 27.325C49.8042 28.4157 49.4945 29.4883 49.1848 30.5427C48.8933 31.4335 48.2376 31.779 47.3814 31.6335ZM47.5636 29.0702C47.5453 29.052 47.5271 29.0338 47.5089 29.0157C47.5089 29.0338 47.5271 29.0702 47.5636 29.0702C47.5636 29.1793 47.5818 29.2702 47.5818 29.3793C47.6 29.3793 47.6364 29.3793 47.6546 29.3793C47.6546 29.2702 47.6729 29.1793 47.6729 29.0702C47.9825 29.0702 48.2922 29.0702 48.693 29.0702C48.5472 29.652 48.4197 30.1792 48.2558 30.7791C47.8915 30.6155 47.7093 30.5246 47.5271 30.4337C46.8896 28.9975 46.6527 27.4886 46.8713 25.9433C46.9989 25.0525 47.3996 24.1981 47.7639 23.3618C47.9279 22.9983 48.2922 22.9074 48.4926 23.4346C48.529 23.5255 48.6019 23.5982 48.6565 23.6709C48.7112 23.6345 48.7658 23.6164 48.8205 23.58C48.6565 23.2891 48.5108 22.9801 48.274 22.7437C48.2193 22.6892 47.7822 22.871 47.6729 23.0346C47.3268 23.6164 46.8349 24.2163 46.7803 24.8344C46.6527 26.1978 46.671 27.5795 46.7803 28.9429C46.8167 29.452 47.2721 29.9428 47.5271 30.4518C47.7275 31.0336 48.1465 31.179 48.4744 30.7064C48.784 30.2519 49.0209 29.7247 49.1666 29.1793C49.622 27.4159 49.5127 25.6343 49.2941 23.8527C49.2395 23.38 49.0209 22.9074 48.8751 22.4347C48.8205 22.4529 48.7658 22.471 48.693 22.4892C49.3487 24.4163 49.4398 26.3796 49.0209 28.3794C49.0209 27.2159 49.0209 26.0342 49.0209 24.8707C48.8933 25.7979 48.8751 26.725 48.9116 27.6522C48.9298 28.2703 48.9116 28.7793 48.1465 28.8521C48.0007 28.743 47.8368 28.6339 47.6729 28.5248C47.6729 27.8522 47.6729 27.1614 47.6729 26.4887C47.8368 26.216 47.9825 25.9433 48.2011 25.5797C48.274 26.2524 48.3286 26.8523 48.4015 27.4341C48.3651 27.4341 48.3286 27.4522 48.274 27.4522C48.2376 27.2159 48.2011 26.9796 48.1647 26.7432C48.11 26.7432 48.0554 26.7432 48.0007 26.7432C47.9825 27.0886 47.9279 27.4341 47.9643 27.7795C47.9825 27.9613 48.1829 28.1067 48.3104 28.2703C48.4197 28.1067 48.6201 27.9431 48.6201 27.7976C48.6019 27.1977 48.5108 26.5978 48.4379 25.9979C48.4015 25.6525 48.3469 25.2889 48.2922 24.9435C48.2011 24.9435 48.1283 24.9253 48.0372 24.9253C47.9097 25.4525 47.8004 25.9979 47.6729 26.5251C47.6729 27.2159 47.6729 27.8885 47.6729 28.5794C47.6729 28.7612 47.6729 28.9429 47.6729 29.1247C47.6546 29.0884 47.6 29.0884 47.5636 29.0702ZM47.2903 28.2703C47.3085 28.4157 47.3085 28.543 47.3267 28.6884C47.3632 28.6703 47.3996 28.6703 47.436 28.6521C47.3814 28.5248 47.3268 28.3976 47.2903 28.2703C47.3632 27.3068 47.4178 26.3615 47.4907 25.3979C47.2539 26.1251 47.1082 26.8705 47.0353 27.634C47.0171 27.834 47.1992 28.0522 47.2903 28.2703ZM48.9116 24.1254C48.8387 24.0708 48.784 24.0345 48.7294 23.9981C48.7112 24.0345 48.6565 24.0708 48.6748 24.1072C48.693 24.1617 48.7476 24.2163 48.7658 24.2526C48.8205 24.2163 48.8569 24.1799 48.9116 24.1254ZM47.6 25.0344C47.6182 25.0344 47.6364 25.0344 47.6546 25.0344C47.6546 24.9616 47.6546 24.8889 47.6546 24.8162C47.6364 24.8162 47.6182 24.8162 47.6 24.8162C47.6 24.8889 47.6 24.9616 47.6 25.0344Z" fill="#EBB55D"/>
<path d="M38.2733 21.435C38.2733 21.7985 38.2733 22.144 38.2733 22.5075C38.2369 23.3983 37.8361 23.8346 36.9253 23.9255C34.6301 22.8893 33.5007 20.9077 32.5534 18.7262C32.098 17.6536 32.1162 16.581 32.2438 15.4903C32.9724 14.9085 33.6828 14.9085 34.4661 15.4539C36.0145 16.5265 36.9618 18.0354 37.6904 19.7261C37.9272 20.2715 38.0729 20.8714 38.2733 21.435ZM34.7212 16.3992C34.7029 16.381 34.6847 16.3629 34.6665 16.3447C34.6665 16.3629 34.6847 16.381 34.7212 16.3992C34.6301 16.4719 34.5026 16.6174 34.4661 16.5992C34.284 16.5083 34.1565 16.3447 33.9743 16.2538C33.7375 16.1265 33.3185 15.9084 33.2274 15.9811C33.0088 16.1993 32.8631 16.5447 32.8085 16.8537C32.5534 18.4717 33.3549 19.7806 34.1565 21.0714C34.2658 21.235 34.5026 21.3259 34.6847 21.4531C34.9033 21.7258 35.1401 21.9985 35.3587 22.2712C35.8506 22.5803 36.2878 22.962 36.816 23.1802C37.2714 23.362 37.7268 22.9802 37.6904 22.4712C37.6358 21.6895 37.5993 20.8714 37.3443 20.1442C37.1075 19.4716 36.5974 18.908 36.1967 18.3081C35.9234 17.9445 35.6502 17.5809 35.3769 17.2173C35.1766 16.9446 34.9398 16.6719 34.7212 16.3992ZM34.4661 16.0902C34.5026 16.0356 34.539 15.9629 34.5936 15.9084C34.1929 15.6902 33.7739 15.4721 33.3732 15.2721C33.3367 15.3448 33.3003 15.3994 33.2639 15.4721C33.6646 15.672 34.0654 15.8902 34.4661 16.0902Z" fill="#ECB861"/>
<path d="M2.46028 20.635C4.04509 23.1074 3.89936 25.7798 3.24358 28.4704C3.06142 29.1794 2.56958 29.8157 2.22347 30.4883C1.56769 30.6701 1.07585 30.3792 0.839044 29.7975C0.511153 28.9612 0.165045 28.0886 0.0921802 27.216C-0.0899817 25.3253 -0.0717655 23.4165 0.802612 21.6349C1.2398 20.7441 1.44018 20.5805 2.46028 20.635ZM1.51304 29.9066C1.56769 29.9429 1.60412 29.9793 1.65877 29.9975C1.65877 29.9975 1.67699 29.9611 1.6952 29.9429C1.64056 29.9248 1.58591 29.9066 1.51304 29.9066C1.33088 29.4703 1.09407 29.0703 0.966557 28.634C0.839044 28.1795 0.747963 27.7069 0.747963 27.2342C0.711531 26.2707 0.729747 25.3072 0.729747 24.3436C0.875476 25.9434 1.11229 27.5069 1.38553 29.0703C1.42196 29.2521 1.62234 29.5248 1.76807 29.543C1.93202 29.5612 2.18704 29.3794 2.31456 29.2158C2.93391 28.3795 3.37109 27.4887 3.29823 26.3979C3.2618 25.7253 3.28001 25.0345 3.29823 24.3618C3.29823 23.3619 2.97034 22.453 2.42385 21.6349C2.18704 21.2713 1.85915 21.0895 1.51304 21.5622C1.3491 21.7622 1.09407 21.9258 1.03942 22.1439C0.802612 23.162 0.492936 24.1982 0.456504 25.2344C0.401855 26.4343 0.565801 27.5978 0.729747 28.7613C0.802612 29.1976 0.729747 29.8884 1.51304 29.9066Z" fill="#ECB861"/>
<path d="M42.2262 29.9247C43.2281 29.852 43.4467 30.0338 43.7382 30.961C43.811 31.1791 44.0843 31.3427 44.2664 31.5245C44.1571 31.7245 43.9568 31.9245 43.9385 32.1244C43.811 34.615 43.3192 36.9965 41.698 38.9963C41.279 39.5235 40.6961 39.6689 40.0585 39.3599C39.9128 38.6691 39.676 37.9782 39.6395 37.2692C39.512 35.1786 40.0767 33.2334 41.0786 31.4154C41.3701 30.8701 41.8437 30.4156 42.2262 29.9247ZM43.046 30.8519C42.5723 30.6883 42.1351 30.7792 41.8437 31.1791C41.4611 31.7063 41.024 32.2153 40.7689 32.7971C40.0221 34.4696 39.7306 36.233 40.2224 38.051C40.2953 38.3237 40.5686 38.6327 40.8236 38.7236C41.279 38.9054 41.5887 38.56 41.8073 38.1964C42.4995 37.0329 43.1735 35.8512 43.2828 34.4696C43.3921 33.2879 43.4467 32.1063 43.4467 30.9246C43.4467 30.561 43.2281 30.2156 42.6816 30.1792C42.8274 30.4519 42.9367 30.6519 43.046 30.8519Z" fill="#ECB861"/>
<path d="M35.2676 10.8363C35.3405 10.3454 35.6684 10.1273 36.1056 10C35.8323 10.2727 35.5409 10.5454 35.2676 10.8363Z" fill="#F9571A"/>
<path d="M19.8385 15.9993C19.9114 16.0538 20.0025 16.1083 20.0753 16.1629C20.0025 16.1083 19.9296 16.0538 19.8385 15.9993Z" fill="#FCAA36"/>
<path d="M20.1846 16.1629C20.2575 16.181 20.3122 16.1992 20.385 16.2174C20.3304 16.2356 20.2757 16.2719 20.2029 16.2901C20.1846 16.2719 20.1846 16.2356 20.1664 16.2174C20.1664 16.181 20.1846 16.1629 20.1846 16.1629Z" fill="#FC7B29"/>
<path d="M14.5012 30.5792C13.3171 31.47 12.1149 32.3789 10.9308 33.2697C10.3297 33.706 9.74676 34.1969 9.09098 34.5423C7.6519 35.2695 6.19461 35.9239 4.73731 36.6148C4.62802 36.6693 4.5005 36.6693 4.31834 36.6148C6.88682 35.6149 8.90882 33.7969 11.0948 32.2153C11.1858 32.179 11.2587 32.1426 11.3498 32.0881C11.4409 31.9972 11.532 31.8881 11.623 31.7972C11.7688 31.7063 11.8963 31.6154 12.042 31.5245C12.2788 31.4336 12.4974 31.3427 12.7342 31.2518C13.1896 30.9791 13.645 30.7064 14.1004 30.4337C14.1915 30.4337 14.2826 30.4337 14.3737 30.4337C14.3919 30.4883 14.4465 30.5246 14.5012 30.5792Z" fill="#A67532"/>
<path d="M19.6746 28.7975C20.1846 28.434 20.6583 28.0158 21.1865 27.725C23.7368 26.3433 26.2871 24.9617 28.8555 23.6164C29.3656 23.3437 29.9303 23.2346 30.4768 23.0346C30.5132 23.1074 30.5496 23.1801 30.5861 23.2528C29.7664 23.6891 28.9466 24.1436 28.1087 24.5799C25.4673 25.9434 22.826 27.2886 20.1846 28.6339C20.0389 28.7248 19.8567 28.7612 19.6746 28.7975C19.6746 28.7975 19.6928 28.8157 19.6746 28.7975Z" fill="#A67532"/>
<path d="M19.292 32.0517C15.3756 34.2514 11.4591 36.433 7.41509 38.7054C7.6519 38.16 17.9623 32.3062 19.201 31.9063C19.2192 31.9426 19.2556 31.9972 19.292 32.0517Z" fill="#AA7935"/>
<path d="M23.919 22.5438C25.1759 21.7985 26.4328 21.0349 27.7079 20.3078C28.9831 19.5988 30.2946 18.9261 31.588 18.2353C31.6973 18.1808 31.843 18.1808 32.0434 18.2717C31.843 18.4353 31.6426 18.6352 31.4058 18.7625C29.1106 20.0169 26.7971 21.2713 24.4837 22.5075C24.3015 22.5984 24.1011 22.6166 23.9007 22.6711C23.919 22.6347 23.919 22.5802 23.919 22.5438Z" fill="#A67532"/>
<path d="M22.3524 30.0883C24.6658 28.1612 27.3983 26.9432 29.985 25.4888C27.5622 27.2159 25.0666 28.8339 22.3524 30.0883Z" fill="#A67532"/>
<path d="M14.5012 30.5792C14.4465 30.5428 14.4101 30.4883 14.3555 30.4519C14.4283 30.3429 14.5012 30.2338 14.574 30.1429C14.5376 30.1065 14.5012 30.0884 14.4465 30.052C14.319 30.1974 14.1915 30.3247 14.064 30.4701C13.9183 30.4701 13.7907 30.4701 13.645 30.4701C14.1004 30.1247 14.5194 29.7248 14.993 29.4339C15.9949 28.8158 17.015 28.2704 18.0351 27.6887C18.1444 27.6159 18.3084 27.6341 18.5087 27.7614C17.7619 28.1977 17.015 28.634 16.2682 29.0885C16.0678 29.2157 15.8856 29.3794 15.6852 29.5066C15.5395 29.5612 15.3938 29.6157 15.248 29.6884C15.2845 29.7429 15.3209 29.7793 15.3391 29.8338C15.4666 29.7248 15.5759 29.6339 15.7034 29.5248C16.7782 29.1612 17.8712 28.7976 18.9459 28.434C19.0552 28.3977 19.1827 28.3613 19.3467 28.4704C17.7437 29.1612 16.1224 29.8702 14.5012 30.5792ZM15.0112 29.8884C14.993 29.8702 14.993 29.852 14.9748 29.852C14.9566 29.8702 14.9566 29.8702 14.9384 29.8884C14.9566 29.9066 14.9748 29.9247 14.993 29.9429C14.993 29.9247 15.0112 29.9066 15.0112 29.8884Z" fill="#AA7935"/>
<path d="M27.0339 28.3976C29.7299 26.8887 32.4077 25.3798 35.1037 23.8709C35.1401 23.9437 35.1948 24.0164 35.2312 24.0891C32.5716 25.6344 29.9121 27.1796 27.2343 28.7249C27.1797 28.6158 27.1068 28.5067 27.0339 28.3976Z" fill="#AA7935"/>
<path d="M13.4628 36.5601C15.9585 35.2149 18.4541 33.8878 20.9679 32.5425C18.6727 34.2513 16.2135 35.633 13.5721 36.7419C13.5357 36.6874 13.4993 36.6147 13.4628 36.5601Z" fill="#AA7935"/>
<path d="M14.0822 33.4335C14.0276 33.5426 13.9911 33.7244 13.9 33.7789C11.7687 35.0151 9.63745 36.2513 7.50615 37.4694C7.50615 37.4694 7.46972 37.4512 7.34221 37.3421C7.76118 37.0512 8.14372 36.7785 8.56269 36.5422C10.2932 35.5423 12.0238 34.5425 13.7725 33.5426C13.8636 33.488 13.9729 33.4699 14.0822 33.4335Z" fill="#A67532"/>
<path d="M17.5069 25.1254C16.9239 25.5254 16.3592 25.9617 15.7763 26.3253C14.6469 27.0343 13.4993 27.7069 12.3699 28.4159C12.2242 28.5068 12.1513 28.6704 12.042 28.7977C11.7323 28.9068 11.4226 29.0158 11.113 29.1067C10.949 29.1613 10.7851 29.1976 10.6394 29.2522C10.6029 29.1794 10.5847 29.1067 10.5483 29.034C11.3134 28.5795 12.0784 28.125 12.8435 27.6705C14.1915 26.8888 15.5395 26.1253 16.8875 25.3617C17.0697 25.2709 17.2883 25.2163 17.5069 25.1254Z" fill="#AA7935"/>
<path d="M30.2582 24.998C28.1269 25.9252 26.0138 26.8705 23.8825 27.7976C23.8643 27.7431 23.8461 27.6886 23.8097 27.6522C25.7952 26.3978 27.9265 25.507 30.1671 24.8344C30.2036 24.8889 30.24 24.9435 30.2582 24.998Z" fill="#AA7935"/>
<path d="M9.16383 35.633C10.0746 35.0513 10.9672 34.4514 11.878 33.8878C12.5156 33.506 13.2078 33.197 13.8636 32.8697C14.0276 32.7789 14.2097 32.7243 14.4647 32.797C13.7725 33.1788 13.0803 33.5787 12.3881 33.9605C11.5502 34.4332 10.7122 34.924 9.85605 35.3967C9.65567 35.524 9.40064 35.5603 9.16383 35.633Z" fill="#AA7935"/>
<path d="M30.3493 20.5804C29.1106 21.1803 27.8719 21.7621 26.6332 22.362C26.5967 22.2893 26.5603 22.2166 26.5239 22.162C27.7261 21.4894 28.9102 20.7804 30.2217 20.3259C30.2582 20.4168 30.2946 20.5077 30.3493 20.5804Z" fill="#AA7935"/>
<path d="M26.5421 23.8528C27.8537 23.162 29.1834 22.453 30.5132 21.744C30.3493 22.253 27.4347 23.871 26.5421 23.8528Z" fill="#AA7935"/>
<path d="M16.9604 27.5796C16.3775 27.9432 15.8128 28.3432 15.2116 28.6704C14.7562 28.9249 14.2826 29.0885 13.7908 29.3067C13.809 28.9613 16.0678 27.7251 16.9604 27.5796Z" fill="#AA7935"/>
<path d="M11.3498 32.088C11.2587 32.1244 11.1858 32.1607 11.0948 32.2153C10.8033 32.3243 10.5301 32.4516 10.2386 32.5607C9.92892 32.6879 9.61924 32.797 9.30957 32.9061L9.29135 32.8879C9.29135 32.8515 9.29135 32.7788 9.32778 32.7606C10.2204 32.3061 11.1312 31.8517 12.042 31.3972C12.042 31.4517 12.042 31.4881 12.042 31.5426C11.8963 31.6335 11.7688 31.7244 11.623 31.8153C11.5319 31.9062 11.4409 31.9971 11.3498 32.088Z" fill="#AA7935"/>
<path d="M18.3448 25.4889C19.2921 24.998 20.2211 24.5072 21.1683 24.0163C21.2048 24.089 21.2594 24.1799 21.2958 24.2527C20.3486 24.7435 19.4196 25.2525 18.4723 25.7434C18.4359 25.6525 18.3995 25.5616 18.3448 25.4889Z" fill="#AA7935"/>
<path d="M12.042 28.8157C12.5338 28.5794 13.0439 28.3612 13.5357 28.1249C13.5721 28.1976 13.6086 28.2522 13.645 28.3249C12.6978 28.8521 11.7687 29.3975 10.8215 29.9247C10.7851 29.8701 10.7668 29.8338 10.7304 29.7792C11.1676 29.452 11.6048 29.1248 12.042 28.8157Z" fill="#AA7935"/>
<path d="M7.25114 32.9245C8.01622 32.47 8.79952 31.9973 9.5646 31.5428C9.60103 31.6155 9.65568 31.6883 9.69211 31.761C8.92703 32.2336 8.16195 32.7245 7.39687 33.1972C7.36044 33.1063 7.30579 33.0154 7.25114 32.9245Z" fill="#AA7935"/>
<path d="M9.30958 32.9061C8.89061 33.506 8.32591 33.8333 7.59726 33.906C8.01623 33.3061 8.59915 32.997 9.30958 32.9061C9.30958 32.9061 9.29137 32.8879 9.30958 32.9061Z" fill="#AA7935"/>
<path d="M26.196 22.5619C25.5038 22.98 24.7933 23.3982 24.1011 23.8163C24.0647 23.7436 24.01 23.6709 23.9736 23.5982C24.6658 23.18 25.358 22.7801 26.0685 22.3619C26.1049 22.4165 26.1413 22.4892 26.196 22.5619Z" fill="#AA7935"/>
<path d="M11.3316 37.8329C11.7688 37.5602 12.2242 37.3057 12.6613 37.033C12.6978 37.1057 12.7524 37.1784 12.7889 37.2512C12.3517 37.5238 11.9327 37.8147 11.4955 38.0874C11.4409 38.0147 11.3862 37.9238 11.3316 37.8329Z" fill="#A67532"/>
<path d="M20.7858 25.489C20.2939 25.7799 19.7839 26.0707 19.292 26.3798C19.2374 26.3071 19.201 26.2344 19.1463 26.1616C19.6381 25.8708 20.1482 25.5799 20.64 25.289C20.6947 25.3436 20.7493 25.4163 20.7858 25.489Z" fill="#AA7935"/>
<path d="M21.1865 26.9069C21.6419 26.4888 22.0973 26.0888 22.5527 25.6707C22.0973 26.0888 21.6419 26.4888 21.1865 26.9069Z" fill="#AA7935"/>
<path d="M18.0533 29.7611C18.5998 29.4339 19.1463 29.1248 19.6928 28.7976L19.711 28.8158C19.1463 29.1248 18.5998 29.4521 18.0533 29.7611Z" fill="#A67532"/>
<path d="M21.478 23.8345C21.9152 23.6163 22.3524 23.3982 22.7895 23.18C22.826 23.2527 22.8624 23.3073 22.8988 23.38C22.4617 23.6163 22.0427 23.8527 21.6055 24.0708C21.5691 23.9799 21.5144 23.9072 21.478 23.8345Z" fill="#AA7935"/>
<path d="M23.7186 24.5617C24.1011 24.289 24.4837 24.0163 24.848 23.7618C24.9026 23.8345 24.9391 23.9072 24.9937 23.9618C24.593 24.2344 24.2104 24.5071 23.8097 24.7798C23.7914 24.7071 23.755 24.6344 23.7186 24.5617Z" fill="#AA7935"/>
<path d="M18.0533 29.761C17.7437 29.9974 17.434 30.2337 17.1243 30.47C17.0697 30.3973 17.0332 30.3064 16.9786 30.2337C17.3247 30.0701 17.689 29.9247 18.0533 29.761Z" fill="#A67532"/>
<path d="M17.9076 25.8161C17.689 25.9979 17.4887 26.1978 17.2701 26.3796C17.2154 26.3069 17.179 26.2342 17.1243 26.1433C17.3794 26.0342 17.6526 25.9251 17.9076 25.8161Z" fill="#AA7935"/>
<path d="M12.042 31.3972C12.2059 31.2154 12.3699 31.0154 12.6249 30.7427C12.6796 31.0336 12.6978 31.1427 12.7342 31.2699C12.4974 31.3063 12.2606 31.3608 12.042 31.3972Z" fill="#AA7935"/>
<path d="M23.919 22.5438C23.919 22.5983 23.919 22.6347 23.919 22.6892C23.755 22.8347 23.5911 22.9801 23.4271 23.1437C23.3725 23.071 23.3178 22.9983 23.2632 22.9256C23.4818 22.7983 23.7004 22.6711 23.919 22.5438Z" fill="#AA7935"/>
<path d="M20.7858 27.3068C20.6765 27.4886 20.549 27.6704 20.4397 27.8522C20.3668 27.7977 20.3121 27.725 20.2393 27.6704C20.4214 27.5432 20.6036 27.4341 20.7858 27.3068Z" fill="#AA7935"/>
<path d="M23.8097 24.8346C23.6639 24.9255 23.5182 25.0164 23.3725 25.1073C23.336 25.0528 23.2996 24.9982 23.2814 24.9437C23.4453 24.8528 23.6093 24.7437 23.755 24.6528C23.7732 24.7255 23.7914 24.7801 23.8097 24.8346Z" fill="#AA7935"/>
<path d="M26.3235 24.1618C26.196 24.2527 26.0867 24.3436 25.9592 24.4345C25.9228 24.3982 25.8863 24.3436 25.8499 24.3073C25.9592 24.2164 26.0867 24.1255 26.196 24.0346C26.2324 24.0527 26.2871 24.1073 26.3235 24.1618Z" fill="#AA7935"/>
<path d="M20.7858 27.3068C20.9133 27.1614 21.059 27.0341 21.1865 26.8887C21.059 27.0341 20.9133 27.1796 20.7858 27.3068Z" fill="#AA7935"/>
<path d="M14.9384 32.5061C14.8837 32.5243 14.8291 32.5606 14.7744 32.5788C14.7562 32.5243 14.738 32.4879 14.7016 32.4334C14.7562 32.4152 14.8291 32.397 14.8837 32.3789C14.902 32.3789 14.9202 32.4516 14.9384 32.5061Z" fill="#AA7935"/>
<path d="M21.4962 32.3607C21.4416 32.3971 21.3869 32.4335 21.3323 32.4335C21.314 32.4335 21.2776 32.3426 21.2594 32.288C21.314 32.2698 21.3869 32.2517 21.4416 32.2335C21.4598 32.2335 21.478 32.3062 21.4962 32.3607Z" fill="#AA7935"/>
<path d="M22.826 25.3979C22.7349 25.4888 22.6438 25.5797 22.5527 25.6706C22.6438 25.5797 22.7349 25.4888 22.826 25.3979Z" fill="#AA7935"/>
<path d="M16.9604 27.5795C17.015 27.5068 17.0697 27.4341 17.1243 27.3795C17.1425 27.3977 17.1607 27.4159 17.1607 27.4159C17.0879 27.4704 17.0332 27.525 16.9604 27.5795Z" fill="#AA7935"/>
<path d="M19.9842 28.016C19.9842 28.0342 20.0025 28.0524 20.0025 28.0706C19.9842 28.0887 19.966 28.0887 19.9478 28.0887C19.9478 28.0706 19.9296 28.0524 19.9296 28.0342C19.9478 28.0342 19.966 28.0342 19.9842 28.016Z" fill="#AA7935"/>
<path d="M16.8147 26.3796C16.8329 26.3796 16.8511 26.3978 16.8511 26.3978C16.8511 26.3978 16.8511 26.4341 16.8329 26.4341C16.8147 26.416 16.7782 26.416 16.76 26.3978C16.7782 26.3978 16.7964 26.3978 16.8147 26.3796Z" fill="#AA7935"/>
<path d="M17.9076 25.798C17.9623 25.7617 18.0169 25.7253 18.0533 25.6889C18.0716 25.7071 18.0716 25.7253 18.0898 25.7435C18.0351 25.7798 17.9805 25.798 17.9076 25.798C17.9076 25.798 17.9076 25.8162 17.9076 25.798Z" fill="#AA7935"/>
<path d="M6.94146 33.2151C6.95967 33.2151 6.97789 33.1969 6.99611 33.1969C6.99611 33.2151 7.01432 33.2515 7.01432 33.2696C6.99611 33.2696 6.97789 33.2696 6.95967 33.2515C6.94146 33.2515 6.94146 33.2333 6.94146 33.2151Z" fill="#AA7935"/>
<path d="M13.6814 30.452C13.6268 30.4883 13.5904 30.5247 13.5357 30.5611C13.5722 30.5065 13.6268 30.4702 13.6814 30.452Z" fill="#AA7935"/>
<path d="M9.16384 35.6332C9.14562 35.6513 9.14562 35.6695 9.1274 35.6877C9.14562 35.6695 9.16384 35.6513 9.16384 35.6332Z" fill="#AA7935"/>
<path d="M14.0822 33.4516C14.1004 33.4334 14.1004 33.4152 14.1187 33.397C14.1004 33.397 14.1004 33.4152 14.0822 33.4516C14.0822 33.4516 14.0822 33.4334 14.0822 33.4516Z" fill="#A67532"/>
<path d="M17.5068 25.1252C17.5251 25.107 17.5251 25.0889 17.5433 25.0707C17.5251 25.0889 17.5068 25.107 17.5068 25.1252Z" fill="#AA7935"/>
<path d="M22.9717 25.2526C22.9899 25.2345 23.0081 25.2163 23.0264 25.1981C23.0264 25.2163 23.0264 25.2345 23.0081 25.2345C23.0081 25.2526 22.9899 25.2526 22.9717 25.2526C22.9717 25.2526 22.9717 25.2708 22.9717 25.2526Z" fill="#AA7935"/>
<path d="M22.826 25.398C22.8624 25.3434 22.9171 25.3071 22.9535 25.2525C22.9171 25.3071 22.8806 25.3616 22.826 25.398Z" fill="#AA7935"/>
<path d="M47.6911 28.525C47.855 28.6341 48.019 28.7432 48.1647 28.8523C48.9298 28.7614 48.948 28.2524 48.9298 27.6524C48.8934 26.7253 48.9116 25.7981 49.0391 24.871C49.0391 26.0345 49.0391 27.2161 49.0391 28.3796C49.4763 26.3799 49.367 24.4165 48.7112 22.4894C48.7658 22.4713 48.8205 22.4531 48.8934 22.4349C49.0391 22.9076 49.2577 23.3621 49.3123 23.8529C49.5309 25.6345 49.6402 27.4161 49.1848 29.1795C49.0391 29.7067 48.8023 30.2521 48.4926 30.7066C48.1829 31.1793 47.7457 31.0338 47.5454 30.4521L47.5636 30.4339C47.7457 30.5248 47.9279 30.6157 48.2922 30.7793C48.438 30.1794 48.5837 29.6522 48.7294 29.0704C48.3287 29.0704 48.019 29.0704 47.7093 29.0704C47.6911 28.9068 47.6911 28.725 47.6911 28.525C47.6911 28.525 47.6911 28.5432 47.6911 28.525Z" fill="#D89F48"/>
<path d="M47.5453 30.4521C47.2903 29.9612 46.8349 29.4704 46.7985 28.9432C46.6892 27.5797 46.671 26.1981 46.7985 24.8346C46.8531 24.2165 47.345 23.6166 47.6911 23.0348C47.8004 22.8712 48.2376 22.6894 48.2922 22.7439C48.529 22.9803 48.6565 23.2893 48.8387 23.5802C48.784 23.6166 48.7294 23.6347 48.6747 23.6711C48.6201 23.5984 48.5472 23.5075 48.5108 23.4348C48.3104 22.9257 47.9461 22.9985 47.7821 23.362C47.4178 24.1983 47.0353 25.0527 46.8896 25.9435C46.6892 27.4888 46.926 28.9977 47.5453 30.4521C47.5453 30.4521 47.5636 30.4339 47.5453 30.4521Z" fill="#D89F48"/>
<path d="M47.6911 26.4889C47.8186 25.9617 47.9279 25.4163 48.0554 24.8891C48.1465 24.8891 48.2193 24.9073 48.3104 24.9073C48.3651 25.2527 48.4197 25.6163 48.4562 25.9617C48.529 26.5616 48.6201 27.1616 48.6383 27.7615C48.6383 27.9069 48.4379 28.0705 48.3286 28.2341C48.2011 28.0705 48.0007 27.9251 47.9825 27.7433C47.9461 27.3979 48.0007 27.0525 48.019 26.7071C48.0736 26.7071 48.1283 26.7071 48.1829 26.7071C48.2193 26.9434 48.2558 27.1797 48.2922 27.4161C48.3286 27.4161 48.3651 27.3979 48.4197 27.3979C48.3651 26.8161 48.2922 26.2162 48.2193 25.5436C48.019 25.9435 47.855 26.2162 47.6911 26.4889Z" fill="#D89F48"/>
<path d="M47.2903 28.2703C47.1992 28.0521 47.0171 27.834 47.0353 27.634C47.1082 26.8705 47.2357 26.1251 47.4907 25.3979C47.4178 26.3432 47.345 27.3068 47.2903 28.2703Z" fill="#D89F48"/>
<path d="M48.9116 24.1256C48.8569 24.1802 48.8205 24.2165 48.7659 24.2529C48.7294 24.1983 48.693 24.162 48.6748 24.1074C48.6748 24.0893 48.7112 24.0347 48.7294 23.9984C48.7841 24.0347 48.8387 24.0711 48.9116 24.1256Z" fill="#D89F48"/>
<path d="M47.2903 28.2703C47.345 28.3975 47.3814 28.5248 47.436 28.652C47.3996 28.6702 47.3632 28.6702 47.3267 28.6884C47.3085 28.543 47.2903 28.3975 47.2903 28.2703Z" fill="#D89F48"/>
<path d="M47.6182 25.0708C47.6383 25.0708 47.6547 25.0057 47.6547 24.9254C47.6547 24.8451 47.6383 24.7799 47.6182 24.7799C47.5981 24.7799 47.5818 24.8451 47.5818 24.9254C47.5818 25.0057 47.5981 25.0708 47.6182 25.0708Z" fill="#D89F48"/>
<path d="M47.5636 29.0704C47.6 29.0704 47.6546 29.0704 47.6911 29.0704C47.6911 29.1795 47.6729 29.2704 47.6729 29.3794C47.6546 29.3794 47.6182 29.3794 47.6 29.3794C47.5818 29.2885 47.5636 29.1795 47.5636 29.0704Z" fill="#D89F48"/>
<path d="M47.5636 29.0884C47.5454 29.0703 47.5271 29.0521 47.5089 29.0339C47.5271 29.0339 47.5454 29.0521 47.5636 29.0884C47.5636 29.0884 47.5636 29.0703 47.5636 29.0884Z" fill="#D89F48"/>
<path d="M36.2331 18.3081C36.6156 18.9262 37.1439 19.4898 37.3807 20.1442C37.6357 20.8714 37.6722 21.6895 37.7268 22.4712C37.7632 22.9802 37.3261 23.3802 36.8524 23.1802C36.3242 22.962 35.8688 22.5803 35.3951 22.2712L35.4316 22.2349C35.7959 22.3985 36.1602 22.5985 36.5245 22.7257C36.7431 22.7984 37.0528 22.8893 37.1985 22.7984C37.3807 22.6712 37.4171 22.3439 37.5082 22.1076C36.8524 22.2894 36.3424 22.453 35.9598 21.8349C36.2877 21.8713 36.6156 21.9076 36.9982 21.9622C36.9982 21.6168 36.9982 21.3259 36.9982 21.235C36.6885 21.3259 36.3242 21.4531 35.9598 21.5622C35.9416 21.544 35.9234 21.5259 35.887 21.5077C35.9052 21.5259 35.9234 21.544 35.9416 21.5804C35.9416 21.6713 35.9416 21.7622 35.9416 21.8531C35.7777 21.7986 35.6137 21.744 35.5227 21.7077C35.5227 21.435 35.5227 21.235 35.5227 21.035C35.7412 21.0896 35.9416 21.1986 36.1602 21.1986C36.2877 21.1986 36.4335 21.0896 36.561 21.035C36.4517 20.9078 36.3606 20.7078 36.2513 20.6896C35.4134 20.5623 35.0126 19.8533 35.3769 19.1262C35.723 19.3989 36.0691 19.6897 36.4335 19.9806C36.4517 19.8715 36.4517 19.7806 36.4699 19.6716C36.561 19.6716 36.6521 19.6716 36.7431 19.6716C36.7978 19.8533 36.8342 20.0533 36.8889 20.2351C36.9435 20.2169 36.9982 20.1806 37.0528 20.1624C36.9435 19.9988 36.8342 19.8352 36.7431 19.6716C36.6521 19.4898 36.561 19.308 36.4699 19.1262C36.397 18.8535 36.3059 18.5808 36.2331 18.3081Z" fill="#D89F48"/>
<path d="M34.7212 16.3992C34.9398 16.6719 35.1766 16.9446 35.3952 17.2173C35.3587 17.2173 35.3041 17.2173 35.2676 17.2173C35.2312 17.1627 35.1766 17.1264 35.1401 17.0718C35.1219 17.0536 35.1037 17.0355 35.0673 17.0173C35.0855 17.0355 35.1037 17.0536 35.1219 17.0718C35.1766 17.1082 35.213 17.1627 35.2676 17.1991C35.2676 17.3445 35.2676 17.4718 35.2676 17.599C34.794 17.3809 34.3204 17.1809 33.7193 16.9264C33.865 18.508 34.2475 19.8169 35.0673 20.9986C34.958 21.1259 34.8487 21.2713 34.7212 21.4167L34.7029 21.4349C34.5208 21.3077 34.284 21.2168 34.1747 21.0531C33.3732 19.7624 32.5716 18.4535 32.8267 16.8355C32.8813 16.5264 33.027 16.181 33.2456 15.9629C33.3367 15.872 33.7375 16.1083 33.9925 16.2356C34.1747 16.3265 34.3204 16.4901 34.4843 16.581C34.5026 16.6173 34.6301 16.4719 34.7212 16.3992ZM33.8832 19.8715C33.9379 18.7443 33.0453 17.6354 33.8832 16.4719C33.5007 16.2901 33.1546 16.3628 33.0999 16.8355C32.9724 17.9444 33.2639 18.9625 33.8832 19.8715ZM34.1747 20.0896C34.12 20.1623 34.0654 20.2169 34.0836 20.2532C34.1018 20.3078 34.1565 20.3441 34.1929 20.3805C34.2293 20.3441 34.284 20.2896 34.284 20.2532C34.284 20.2169 34.2293 20.1805 34.1747 20.0896Z" fill="#D89F48"/>
<path d="M34.4661 16.0902C34.0654 15.8902 33.6646 15.6721 33.2639 15.4721C33.3003 15.3994 33.3367 15.3448 33.3732 15.2721C33.7739 15.4903 34.1929 15.7084 34.5936 15.9084C34.539 15.9629 34.5026 16.0357 34.4661 16.0902Z" fill="#D89F48"/>
<path d="M35.3952 17.2172C35.6684 17.5808 35.9416 17.9444 36.2149 18.308L36.1967 18.3262C35.9234 18.0899 35.6502 17.8717 35.3769 17.6354C35.3952 17.4899 35.3952 17.3627 35.3952 17.2172Z" fill="#D89F48"/>
<path d="M35.3769 22.2895C35.1583 22.0168 34.9215 21.7441 34.7029 21.4714L34.7212 21.4532C34.958 21.7259 35.1766 21.9986 35.4134 22.2531L35.3769 22.2895Z" fill="#D89F48"/>
<path d="M34.7029 16.3993C34.6847 16.3811 34.6665 16.3629 34.6483 16.3447C34.6847 16.3629 34.7029 16.3811 34.7029 16.3993C34.7029 16.3993 34.7212 16.3993 34.7029 16.3993Z" fill="#D89F48"/>
<path d="M1.51304 21.5803C1.85915 21.0894 2.16882 21.2712 2.42385 21.653C2.97034 22.4711 3.29823 23.38 3.29823 24.3799C3.29823 25.0525 3.26179 25.7434 3.29823 26.416C3.35288 27.5068 2.91569 28.3976 2.31455 29.2338C2.18704 29.3974 1.95023 29.5792 1.76807 29.5611C1.62234 29.5429 1.42196 29.2702 1.38553 29.0884C1.11228 27.525 0.875474 25.9615 0.729744 24.3617C0.729744 25.3252 0.711528 26.2888 0.74796 27.2341C0.766176 27.7068 0.839041 28.1794 0.966555 28.6339C1.09407 29.0702 1.33088 29.4883 1.51304 29.9065C0.729744 29.8883 0.802609 29.1975 0.729744 28.7612C0.565798 27.5977 0.401853 26.4342 0.456501 25.2707C0.492934 24.2345 0.802609 23.1982 1.03942 22.1802C1.09407 21.9438 1.34909 21.7802 1.51304 21.5803C1.45839 21.8166 1.42196 22.0347 1.36731 22.2711C1.34909 22.2893 1.34909 22.3074 1.33088 22.3256C1.34909 22.3074 1.34909 22.2893 1.36731 22.2711C2.04131 22.2893 2.62423 22.7801 2.5878 23.3437C2.56958 23.6527 2.44207 23.9618 2.46028 24.2708C2.51493 25.3798 2.27812 26.416 1.74985 27.525C1.5859 26.7251 1.45839 26.0888 1.33088 25.4525C1.2398 25.4707 1.1305 25.4707 1.03942 25.4889C1.07585 26.0888 1.0212 26.7069 1.14872 27.2886C1.22158 27.634 1.56769 27.9431 1.84093 28.3249C2.00488 28.034 2.09596 27.834 2.20526 27.634C2.27812 27.6704 2.33277 27.7068 2.40563 27.7613C2.16882 28.1249 1.93201 28.5067 1.62234 28.9975C1.5859 28.8884 1.60412 28.9793 1.64055 29.052C1.67699 29.1248 1.76807 29.1611 1.85915 29.252C3.0432 28.0885 3.02498 26.5978 3.06142 25.1434C2.86104 25.8888 2.66066 26.6342 2.46028 27.3795C2.4785 26.3069 2.53315 25.2525 2.62423 24.1981C2.64244 24.089 2.86104 23.9981 3.02498 23.8709C2.82461 23.3255 2.60601 22.7437 2.40563 22.1802C2.2599 21.7257 1.96844 21.5257 1.51304 21.5803ZM2.05953 23.1801C2.09596 23.1619 2.15061 23.1255 2.18704 23.1073C2.04131 22.9255 1.93201 22.7256 1.74985 22.5801C1.71342 22.5438 1.47661 22.7801 1.22158 22.9619C1.64055 23.071 1.85915 23.1255 2.05953 23.1801Z" fill="#D89F48"/>
<path d="M1.51304 29.8884C1.56769 29.9066 1.62234 29.9248 1.6952 29.943C1.67698 29.9612 1.65877 29.9975 1.65877 29.9975C1.60412 29.9612 1.56769 29.943 1.51304 29.8884C1.51304 29.8884 1.51304 29.9066 1.51304 29.8884Z" fill="#D89F48"/>
<path d="M43.046 30.8518C42.9367 30.6519 42.8091 30.4519 42.6634 30.1792C43.2099 30.2156 43.4285 30.561 43.4285 30.9246C43.4103 32.1062 43.3556 33.2879 43.2646 34.4696C43.137 35.8512 42.4813 37.0329 41.789 38.1964C41.5704 38.5599 41.2608 38.9054 40.8054 38.7236C40.5503 38.6145 40.2771 38.3054 40.2042 38.0509C39.7306 36.233 40.0039 34.4696 40.7507 32.797C41.0057 32.2153 41.4429 31.6881 41.8255 31.1791C42.1352 30.7791 42.5723 30.6882 43.046 30.8518C43.046 31.4154 43.046 31.979 43.046 32.5425C43.1735 32.5243 43.2828 32.5243 43.4103 32.5062C43.2828 31.9426 43.1735 31.3972 43.046 30.8518Z" fill="#E1A94F"/>
<path d="M14.0822 30.452C14.2097 30.3065 14.3372 30.1793 14.4648 30.0338C14.5012 30.0702 14.5376 30.0884 14.5923 30.1247C14.5194 30.2338 14.4465 30.3429 14.3737 30.4338C14.2644 30.4338 14.1733 30.452 14.0822 30.452Z" fill="#BF904A"/>
<path d="M12.042 31.3972C12.2788 31.3427 12.4974 31.3063 12.7342 31.2518C12.4974 31.3427 12.2788 31.4336 12.042 31.5245C12.042 31.4881 12.042 31.4518 12.042 31.3972Z" fill="#BF904A"/>
<path d="M11.623 31.8155C11.7687 31.7246 11.8963 31.6337 12.042 31.5428C11.8963 31.6337 11.7687 31.7246 11.623 31.8155Z" fill="#BF904A"/>
<path d="M11.3498 32.0882C11.4409 31.9973 11.5319 31.8883 11.623 31.7974C11.5319 31.9064 11.4409 31.9973 11.3498 32.0882Z" fill="#BF904A"/>
<path d="M15.7217 29.4885C15.5941 29.5976 15.4849 29.6885 15.3573 29.7976C15.3209 29.743 15.2845 29.7067 15.2663 29.6522C15.4302 29.5976 15.5759 29.5431 15.7217 29.4885Z" fill="#BF904A"/>
<path d="M15.0113 29.8883C15.0113 29.9065 14.993 29.9247 14.993 29.9429C14.9748 29.9247 14.9566 29.9065 14.9384 29.8883C14.9566 29.8701 14.9566 29.8701 14.9748 29.852C14.993 29.852 14.993 29.8701 15.0113 29.8883Z" fill="#BF904A"/>
<path d="M35.4134 22.2529C35.1766 21.9802 34.958 21.7075 34.7212 21.453C34.8305 21.3076 34.958 21.1622 35.0673 21.0349C34.2293 19.8532 33.8468 18.5443 33.7193 16.9627C34.3204 17.2172 34.794 17.4354 35.2676 17.6353C35.3223 17.7262 35.3587 17.8171 35.4134 17.9262C35.5045 18.0535 35.5773 18.1807 35.6684 18.3262C35.7595 18.4171 35.8688 18.508 35.9599 18.5989C36.0145 18.6897 36.0509 18.7806 36.1056 18.8715C36.1602 18.9624 36.1967 19.0533 36.2513 19.1442C36.3424 19.326 36.4335 19.5078 36.5246 19.6896C36.5063 19.7987 36.5063 19.8896 36.4881 19.9987C36.1238 19.7078 35.7777 19.4169 35.4316 19.1442C35.1401 18.6897 34.8305 18.2534 34.539 17.799C34.4297 17.8535 34.3204 17.8899 34.2293 17.9444C34.4661 18.7261 34.6665 19.5078 34.9215 20.2714C34.958 20.3804 35.1583 20.435 35.2859 20.5077C35.3405 20.6531 35.3769 20.7804 35.4316 20.9258C35.4862 20.9804 35.5227 21.0167 35.5773 21.0713C35.5773 21.2712 35.5773 21.4712 35.5773 21.7439C35.6502 21.7803 35.8323 21.8348 35.9963 21.8893C36.3788 22.5074 36.8889 22.3438 37.5447 22.162C37.4536 22.3984 37.4172 22.7074 37.235 22.8529C37.1075 22.9619 36.7796 22.8529 36.561 22.7801C36.142 22.5983 35.7777 22.4165 35.4134 22.2529Z" fill="#EBB55D"/>
<path d="M35.3951 19.1262C35.0308 19.8533 35.4316 20.5623 36.2695 20.6896C36.397 20.7078 36.4881 20.9078 36.5792 21.035C36.4335 21.0896 36.306 21.2168 36.1784 21.1986C35.9599 21.1804 35.7413 21.0896 35.5409 21.035C35.4862 20.9805 35.4498 20.9441 35.3951 20.8896C35.3405 20.7441 35.3041 20.6169 35.2494 20.4714C35.0308 19.8715 34.8122 19.2534 34.539 18.4717C34.9215 18.7808 35.1583 18.9625 35.3951 19.1262Z" fill="#EBB55D"/>
<path d="M35.9416 21.853C35.9416 21.7621 35.9416 21.6712 35.9416 21.5803L35.9598 21.5621C36.3242 21.453 36.6885 21.344 36.9982 21.2349C36.9982 21.3258 36.9982 21.6167 36.9982 21.9621C36.5974 21.9439 36.2695 21.8894 35.9416 21.853Z" fill="#EBB55D"/>
<path d="M35.6502 18.308C35.5591 18.1807 35.4862 18.0535 35.3951 17.908C35.3951 17.8171 35.3951 17.7262 35.3951 17.6172C35.6684 17.8535 35.9416 18.0716 36.2149 18.308C36.306 18.5807 36.397 18.8534 36.4881 19.126C36.397 19.126 36.306 19.126 36.2149 19.126C36.1602 19.0352 36.1238 18.9443 36.0692 18.8534C36.0145 18.7625 35.9781 18.6716 35.9234 18.5807C35.8506 18.4898 35.7595 18.3989 35.6502 18.308Z" fill="#ECB861"/>
<path d="M36.4881 19.1262C36.5792 19.308 36.6703 19.4897 36.7614 19.6715C36.6703 19.6715 36.5792 19.6715 36.4881 19.6715C36.4881 19.4897 36.4881 19.308 36.4881 19.1262Z" fill="#ECB861"/>
<path d="M36.7614 19.6714C36.8707 19.8351 36.98 19.9987 37.0711 20.1623C37.0164 20.1805 36.9618 20.2168 36.9071 20.235C36.8525 20.0532 36.816 19.8714 36.7614 19.6714Z" fill="#ECB861"/>
<path d="M35.9417 21.5804C35.9234 21.5622 35.9052 21.544 35.887 21.5077C35.9052 21.544 35.9234 21.5622 35.9417 21.5804Z" fill="#EBB55D"/>
<path d="M33.8832 19.8713C33.2639 18.9624 32.9724 17.9443 33.0999 16.8353C33.1546 16.3627 33.5007 16.3081 33.8832 16.4718C33.0453 17.6352 33.9379 18.726 33.8832 19.8713Z" fill="#EBB55D"/>
<path d="M34.1747 20.0896C34.2293 20.1623 34.284 20.2169 34.284 20.2714C34.284 20.3078 34.2293 20.3623 34.1929 20.3986C34.1565 20.3623 34.0836 20.3078 34.0836 20.2714C34.0654 20.2169 34.12 20.1623 34.1747 20.0896Z" fill="#EBB55D"/>
<path d="M35.3951 17.2172C35.3951 17.3445 35.3951 17.4899 35.3951 17.6172C35.3587 17.6172 35.3041 17.6172 35.2676 17.6172C35.2676 17.4718 35.2676 17.3445 35.2676 17.2172C35.3041 17.2172 35.3587 17.2172 35.3951 17.2172Z" fill="#ECB861"/>
<path d="M35.1219 17.0899C35.1037 17.0717 35.0855 17.0536 35.0673 17.0354C35.0855 17.0354 35.1037 17.0536 35.1219 17.0899C35.1219 17.0899 35.1219 17.0717 35.1219 17.0899Z" fill="#ECB861"/>
<path d="M35.2676 17.2174C35.213 17.181 35.1766 17.1265 35.1219 17.0901C35.1766 17.1265 35.213 17.1628 35.2676 17.2174Z" fill="#ECB861"/>
<path d="M1.38554 22.2711C1.42197 22.0529 1.47662 21.8166 1.51305 21.5984C1.96846 21.5439 2.25992 21.7439 2.40565 22.162C2.62424 22.7256 2.82462 23.3073 3.025 23.8527C2.86105 23.9799 2.62424 24.0708 2.62424 24.1799C2.53316 25.2343 2.4603 26.2887 2.4603 27.3613C2.66067 26.616 2.86105 25.8706 3.06143 25.1253C3.025 26.5978 3.04321 28.0703 1.85916 29.2338C1.74986 29.1429 1.677 29.1066 1.64057 29.0339C1.58592 28.9611 1.5677 28.8702 1.62235 28.9793C1.93203 28.4885 2.16884 28.1249 2.40565 27.7431C2.33278 27.7067 2.27813 27.6704 2.20527 27.6158C2.09597 27.8158 2.00489 28.0158 1.84095 28.3067C1.5677 27.9249 1.22159 27.6158 1.14873 27.2704C1.02122 26.6887 1.05765 26.0706 1.03943 25.4707C1.13051 25.4707 1.22159 25.4525 1.33089 25.4525C1.45841 26.0888 1.60413 26.7251 1.76808 27.525C2.29635 26.416 2.53316 25.3798 2.47851 24.2708C2.4603 23.9618 2.58781 23.6527 2.60603 23.3437C2.64246 22.7619 2.05954 22.2711 1.38554 22.2711Z" fill="#EBB55D"/>
<path d="M2.05952 23.1803C1.84093 23.1258 1.62233 23.0712 1.23979 22.9621C1.49482 22.7803 1.73163 22.544 1.76806 22.5804C1.95022 22.7076 2.05952 22.9258 2.20525 23.1076C2.1506 23.1258 2.11417 23.1439 2.05952 23.1803Z" fill="#EBB55D"/>
<path d="M1.38552 22.2713C1.3673 22.2895 1.3673 22.3077 1.34908 22.3258C1.3673 22.3077 1.3673 22.2895 1.38552 22.2713Z" fill="#EBB55D"/>
<path d="M43.046 30.8519C43.1735 31.3973 43.2828 31.9427 43.4103 32.488C43.2828 32.5062 43.1735 32.5062 43.046 32.5244C43.046 31.979 43.046 31.4155 43.046 30.8519Z" fill="#ECB861"/>
<path d="M35.3952 19.126C35.1584 18.9443 34.9216 18.7806 34.539 18.4898C34.8123 19.2715 35.0308 19.8714 35.2494 20.4895C35.1219 20.4168 34.9033 20.3623 34.8851 20.2532C34.6301 19.4896 34.4115 18.7079 34.1929 17.9262C34.3022 17.8717 34.4115 17.8353 34.5026 17.7808C34.8123 18.2353 35.1037 18.6716 35.3952 19.126Z" fill="#D89F48"/>
<path d="M36.4881 19.1262C36.4881 19.308 36.4881 19.4897 36.4881 19.6715C36.397 19.4897 36.306 19.308 36.2149 19.1262C36.306 19.1262 36.397 19.1262 36.4881 19.1262Z" fill="#D89F48"/>
<path d="M35.6502 18.3081C35.7413 18.399 35.8506 18.4899 35.9417 18.5808C35.8506 18.4899 35.7595 18.399 35.6502 18.3081Z" fill="#D89F48"/>
<path d="M35.2676 20.4895C35.3223 20.6349 35.3587 20.7622 35.4134 20.9076C35.3587 20.7622 35.3041 20.6349 35.2676 20.4895Z" fill="#D89F48"/>
<path d="M36.0874 18.8534C36.142 18.9443 36.1784 19.0352 36.2331 19.1261C36.1784 19.0352 36.1238 18.9443 36.0874 18.8534Z" fill="#D89F48"/>
<path d="M35.9416 18.5806C35.9963 18.6715 36.0327 18.7624 36.0874 18.8533C36.0327 18.7624 35.9963 18.6715 35.9416 18.5806Z" fill="#D89F48"/>
<path d="M35.2676 17.6172C35.3041 17.6172 35.3587 17.6172 35.3951 17.6172C35.3951 17.708 35.3951 17.7989 35.3951 17.908C35.3587 17.8171 35.3041 17.7262 35.2676 17.6172Z" fill="#D89F48"/>
<path d="M35.3951 20.9077C35.4498 20.9622 35.4862 20.9986 35.5409 21.0531C35.4862 20.9986 35.4498 20.944 35.3951 20.9077Z" fill="#D89F48"/>
</svg>
