<svg width="50" height="50" viewBox="0 0 50 50" fill="none" xmlns="http://www.w3.org/2000/svg">
<path d="M4.92398 17.6381C6.20634 17.9469 7.4887 18.2556 8.7948 18.5643C10.0297 18.8493 11.312 18.8967 12.5706 18.968C12.9268 18.9917 13.2831 19.0155 13.6393 19.0392C13.6868 19.1105 13.7343 19.2055 13.8055 19.253C14.0667 19.5379 14.3517 19.8229 14.6129 20.1079C13.758 20.0604 12.9268 20.0129 12.0244 19.9654C12.3332 20.1316 14.2092 20.4166 14.8504 20.3928C14.8979 20.4166 14.9691 20.4403 15.0166 20.4878C15.3491 20.7253 15.4916 20.749 15.8715 20.5116C16.2277 20.5353 16.5602 20.5591 16.9164 20.5591C17.9375 20.6066 18.9824 20.6303 20.0036 20.6778C20.8585 20.7015 21.7134 20.749 22.592 20.7965C22.877 20.8203 23.162 20.8678 23.4469 20.8915C24.0406 20.9153 24.6581 20.939 25.2517 20.9865C25.3705 20.9865 25.4892 20.9865 25.6317 20.9865C26.5578 21.0578 27.484 21.1527 28.3864 21.2002C29.1938 21.2477 30.0012 21.2715 30.7849 21.319C31.2361 21.3427 31.6635 21.3902 32.1147 21.414C32.4947 21.4377 32.8747 21.4615 33.2784 21.4852C32.3522 21.3665 31.4023 21.2715 30.4762 21.2002C29.2413 21.1053 28.0302 21.0103 26.7953 20.9153C25.6317 20.8203 24.4681 20.749 23.3282 20.6778C22.3308 20.6066 21.3097 20.5591 20.3123 20.5116C20.0273 20.4878 19.7423 20.4641 19.4574 20.4641C18.365 20.3928 17.2964 20.3216 16.204 20.2266C16.204 20.2029 16.204 20.1791 16.204 20.1791C16.2515 20.1316 16.2752 20.1079 16.3227 20.0604C16.5839 19.7991 16.8452 19.5142 17.1301 19.253C17.2014 19.253 17.2726 19.253 17.3439 19.253C17.4151 19.253 17.4626 19.253 17.5338 19.253C19.5524 19.3479 21.5709 19.4192 23.5894 19.5142C24.4206 19.5379 25.2517 19.5854 26.0829 19.6092C26.3916 19.6329 26.7003 19.6329 26.9853 19.6567C27.0565 19.6567 27.1278 19.6567 27.2228 19.6567C27.9114 19.6804 28.6001 19.7042 29.265 19.7279C29.3125 19.7279 29.3363 19.7279 29.3838 19.7279C29.8112 19.7517 30.2149 19.7517 30.6424 19.7754C30.8086 19.7754 30.9749 19.7754 31.1648 19.7754C31.8298 19.7991 32.4947 19.8229 33.1596 19.8466C33.2071 20.0366 33.2071 20.2503 33.2784 20.4403C33.3259 20.5828 33.4683 20.6778 33.5633 20.7965C33.6583 20.8915 33.7533 20.9865 33.8483 21.0815C33.9195 21.2952 34.0858 21.3902 34.252 21.224C34.5845 20.939 34.8694 20.6066 35.1544 20.2741C35.2969 20.1316 35.4394 19.9179 35.6293 19.8466C36.2943 19.5617 36.9829 19.2767 37.6716 19.0392C38.479 18.7543 39.3339 18.588 40.1176 18.2793C40.5688 18.0893 41.02 17.7806 41.3762 17.4244C41.8512 16.9732 42.1124 16.3795 42.2786 15.7621C42.4448 15.2159 42.6111 14.6697 42.8011 14.1235C43.086 14.3847 42.9673 14.6935 42.9435 15.0022C42.9198 15.3346 42.8723 15.6434 42.8486 15.9758C42.8248 16.3558 42.9198 16.4745 43.3235 16.4745C43.4422 16.4745 43.5372 16.4508 43.656 16.427C43.7035 16.4508 43.751 16.4745 43.7747 16.4983C43.3947 16.7357 42.991 16.9257 42.6586 17.2107C41.5662 18.1606 40.4976 19.158 39.4052 20.1079C38.859 20.5828 38.2891 21.0578 37.6954 21.4852C37.3154 21.7702 36.9117 21.9839 36.508 22.2451C36.508 22.2689 36.5317 22.2926 36.5317 22.3401C36.888 22.2451 37.2442 22.1739 37.5766 22.0314C38.7877 21.509 39.7614 20.6066 40.7825 19.7754C40.8063 19.7991 40.8538 19.8229 40.8775 19.8229C41.8274 19.7517 42.7773 19.6804 43.7035 19.5617C44.4634 19.4904 45.1995 19.6567 45.912 19.8941C46.4107 20.0604 46.8856 20.2741 47.3368 20.5116C47.5505 20.6066 47.7405 20.7965 47.8592 20.9865C48.2155 21.604 48.5004 22.2451 48.8091 22.8863C48.8566 22.9813 48.9516 23.1 48.7379 23.1475C48.4529 23.1475 48.168 23.1475 47.9067 23.1713C47.3368 23.195 46.7669 23.2425 46.2207 23.29C45.437 23.3613 44.6534 23.4325 43.8459 23.5037C43.2048 23.5512 42.5636 23.575 41.9224 23.6225C40.9488 23.6937 39.9751 23.765 39.0252 23.86C38.954 23.86 38.859 23.9074 38.7877 23.9074C38.7877 23.9549 38.7877 23.9787 38.8115 24.0262C40.2838 24.0262 41.7562 24.0262 43.2285 24.0262C43.3235 24.0262 43.3947 24.0024 43.4897 24.0024C44.5821 23.9787 45.6745 23.9787 46.7669 23.9549C47.2181 23.9549 47.693 23.8837 48.1442 23.8362C48.3817 23.8125 48.6192 23.765 48.8329 23.7412C48.8329 23.7412 48.8329 23.67 48.8566 23.6462C48.9516 23.6462 49.0466 23.6462 49.1179 23.6225C49.1179 23.6462 49.1416 23.67 49.1416 23.6937C49.3078 24.1687 49.4741 24.6436 49.6166 25.1423C49.9253 26.2347 50.0203 27.3271 49.9965 28.4432C49.9965 28.6807 49.9253 28.8232 49.7115 28.9181C49.5216 29.0131 49.3316 29.1319 49.1179 29.2506C48.9279 29.3218 48.7379 29.3931 48.5242 29.4881C48.5004 29.4881 48.4529 29.5118 48.4292 29.5118C48.168 29.5831 47.9305 29.6543 47.6693 29.7256C47.598 29.7256 47.5268 29.7018 47.4555 29.7018C47.4555 29.6781 47.4555 29.6543 47.4555 29.6543C47.8118 29.5118 48.168 29.3693 48.5242 29.2269C48.5242 29.2031 48.5004 29.1556 48.5004 29.1319C44.0834 30.1293 39.5952 30.438 35.0119 30.6992C35.4869 30.7229 35.8906 30.7942 36.2705 30.7704C37.9566 30.7704 39.6427 30.7467 41.3287 30.7229C42.2074 30.6992 43.086 30.6517 43.9647 30.6042C44.2496 30.5805 44.5109 30.5805 44.7958 30.5567C45.1995 30.533 45.6032 30.4855 46.007 30.438C46.4344 30.3905 46.8619 30.3667 47.2656 30.3192C47.978 30.2243 48.6667 30.1293 49.3553 30.058L49.3791 30.0818L49.3553 30.058C49.3553 30.0343 49.3553 29.9868 49.3553 29.963C49.4741 29.963 49.5691 29.9868 49.6878 29.9868C49.2366 31.7678 48.2392 33.1214 46.8144 34.1901C46.7431 34.2376 46.6481 34.2851 46.5531 34.2851C45.0333 34.3563 43.5135 34.4038 41.9936 34.4513C38.6928 34.5463 35.3919 34.665 32.091 34.76C29.74 34.8312 27.3653 34.8787 25.0143 34.9262C23.067 34.9737 21.1434 34.9975 19.1962 35.045C18.7687 35.045 18.3413 35.045 17.9138 35.045C15.4441 35.045 12.9743 35.0687 10.4809 35.0687C9.7447 35.0687 8.98478 35.0687 8.24861 35.0687C8.12988 35.0687 8.03489 35.0687 7.91615 35.0687C7.41745 35.0687 6.91876 35.045 6.44381 35.045C6.39632 35.045 6.32508 35.045 6.27758 35.045C6.15884 35.045 6.04011 35.045 5.94512 35.045C5.89762 35.045 5.87387 35.045 5.82638 35.045C5.49392 35.0212 5.1852 34.9975 4.85274 34.9737C5.49392 34.8787 6.01636 34.5463 6.37257 34.0476C6.5863 33.7389 6.80002 33.5726 7.20373 33.5489C8.01114 33.5014 8.81855 33.3352 9.62596 33.2402C10.3146 33.1452 11.0271 33.0502 11.7157 32.9552C12.3332 32.884 12.9506 32.789 13.568 32.7177C14.0192 32.6702 14.4704 32.599 14.9454 32.5277C14.7079 32.0765 14.4229 31.8153 14.043 31.6966C13.7818 31.5779 13.5443 31.4591 13.2831 31.3641C12.3332 31.0317 11.3595 30.7229 10.4096 30.3667C10.1722 30.2717 9.91093 30.2005 9.86344 29.8443C9.83969 29.6543 9.72095 29.4881 9.67346 29.3219C9.62596 29.1319 9.48348 29.0369 9.2935 29.0131C8.7948 28.9656 8.27236 28.8944 7.77367 28.8469C7.74992 27.5645 7.74992 26.2822 7.70242 24.9998C7.70242 24.7149 7.63118 24.4536 7.60743 24.1687C7.72617 24.1449 7.84491 24.1212 7.96364 24.1212C8.65232 24.0737 9.36474 24.0499 10.0534 24.0262C9.55472 23.9074 9.07977 23.7887 8.58108 23.7175C8.20112 23.6462 7.79741 23.5987 7.41746 23.5512C7.4412 23.48 7.4887 23.385 7.46495 23.3138C7.34621 22.8388 7.25122 22.3639 7.10874 21.8889C6.61004 20.4166 5.89762 19.063 4.97147 17.8044C4.90023 17.7331 4.92398 17.6856 4.92398 17.6381ZM9.57847 26.2584C9.57847 26.2584 9.57847 26.2822 9.55472 26.2822C9.64971 26.3059 9.72095 26.3534 9.81594 26.3534C10.6471 26.4484 11.502 26.5672 12.3332 26.6384C13.0931 26.6859 13.853 26.6621 14.6129 26.7096C15.1354 26.7334 15.6578 26.7809 16.1565 26.8046C16.6077 26.8284 17.0826 26.8046 17.5338 26.8284C18.3175 26.8759 19.0774 26.9234 19.8611 26.9709C19.8373 26.8996 19.7898 26.8759 19.7423 26.8759C19.1249 26.8284 18.5075 26.8046 17.9138 26.7571C16.9164 26.6859 15.8953 26.5909 14.8979 26.5434C13.8767 26.4722 12.8319 26.4247 11.8107 26.3534C11.3595 26.3297 10.8846 26.2822 10.4334 26.2584C10.1484 26.2347 9.86344 26.2584 9.57847 26.2584Z" fill="#975325"/>
<path d="M7.70249 28.7996C8.20118 28.8708 8.72362 28.9183 9.22232 28.9658C9.4123 28.9895 9.55478 29.0608 9.60228 29.2745C9.64977 29.4645 9.76851 29.6307 9.79226 29.797C9.83975 30.1294 10.0772 30.2244 10.3384 30.3194C11.2883 30.6519 12.262 30.9843 13.2119 31.3168C13.4731 31.4118 13.7106 31.5305 13.9718 31.6493C13.7581 31.673 13.5206 31.6967 13.3069 31.6967C12.5232 31.7442 11.7633 31.768 10.9796 31.8155C9.91099 31.863 8.81861 31.8867 7.74998 31.9342C7.1088 31.958 6.49137 32.053 5.85019 32.0292C5.32775 32.0055 5.09027 32.2192 4.82905 32.6229C4.47284 33.1928 3.78417 33.2878 3.23798 32.8604C3.048 32.6941 2.85802 32.5042 2.71553 32.3142C2.40682 31.8392 2.12185 31.3405 1.81313 30.8418C1.43318 30.2244 1.02947 29.6307 0.720755 28.9895C0.507028 28.5858 0.364544 28.1109 0.697007 27.6597C0.815744 27.5172 0.934481 27.351 1.05322 27.2322C2.16935 26.1399 2.69179 24.7863 2.90551 23.2902C3.23798 23.1714 3.57044 23.0764 3.9029 22.9577C3.9029 22.934 3.9029 22.9102 3.87916 22.8865C3.71293 22.8865 3.54669 22.8865 3.38046 22.8865C3.23798 22.8627 3.09549 22.839 2.95301 22.8152C2.95301 22.2453 3.0005 21.6754 2.97676 21.1054C2.95301 20.583 2.81052 20.0605 2.76303 19.5381C2.71554 19.1344 2.85802 18.7544 3.16674 18.422C3.21423 18.4695 3.26172 18.5169 3.30922 18.5644C3.57044 18.9919 3.83166 19.4194 4.06914 19.8468C4.25912 20.4167 4.44909 20.9629 4.63907 21.5329C4.8053 22.0791 5.01903 22.6252 5.13777 23.1714C5.37524 24.2876 5.58897 25.3799 5.7552 26.4961C5.85019 27.0185 5.85019 27.5647 5.87394 28.0871C5.89768 28.4434 5.87394 28.8233 5.87394 29.1795C5.89768 29.1795 5.89768 29.1795 5.92143 29.1795C5.96893 29.0608 6.01642 28.9421 6.06392 28.8233C6.42013 28.8233 6.80009 28.8233 7.1563 28.8233C7.34627 28.8708 7.53625 28.8233 7.70249 28.7996Z" fill="#77411C"/>
<path d="M2.92921 23.2902C2.71548 24.81 2.19304 26.1636 1.07691 27.2322C0.93443 27.351 0.815693 27.5172 0.720704 27.6597C0.411988 28.1109 0.554472 28.5621 0.744451 28.9895C1.07691 29.6307 1.48062 30.2244 1.83683 30.8418C2.14555 31.3405 2.40677 31.8392 2.73923 32.3142C2.88172 32.5279 3.07169 32.7179 3.26167 32.8604C3.78412 33.2878 4.49654 33.2166 4.85275 32.6229C5.11397 32.2192 5.35144 32.0055 5.87389 32.0292C6.51507 32.0529 7.1325 31.958 7.77368 31.9342C8.84231 31.8867 9.93469 31.863 11.0033 31.8155C11.787 31.7917 12.5469 31.7442 13.3306 31.6967C13.568 31.6967 13.7818 31.673 13.9955 31.6492C14.3755 31.768 14.6367 32.0292 14.8979 32.4804C14.4229 32.5516 13.9717 32.5991 13.5205 32.6704C12.9031 32.7416 12.2857 32.8366 11.6682 32.9079C10.9796 33.0028 10.2672 33.0978 9.57848 33.1928C8.77107 33.3116 7.96366 33.454 7.15625 33.5015C6.75254 33.5253 6.56256 33.6915 6.32509 34.0002C5.94513 34.4989 5.44643 34.8314 4.80525 34.9264C4.56778 34.9264 4.30656 34.9026 4.06909 34.9026C4.04534 34.8789 4.04534 34.8551 4.02159 34.8314C4.02159 34.8314 4.04534 34.8314 4.04534 34.8076V34.7839C3.83161 34.6652 3.61788 34.5227 3.40416 34.4039C2.64424 33.6915 2.00306 32.8841 1.52811 31.958C1.29064 31.5068 1.10066 31.0081 0.886935 30.5331C0.696956 30.0582 0.554472 29.5832 0.340745 29.132C-0.0629601 28.2296 -0.134202 27.3035 0.269503 26.3773C0.720704 25.2849 1.2194 24.2163 1.52811 23.0764C1.97932 23.2902 2.45426 23.3614 2.92921 23.2902Z" fill="#CB8132"/>
<path d="M4.06898 19.8706C3.80776 19.4431 3.57028 18.9919 3.30906 18.5645C3.28532 18.517 3.23782 18.4932 3.16658 18.422C2.85786 18.7307 2.73913 19.1344 2.76287 19.5381C2.81037 20.0606 2.95285 20.583 2.9766 21.1054C3.00035 21.6754 2.9766 22.2453 2.95285 22.8153C2.57289 22.649 2.16919 22.5065 1.78923 22.3166C1.74174 22.2928 1.69424 22.1503 1.69424 22.0791C1.86047 20.8917 1.97921 19.7043 2.14544 18.4932C2.19294 18.0658 2.33542 17.6146 2.50165 17.2109C2.73913 16.6172 3.19033 16.451 3.73652 16.7597C4.04523 16.9259 4.30645 17.1871 4.59142 17.4009C4.71016 17.4958 4.80515 17.5671 4.92388 17.6621C4.92388 17.7096 4.90014 17.7571 4.92388 17.7808C5.82629 19.0394 6.53871 20.4168 7.06115 21.8654C7.22738 22.3166 7.32237 22.8153 7.41736 23.2902C7.44111 23.3614 7.39361 23.4564 7.36987 23.5277C6.82368 23.6702 6.27749 23.8364 5.7313 23.9789C5.61256 23.5514 5.49382 23.1002 5.35134 22.6728C5.13761 22.1028 4.92388 21.5092 4.68641 20.963C4.49643 20.5593 4.28271 20.2268 4.06898 19.8706Z" fill="#CB8031"/>
<path d="M49.3317 30.0584C48.643 30.1534 47.9306 30.2484 47.242 30.3196C46.8145 30.3671 46.387 30.4146 45.9833 30.4383C45.5796 30.4858 45.1759 30.5096 44.7722 30.5571C44.4873 30.5808 44.226 30.6046 43.9411 30.6046C43.0624 30.6521 42.1838 30.6996 41.3051 30.7233C39.619 30.7471 37.933 30.7708 36.2469 30.7708C35.8432 30.7708 35.4633 30.7233 34.9883 30.6996C39.5715 30.4383 44.0598 30.1296 48.4768 29.1322C48.4768 29.156 48.5006 29.2035 48.5006 29.2272C48.1444 29.3697 47.7881 29.5122 47.4319 29.6547C47.4319 29.6784 47.4319 29.7022 47.4319 29.7022C47.5032 29.7022 47.5744 29.7259 47.6457 29.7259C47.9069 29.7497 48.1444 29.7972 48.4056 29.8209C48.738 29.8684 49.0468 29.9159 49.3792 29.9634C49.3317 30.0109 49.3317 30.0346 49.3317 30.0584Z" fill="#77411C"/>
<path d="M40.7113 19.752C39.6901 20.5832 38.7165 21.4618 37.5054 22.008C37.1729 22.1505 36.8167 22.2217 36.4605 22.3167C36.4605 22.293 36.4367 22.2692 36.4367 22.2217C36.8404 21.9605 37.2441 21.7468 37.6241 21.4618C38.2178 21.0106 38.7877 20.5594 39.3339 20.0845C40.4263 19.1346 41.4949 18.1372 42.5873 17.1873C42.9198 16.9023 43.3235 16.7123 43.7034 16.4749C43.6559 16.4511 43.6084 16.4274 43.5847 16.4036C43.6559 16.3799 43.7272 16.3324 43.7984 16.3086C43.8459 16.3324 43.9172 16.4036 43.9647 16.3799C44.2021 16.2849 44.4159 16.1661 44.6533 16.0949C44.7246 16.0711 44.8196 16.0949 44.9145 16.0949C44.6533 16.2849 44.4396 16.5461 44.1546 16.6648C43.4422 16.9498 42.9435 17.4722 42.4686 18.0184C41.8986 18.6121 41.3049 19.1583 40.7113 19.752Z" fill="#77411C"/>
<path d="M48.7617 23.6457C48.7617 23.6932 48.7617 23.7407 48.7379 23.7407C48.5005 23.7882 48.263 23.8119 48.0493 23.8357C47.5981 23.8832 47.1231 23.9307 46.6719 23.9544C45.5795 23.9782 44.4872 23.9782 43.3948 24.0019C43.2998 24.0019 43.2286 24.0257 43.1336 24.0257C41.6612 24.0257 40.1889 24.0257 38.7165 24.0257C38.7165 23.9782 38.7165 23.9544 38.6928 23.9069C38.764 23.8832 38.859 23.8594 38.9303 23.8594C39.9039 23.7882 40.8776 23.6932 41.8275 23.622C42.4686 23.5745 43.1098 23.5507 43.751 23.5032C44.5347 23.432 45.3183 23.3607 46.1257 23.2895C46.6957 23.242 47.2656 23.1945 47.8118 23.1708C48.0968 23.147 48.358 23.147 48.643 23.147C48.2392 23.2658 47.8355 23.4082 47.4081 23.527C47.4081 23.5507 47.4081 23.5982 47.4081 23.622C47.9068 23.6457 48.3342 23.6457 48.7617 23.6457Z" fill="#77411C"/>
<path d="M42.7061 14.0997C42.5399 14.6459 42.3499 15.1921 42.1837 15.7383C41.9937 16.3795 41.7325 16.9731 41.2813 17.4006C40.925 17.7568 40.4976 18.0655 40.0226 18.2555C39.239 18.5642 38.3841 18.7542 37.5767 19.0154C36.888 19.2529 36.1993 19.5379 35.5344 19.8228C35.3444 19.8941 35.2257 20.1078 35.0594 20.2503C34.9882 20.2503 34.917 20.2503 34.8695 20.2265C34.822 20.2265 34.7982 20.179 34.7745 20.1553C34.822 20.0603 34.8932 19.9416 34.9407 19.8466C35.0594 19.8228 35.2257 19.9178 35.2257 19.6803C35.2494 19.6566 35.2494 19.6566 35.2732 19.6566C35.2969 19.6328 35.3207 19.6091 35.3444 19.5854C35.3919 19.5616 35.4632 19.5141 35.5106 19.4904C35.5344 19.4666 35.5581 19.4666 35.5819 19.4429C35.5819 19.4191 35.5819 19.4191 35.5819 19.3954C35.8906 19.2766 36.2231 19.1816 36.5318 19.0629C36.5793 19.0629 36.603 19.0392 36.6505 19.0392C36.7218 19.0154 36.8168 18.9679 36.888 18.9442C37.3154 18.7779 37.7192 18.588 38.1466 18.4217C38.8828 18.113 39.6189 17.7806 40.3551 17.4718C40.4264 17.4481 40.4976 17.4243 40.5688 17.4006C41.3288 17.1631 41.685 16.6644 41.7325 15.8808C41.7562 15.4296 41.8274 14.9784 41.9699 14.5509C42.0412 14.3372 42.2787 14.1709 42.4686 14.0047C42.5161 13.981 42.6349 14.0522 42.7061 14.0997Z" fill="#C98439"/>
<path d="M14.0429 19.0396C14.6604 19.0633 15.2541 19.1108 15.8715 19.1346C16.0615 19.4433 16.0615 19.752 15.919 20.0845C15.5865 20.2744 15.2541 20.227 14.9216 20.0845C14.8266 19.9657 14.7554 19.847 14.6604 19.7283C14.4466 19.4908 14.2567 19.2533 14.0429 19.0396Z" fill="#965325"/>
<path d="M15.919 20.0839C16.0615 19.7515 16.0615 19.4428 15.8715 19.134C16.2752 19.1578 16.6789 19.2053 17.0589 19.229C16.7977 19.4903 16.5364 19.7752 16.2515 20.0364C16.204 20.0839 16.1802 20.1077 16.1327 20.1552C16.0615 20.1314 15.9902 20.1077 15.919 20.0839Z" fill="#B07B58"/>
<path d="M2.92919 23.2905C2.45424 23.3617 1.97929 23.3142 1.55184 23.1005C1.55184 22.9817 1.55184 22.863 1.57559 22.7443C1.90805 22.8393 2.24051 22.958 2.57298 23.0055C2.8342 23.053 3.09542 23.0055 3.35664 22.9817C3.38039 22.9817 3.40413 22.9105 3.42788 22.8868C3.59411 22.8868 3.76034 22.8868 3.92658 22.8868C3.92658 22.9105 3.92658 22.9342 3.95032 22.958C3.59411 23.0767 3.26165 23.1717 2.92919 23.2905Z" fill="#965325"/>
<path d="M14.043 19.0396C14.2567 19.2771 14.4704 19.4908 14.6604 19.7283C14.7554 19.847 14.8266 19.9657 14.9216 20.0845C14.8504 20.0845 14.7554 20.0845 14.6842 20.1082C14.6604 20.1082 14.6604 20.1082 14.6367 20.1082C14.3754 19.8232 14.0905 19.5383 13.8293 19.2533C13.758 19.1821 13.7343 19.1108 13.663 19.0396C13.7818 19.0396 13.9005 19.0396 14.043 19.0396Z" fill="#B07B58"/>
<path d="M44.8908 16.0713C44.7958 16.0713 44.7008 16.0475 44.6296 16.0713C44.3921 16.1663 44.1784 16.285 43.9409 16.3563C43.8934 16.38 43.8459 16.3088 43.7747 16.285C44.1309 16.0001 44.4871 15.7151 45.0095 15.5726C44.962 15.7388 44.9383 15.8576 44.9146 15.9526C44.9146 16.0238 44.9146 16.0475 44.8908 16.0713Z" fill="#975325"/>
<path d="M48.3579 29.8437C48.0967 29.82 47.8592 29.7725 47.598 29.7487C47.8592 29.6775 48.0967 29.6062 48.3579 29.535C48.3579 29.63 48.3579 29.725 48.3579 29.8437Z" fill="#E8E8E8"/>
<path d="M30.5712 19.7275C30.1438 19.7038 29.7401 19.7038 29.3126 19.68Z" fill="#EAEAEA"/>
<path d="M48.453 29.488C48.643 29.4168 48.833 29.3456 49.0467 29.2506C48.8805 29.4643 48.6905 29.5118 48.453 29.488Z" fill="#E8E8E8"/>
<path d="M36.9117 18.968C36.8405 18.9917 36.7455 19.0392 36.6742 19.0629C36.7455 19.0155 36.8405 18.9917 36.9117 18.968Z" fill="#EAEAEA"/>
<path d="M44.8908 16.0705C44.9146 16.0467 44.9383 16.023 44.9383 15.9992C44.9146 16.023 44.9146 16.0467 44.8908 16.0705Z" fill="#77411C"/>
<path d="M49.0467 23.6937C49.0467 23.6699 49.0229 23.6462 49.0229 23.6224C49.0467 23.6462 49.0467 23.6699 49.0467 23.6937Z" fill="#77411C"/>
<path d="M38.4316 16.9489L38.4554 16.9251C38.4554 16.9489 38.4554 16.9489 38.4316 16.9489Z" fill="#EAEAEA"/>
<path d="M7.70233 28.7998C7.51236 28.8236 7.34612 28.8473 7.15614 28.8473C6.79993 28.8473 6.41998 28.8473 6.06376 28.8473C6.06376 28.6573 6.08751 28.4911 6.08751 28.3011C6.08751 27.5887 6.11126 26.9 6.08751 26.1876C6.06376 25.6414 5.96877 25.119 5.92128 24.5728C6.04002 24.549 6.15875 24.5016 6.27749 24.4778C6.70494 24.3591 7.1324 24.2166 7.5836 24.0978C7.63109 24.3828 7.67859 24.644 7.67859 24.929C7.67859 26.2589 7.70233 27.5412 7.70233 28.7998Z" fill="#CB8031"/>
<path d="M16.1565 20.2022C17.2489 20.2734 18.3175 20.3446 19.4099 20.4396C19.6949 20.4634 19.9798 20.4871 20.2648 20.4871C21.2622 20.5584 22.2833 20.6059 23.2807 20.6534C24.4443 20.7246 25.608 20.7958 26.7478 20.8908C27.9827 20.9858 29.1938 21.0808 30.4287 21.1758C31.3786 21.247 32.3047 21.342 33.2309 21.4608C32.8509 21.437 32.471 21.4133 32.0673 21.3895C31.6161 21.3658 31.1886 21.3183 30.7374 21.2945C29.93 21.247 29.1226 21.2233 28.3389 21.1758C27.4128 21.1046 26.4866 21.0333 25.5842 20.9621C25.4655 20.9621 25.3467 20.9621 25.2043 20.9621C24.6106 20.9383 23.9931 20.9146 23.3995 20.8671C23.1145 20.8433 22.8295 20.7958 22.5446 20.7721C21.6896 20.7246 20.8347 20.6771 19.9561 20.6534C18.935 20.6059 17.8901 20.5821 16.8689 20.5346C16.9639 20.5109 17.0589 20.4871 17.1539 20.4871C17.4864 20.4871 17.8188 20.4871 18.1513 20.4871C18.1513 20.4634 18.1513 20.4634 18.1513 20.4396C17.4626 20.3921 16.7739 20.3446 16.109 20.2972C16.1565 20.2734 16.1565 20.2497 16.1565 20.2022Z" fill="#C17A39"/>
<path d="M7.53619 24.1205C7.10874 24.2392 6.68129 24.3817 6.23009 24.5005C6.11135 24.5242 5.99261 24.5717 5.87388 24.5954C5.82638 24.3817 5.75514 24.168 5.70764 23.9543C6.25383 23.8118 6.80002 23.6455 7.34621 23.5031C7.72617 23.5506 8.12988 23.5981 8.50983 23.6693C9.00853 23.7405 9.50722 23.8593 9.98217 23.978C9.2935 24.0018 8.58108 24.0493 7.8924 24.073C7.77367 24.0967 7.67868 24.1205 7.53619 24.1205Z" fill="#77411C"/>
<path d="M9.57851 26.2581C9.86348 26.2581 10.1485 26.2344 10.4334 26.2581C10.8846 26.2819 11.3596 26.3294 11.8108 26.3531C12.8319 26.4244 13.8768 26.4719 14.8979 26.5431C15.8953 26.6143 16.9165 26.6856 17.9138 26.7568C18.5313 26.8043 19.1487 26.8281 19.7424 26.8756C19.7899 26.8756 19.8136 26.8993 19.8611 26.9706C19.0775 26.9231 18.3176 26.8756 17.5339 26.8281C17.0827 26.8043 16.6077 26.8281 16.1565 26.8043C15.6341 26.7806 15.1117 26.7093 14.613 26.7093C13.853 26.6856 13.0931 26.7093 12.3332 26.6381C11.5021 26.5669 10.6471 26.4481 9.81599 26.3531C9.721 26.3531 9.64976 26.3056 9.55477 26.2819C9.57851 26.2581 9.57851 26.2581 9.57851 26.2581ZM10.4097 26.3531C10.4097 26.3769 10.4097 26.4244 10.4097 26.4481C11.3833 26.5194 12.357 26.5669 13.3543 26.6381C13.3543 26.6143 13.3543 26.5906 13.3543 26.5669C12.357 26.4956 11.3833 26.4244 10.4097 26.3531Z" fill="#C17A39"/>
<path d="M16.1566 20.2026C16.1566 20.2501 16.1566 20.2738 16.1566 20.3213C16.0853 20.345 16.0141 20.3688 15.9428 20.3688C15.9191 20.4163 15.8954 20.44 15.8716 20.4875C15.4916 20.725 15.3492 20.7013 15.0167 20.4638C14.9692 20.4163 14.898 20.3925 14.8505 20.3688C14.8505 20.345 14.8505 20.3213 14.8505 20.3213C14.803 20.2738 14.7317 20.2501 14.6842 20.2026C14.6842 20.1788 14.6842 20.1313 14.6842 20.1076C14.7555 20.1076 14.8505 20.1076 14.9217 20.0838C15.2542 20.2263 15.5866 20.2738 15.9191 20.0838C15.9903 20.1076 16.0853 20.1313 16.1566 20.1551C16.1566 20.1788 16.1566 20.1788 16.1566 20.2026Z" fill="#BE8857"/>
<path d="M14.6604 20.0841C14.6604 20.1079 14.6604 20.1553 14.6604 20.1791C14.5654 20.1791 14.4705 20.1791 14.3755 20.2028C14.3755 20.2266 14.3755 20.2266 14.3755 20.2503C14.518 20.2741 14.6842 20.2978 14.8267 20.3216C14.8267 20.3453 14.8267 20.3691 14.8267 20.3691C14.1855 20.3928 12.3094 20.1079 12.0007 19.9416C12.9031 19.9891 13.758 20.0366 14.5892 20.0841C14.6367 20.0841 14.6367 20.0841 14.6604 20.0841ZM13.758 20.1791C13.9005 20.2028 14.043 20.2266 14.1855 20.2503C14.1855 20.2266 14.1855 20.2028 14.1855 20.1791C14.043 20.1791 13.9005 20.1791 13.758 20.1791Z" fill="#C17A39"/>
<path d="M34.7744 20.1793C34.7981 20.2031 34.8456 20.2268 34.8694 20.2506C34.9406 20.2743 34.9881 20.2743 35.0594 20.2743C34.7506 20.583 34.4657 20.9155 34.157 21.2242C33.9907 21.3667 33.8245 21.2955 33.7533 21.0817C33.9195 21.1055 34.157 21.3429 34.2045 20.963C34.2519 20.583 34.5132 20.3693 34.7744 20.1793Z" fill="#B07B58"/>
<path d="M15.8715 20.4878C15.8952 20.4403 15.919 20.4165 15.9427 20.369C16.014 20.3453 16.0852 20.3215 16.1565 20.3215C16.8451 20.369 17.5338 20.4165 18.1987 20.464C18.1987 20.4878 18.1987 20.4878 18.1987 20.5115C17.8663 20.5115 17.5338 20.5115 17.2014 20.5115C17.1064 20.5115 17.0114 20.5353 16.9164 20.559C16.5602 20.5353 16.204 20.5115 15.8715 20.4878Z" fill="#AC6728"/>
<path d="M33.0885 19.8233C33.136 19.8233 33.2073 19.8233 33.2548 19.8233C33.3498 20.132 33.2548 20.4882 33.4685 20.7732C33.3735 20.6544 33.2548 20.5357 33.1835 20.417C33.136 20.227 33.1123 20.0133 33.0885 19.8233Z" fill="#B07B58"/>
<path d="M33.7534 21.058C33.6584 20.9631 33.5634 20.8681 33.4684 20.7731C33.5634 20.8681 33.6584 20.9631 33.7534 21.058Z" fill="#B07B58"/>
<path d="M16.1565 20.1548C16.204 20.1073 16.2278 20.0836 16.2753 20.0361C16.2278 20.0836 16.1803 20.1073 16.1565 20.1548Z" fill="#BE8857"/>
<path d="M5.73142 23.9547C5.77891 24.1684 5.85015 24.3821 5.89765 24.5959C5.96889 25.142 6.04013 25.6645 6.06388 26.2107C6.08763 26.9231 6.06388 27.6118 6.06388 28.3242C6.06388 28.5142 6.06388 28.6804 6.04013 28.8704C5.99264 28.9891 5.94514 29.1079 5.89765 29.2266C5.8739 29.2266 5.8739 29.2266 5.85015 29.2266C5.85015 28.8704 5.8739 28.4904 5.85015 28.1342C5.82641 27.6118 5.82641 27.0656 5.73142 26.5431C5.54144 25.427 5.35146 24.3109 5.11399 23.2185C4.99525 22.6486 4.78152 22.1261 4.61529 21.5799C4.42531 21.01 4.23533 20.4638 4.04535 19.8939C4.25908 20.2501 4.47281 20.6063 4.63904 20.9625C4.87651 21.5324 5.11399 22.1024 5.30396 22.6723C5.49394 23.076 5.58893 23.5272 5.73142 23.9547Z" fill="#975324"/>
<path d="M33.7533 21.0581C33.6583 20.9632 33.5633 20.8682 33.4683 20.7732C33.2546 20.4882 33.3496 20.132 33.2546 19.8233C33.3496 19.8233 33.4446 19.8233 33.5396 19.8233C33.6821 19.8708 33.7533 19.9183 33.7771 20.0845C33.8008 20.2032 33.967 20.3457 34.0858 20.3695C34.442 20.4407 34.5132 20.1557 34.5845 19.8708C34.7032 19.8708 34.8219 19.8708 34.9407 19.8708C34.8932 19.9658 34.8219 20.0845 34.7745 20.1795C34.4895 20.3695 34.252 20.5595 34.2045 20.9394C34.157 21.3194 33.9195 21.0819 33.7533 21.0581Z" fill="#965325"/>
<path d="M34.9644 19.8701C34.8457 19.8701 34.7269 19.8701 34.6082 19.8701C34.5369 20.1551 34.4657 20.4401 34.1095 20.3688C33.9908 20.3451 33.8008 20.2026 33.8008 20.0839C33.777 19.8939 33.682 19.8464 33.5633 19.8227C33.7058 19.8227 33.8245 19.8227 33.967 19.7989C34.1095 19.7989 34.2757 19.7989 34.4182 19.7989C34.4657 19.7989 34.5369 19.7989 34.5844 19.7989C34.6794 19.7989 34.7744 19.7989 34.8694 19.7989C35.0119 19.7752 35.1306 19.7277 35.2731 19.7039C35.2494 19.9414 35.0594 19.8464 34.9644 19.8701Z" fill="#B07B58"/>
<path d="M35.2968 19.6807C35.3205 19.6569 35.3443 19.6332 35.368 19.6095C35.3205 19.6332 35.3205 19.6569 35.2968 19.6807Z" fill="#B07B58"/>
<path d="M35.5106 19.5137C35.5344 19.49 35.5581 19.49 35.5819 19.4662C35.5581 19.49 35.5344 19.5137 35.5106 19.5137Z" fill="#B07B58"/>
<path d="M10.4097 26.3535C11.3833 26.4247 12.3807 26.4959 13.3544 26.5672C13.3544 26.5909 13.3544 26.6147 13.3544 26.6384C12.3807 26.5672 11.4071 26.5197 10.4097 26.4485C10.4097 26.401 10.4097 26.3772 10.4097 26.3535Z" fill="#975425"/>
<path d="M14.8267 20.3218C14.6842 20.2981 14.518 20.2743 14.3755 20.2506C14.3755 20.2268 14.3755 20.2268 14.3755 20.2031C14.4705 20.2031 14.5655 20.2031 14.6605 20.1793C14.7317 20.2506 14.7792 20.2743 14.8267 20.3218Z" fill="#AC6728"/>
<path d="M16.1565 20.3215C16.0852 20.3453 16.014 20.369 15.9427 20.369C15.9902 20.3453 16.0852 20.3453 16.1565 20.3215Z" fill="#975325"/>
<path d="M13.7579 20.1793C13.9004 20.1793 14.0429 20.1793 14.1854 20.1793C14.1854 20.2031 14.1854 20.2268 14.1854 20.2506C14.0429 20.2268 13.9004 20.2031 13.7579 20.1793Z" fill="#AC6728"/>
</svg>
