<svg width="50" height="50" viewBox="0 0 50 50" fill="none" xmlns="http://www.w3.org/2000/svg">
<g clip-path="url(#clip0)">
<path d="M11.9173 36.6658C11.736 36.2204 11.5546 35.775 11.3733 35.3295C11.3413 35.2447 11.3093 35.1599 11.2666 35.0644C10.9146 34.5236 11.2133 34.0039 11.3413 33.4843C11.4373 33.1979 11.544 32.9222 11.64 32.6358C11.9066 31.8511 12.184 31.0769 12.4506 30.2921C12.536 30.0164 12.632 29.73 12.7173 29.4543C12.76 29.3801 12.8026 29.3164 12.8453 29.2422C13.048 29.2104 13.2613 29.168 13.464 29.1362C13.6773 29.4543 13.88 29.7831 14.104 30.1012C14.1786 30.2073 14.296 30.2815 14.4133 30.3451C15.1066 30.7481 15.6293 31.395 16.3866 31.692C16.4186 31.7026 16.4186 31.7556 16.4506 31.7768C17.0586 32.095 17.6666 32.4237 18.2746 32.7419C18.296 32.7525 18.3386 32.7313 18.3813 32.7313C18.552 32.7313 18.7333 32.7101 18.8933 32.7525C19.48 32.9116 20.0346 33.1131 20.6746 33.1555C21.4 33.1979 22.1146 33.3252 22.8506 33.2722C22.8506 33.3464 22.8506 33.4206 22.8506 33.4843C22.8506 33.7282 22.8506 33.9721 22.8506 34.2266C22.8186 34.9372 22.776 35.6477 22.744 36.3582C22.744 36.4219 22.744 36.4855 22.744 36.5491C22.136 36.7824 21.5066 36.9839 20.92 37.2597C19.0853 38.1505 17.1866 38.7232 15.1386 38.7974C14.4666 38.8186 13.7946 39.0095 13.1333 39.1156C12.9626 38.8929 12.792 38.6702 12.6213 38.4474C12.5786 38.3414 12.536 38.2353 12.4933 38.1399C12.344 37.7475 12.1946 37.3657 12.0453 36.9733C12.0133 36.8885 11.9706 36.7718 11.9173 36.6658Z" fill="#353535"/>
<path d="M39 26.9198C38.9147 27.0895 38.8613 27.2804 38.744 27.4289C37.784 28.7333 36.8133 30.0377 35.8533 31.3422C35.7147 31.5225 35.608 31.724 35.4907 31.9255C35.2667 32.3391 35.0427 32.7633 34.808 33.1769C34.1467 34.354 33.4853 35.5206 32.824 36.6978C32.6533 36.9099 32.4933 37.1326 32.3227 37.3447C32.1947 37.3447 32.0773 37.3129 31.9493 37.3341C30.7333 37.4931 29.5067 37.6734 28.2907 37.8325C28.2907 36.1039 28.2907 34.3752 28.2907 32.6466C28.2907 32.2542 28.3013 31.8724 28.3013 31.48C28.536 31.2998 28.7493 31.1089 28.9947 30.9498C29.6027 30.568 30.2213 30.1968 30.8293 29.815C30.8613 29.8681 30.904 29.9211 30.936 29.9635C30.6587 30.3983 30.3813 30.8331 30.104 31.2785C30.1467 31.3104 30.1893 31.3422 30.232 31.374C30.3707 31.2467 30.5093 31.1195 30.648 30.9922C31.5973 30.1226 32.5573 29.2742 33.4853 28.3834C34.712 27.1956 35.9067 25.976 37.1333 24.7776C37.5387 24.3746 37.9867 24.014 38.424 23.6323C38.4987 23.9504 38.5733 24.2686 38.648 24.5867C38.68 24.767 38.7013 24.9473 38.7333 25.1276C38.808 25.5836 38.8827 26.0502 38.9573 26.5062C38.968 26.6335 38.9893 26.782 39 26.9198Z" fill="#222222"/>
<path d="M28.3013 37.8325C29.5173 37.6628 30.744 37.4931 31.96 37.3341C32.0773 37.3129 32.2053 37.3447 32.3333 37.3447C32.2053 37.4189 32.0773 37.5037 31.9493 37.578C30.9146 38.087 29.88 38.6067 28.8453 39.1157C28.4933 39.2854 28.1413 39.4551 27.7786 39.6248C26.744 40.1338 25.72 40.6323 24.6853 41.1413C24.3333 41.311 23.9706 41.4913 23.6186 41.661C23.0426 41.9791 22.456 42.1488 21.8053 41.8625C21.6986 41.8306 21.592 41.7988 21.4853 41.767C21.0586 41.6291 20.632 41.5019 20.2053 41.364C20.0666 41.3216 19.9173 41.2792 19.7786 41.2367C19.3946 41.1095 19.0106 40.9822 18.616 40.8656C18.4666 40.8232 18.3173 40.7807 18.168 40.7277C17.7413 40.6004 17.3253 40.4732 16.8986 40.3353C16.792 40.3035 16.6853 40.2823 16.5786 40.2505C16.152 40.1232 15.7146 39.996 15.288 39.8687C15.1493 39.8263 15.0106 39.7839 14.872 39.7308C14.5306 39.6248 14.1786 39.5187 13.8373 39.4233C13.7093 39.3809 13.5813 39.3384 13.4533 39.296C13.3466 39.243 13.24 39.19 13.1333 39.1369C13.8053 39.0203 14.4666 38.84 15.1386 38.8188C17.1866 38.7445 19.096 38.1719 20.92 37.281C21.5066 36.9947 22.136 36.8038 22.744 36.5705C24.6106 36.9841 26.456 37.4083 28.3013 37.8325Z" fill="#0D0D0D"/>
<path d="M28.312 31.4802C28.312 31.8726 28.3013 32.2544 28.3013 32.6468C27.6613 32.8376 27.0213 33.0497 26.3813 33.2194C26.2213 33.2619 26.0293 33.1876 25.848 33.1664C26.4667 31.8726 27.0853 30.5788 27.704 29.2849C27.8427 28.9986 27.9707 28.7335 27.6613 28.4895C28.1627 28.2668 28.2907 27.8532 28.1947 27.3548C28.6213 27.0897 29.0373 26.7927 29.4747 26.5594C31.736 25.3398 33.592 23.6536 35.1173 21.628C35.8107 20.7054 36.4187 19.7085 37.0587 18.7434C37.208 18.9555 37.3467 19.1783 37.496 19.3904C37.5493 19.4964 37.6027 19.6131 37.656 19.7191C37.752 19.9948 37.848 20.26 37.9333 20.5357C37.8373 20.6312 37.7307 20.7266 37.656 20.8433C36.1733 23.134 34.68 25.4247 33.2187 27.726C33.0267 28.0229 32.824 28.1078 32.4827 28.1078C31.2453 28.0866 29.9973 28.1078 28.76 28.0972C28.4187 28.0972 28.2907 28.1926 28.3013 28.5426C28.3227 29.5076 28.312 30.4939 28.312 31.4802Z" fill="#434343"/>
<path d="M28.312 31.4798C28.312 30.4936 28.3226 29.5073 28.3013 28.5316C28.2906 28.1817 28.4186 28.0756 28.76 28.0862C29.9973 28.1074 31.2453 28.0862 32.4826 28.0968C32.824 28.0968 33.0266 28.012 33.2186 27.715C34.6906 25.4137 36.1733 23.123 37.656 20.8323C37.7306 20.7157 37.8373 20.6308 37.9333 20.5248C37.9653 20.6414 37.9973 20.7475 38.0186 20.8641C38.0506 21.0444 38.0826 21.2141 38.1253 21.3944C38.2 21.8504 38.264 22.317 38.3386 22.773C38.3706 22.9109 38.4026 23.0594 38.424 23.1973C38.424 23.3351 38.424 23.4836 38.4133 23.6215C37.9866 24.0032 37.5386 24.3638 37.1226 24.7668C35.9066 25.9652 34.712 27.1848 33.4746 28.3725C32.5466 29.2634 31.5866 30.1118 30.6373 30.9814C30.4986 31.1087 30.36 31.2359 30.2213 31.3632C30.1786 31.3314 30.136 31.2996 30.0933 31.2677C30.3706 30.8329 30.648 30.3981 30.9253 29.9527C30.8933 29.8997 30.8506 29.8467 30.8186 29.8042C30.2106 30.1754 29.592 30.5466 28.984 30.939C28.76 31.0981 28.5466 31.2996 28.312 31.4798Z" fill="#252525"/>
<path d="M11 18.4251C11.3413 17.5767 11.672 16.7282 12.0133 15.8798C12.1413 15.5617 12.2693 15.2435 12.3973 14.9254C12.504 14.7133 12.6213 14.5012 12.728 14.2891C13.016 14.183 13.304 14.077 13.5813 13.9709C13.4427 14.9678 13.2933 15.9541 13.176 16.9509C13.1333 17.2797 13.1867 17.6191 13.1973 17.9478C13.208 18.2448 13.208 18.5523 13.2507 18.8493C13.3573 19.7719 13.4853 20.6946 13.6027 21.6172C13.6133 21.6596 13.6773 21.702 13.688 21.7445C13.7627 21.9672 13.8267 22.2005 13.912 22.4126C14.2107 23.1762 14.5093 23.9397 14.808 24.7033C14.8293 24.7457 14.904 24.7563 14.936 24.7987C15.0533 24.9472 15.192 25.0851 15.256 25.2441C15.3627 25.4987 16.4293 26.9304 16.6853 27.1C16.472 27.5561 16.2587 28.0227 16.0453 28.4787C15.864 28.5105 15.6933 28.5423 15.512 28.5848C15.288 28.1606 15.1387 27.6621 14.808 27.344C14.1147 26.6652 13.6987 25.838 13.272 24.9896C13.176 24.8093 12.9413 24.6927 12.7707 24.5548C12.76 24.2367 12.7387 23.9185 12.728 23.6004C12.728 23.4201 12.728 23.2398 12.7173 23.0701C12.7493 22.5823 12.7813 22.0944 12.4187 21.6914C12.3547 21.5324 12.2907 21.3839 12.2267 21.2248C12.056 20.8536 11.8853 20.4718 11.7147 20.1007C11.6827 20.0264 11.64 19.9522 11.608 19.878C11.448 19.528 11.288 19.178 11.128 18.8281C11.0853 18.7114 11.0427 18.5735 11 18.4251Z" fill="#4C4C4C"/>
<path d="M29.368 9.21949C29.656 9.32554 29.944 9.43159 30.232 9.53764C30.0614 9.85579 29.88 10.1846 29.7094 10.5027C29.912 10.5133 30.0294 10.4391 30.1574 10.3967C30.36 10.333 30.7014 10.1952 30.744 10.2588C30.872 10.4603 30.968 10.736 30.9467 10.9693C30.936 11.1496 30.7334 11.3193 30.648 11.4996C30.4987 11.8177 30.3707 12.1571 30.232 12.4859C29.944 12.6661 29.6667 12.8464 29.3787 13.0161C29.464 12.8464 29.5494 12.6874 29.6134 12.5177C29.72 12.2844 29.88 12.0511 29.8907 11.8071C29.912 11.2663 29.624 11.1284 29.1547 11.3935C29.048 11.4572 28.9307 11.489 28.6747 11.595C28.7814 11.3511 28.8454 11.2451 28.8667 11.139C28.9094 10.9163 29.048 10.6088 28.952 10.4921C28.8347 10.3436 28.5147 10.2694 28.2907 10.3012C28.088 10.333 27.9174 10.5345 27.7254 10.6724C27.5227 10.8209 27.3307 10.9693 27.1387 11.1178C27.0747 10.9481 27.1067 10.8739 27.128 10.789C27.1814 10.5982 27.2347 10.4073 27.288 10.2164C27.0747 10.2376 26.84 10.2058 26.648 10.28C25.7414 10.6406 25.1334 11.3723 24.5254 12.0829C24.184 12.4859 24.024 13.0479 23.7894 13.5358C23.832 13.5676 23.8747 13.61 23.928 13.6418C24.152 13.5782 24.3867 13.504 24.6107 13.4403C24.6427 13.4721 24.664 13.5146 24.696 13.5464C24.536 13.7479 24.3654 13.9282 24.2267 14.1403C24.0454 14.416 23.832 14.6917 23.7467 14.9993C23.6934 15.2008 23.7894 15.4765 23.9067 15.678C23.928 15.7204 24.2694 15.6038 24.4614 15.572C24.5254 15.5613 24.5894 15.5932 24.7494 15.6144C24.472 16.0386 24.1307 16.4204 24.3654 16.9188C23.7254 16.9188 23.0854 16.9188 22.4454 16.9294C22.4134 16.9294 22.3707 16.9294 22.3387 16.9294C22.1574 16.2295 22.6587 15.7416 22.936 15.1584C22.7654 15.169 22.648 15.2326 22.5307 15.2856C22.264 15.3917 22.104 15.3174 22.136 15.0099C22.2 14.3948 22.3707 13.8221 22.8507 13.3767C23.1067 13.1434 23.2987 12.8464 23.5227 12.5707C23.4907 12.5389 23.4587 12.5071 23.4267 12.4647C23.2347 12.5283 23.032 12.5919 22.7014 12.698C22.8187 12.4222 22.872 12.2632 22.936 12.1147C23.5974 10.683 24.632 9.59067 26.0187 8.81649C26.1787 8.72105 26.2747 8.51955 26.4027 8.37108C26.68 8.43471 26.9574 8.49834 27.2347 8.55136C27.416 8.615 27.5974 8.66802 27.7787 8.73165C28.1734 8.8377 28.5574 8.94375 28.952 9.0498C29.0907 9.13465 29.2294 9.17707 29.368 9.21949Z" fill="#7D7D7D"/>
<path d="M34.9894 13.8863C35.1494 14.2363 35.3094 14.5863 35.4694 14.9256C35.5334 15.0635 35.608 15.212 35.672 15.3498C35.6614 15.3816 35.6614 15.4241 35.6507 15.4559C35.5654 15.5407 35.416 15.615 35.384 15.7104C35.256 16.1134 35.224 16.5482 35.064 16.9406C34.5734 18.1284 33.72 19.0722 32.856 20.0055C31.2667 21.7341 29.6774 23.4415 27.4267 24.3642C27.3307 24.1521 27.2347 23.9294 27.128 23.7173C27.096 23.5794 27.064 23.4415 27.032 23.3037C27 23.0916 26.9574 22.8795 26.9254 22.678C27.3307 22.5295 27.8 22.4553 28.1414 22.2219C29.528 21.2887 30.8294 20.2282 31.896 18.9238C32.472 18.2132 33.048 17.5027 33.5387 16.7391C33.9227 16.1452 34.232 15.5089 34.2 14.7347C34.1894 14.4166 34.5734 14.0878 34.7867 13.7697C34.8614 13.8015 34.9254 13.8439 34.9894 13.8863Z" fill="#4F4F4F"/>
<path d="M37.0587 18.7324C36.4187 19.6975 35.8107 20.6944 35.1173 21.617C33.5813 23.6532 31.7253 25.3288 29.4747 26.5484C29.0373 26.7817 28.6213 27.0787 28.1947 27.3438C28.12 27.2377 28.056 27.1211 27.9813 27.015C27.9067 26.5908 27.8427 26.1666 27.768 25.7424C28.024 25.6151 28.2693 25.4985 28.5253 25.3712C30.296 24.4804 31.7787 23.229 33.1227 21.7761C34.296 20.5035 35.3307 19.1672 36.056 17.5977C36.1093 17.4704 36.3653 17.4386 36.5253 17.3644C36.6533 17.5977 36.7813 17.8416 36.92 18.0749C36.9627 18.1598 37.0053 18.2446 37.0373 18.3188C37.0373 18.4673 37.048 18.5946 37.0587 18.7324Z" fill="#484848"/>
<path d="M36.5254 17.3642C36.3654 17.4385 36.1093 17.4703 36.056 17.5976C35.3307 19.1671 34.296 20.5034 33.1227 21.776C31.7787 23.2289 30.296 24.4803 28.5253 25.3711C28.2693 25.4984 28.024 25.6256 27.768 25.7423C27.704 25.6044 27.6293 25.4559 27.5653 25.3181C27.5227 24.9999 27.48 24.6818 27.4373 24.3636C29.6773 23.441 31.2773 21.7336 32.8667 20.0049C33.72 19.0717 34.584 18.1278 35.0747 16.94C35.2347 16.5477 35.2773 16.1128 35.3947 15.7098C35.4267 15.6038 35.5653 15.5402 35.6613 15.4553C35.8107 15.7735 35.96 16.0916 36.0987 16.4098C36.2054 16.5901 36.3013 16.781 36.408 16.9613C36.44 17.0991 36.4827 17.237 36.5254 17.3642Z" fill="#4B4B4B"/>
<path d="M26.4027 8.40318C26.2747 8.55165 26.1787 8.75315 26.0187 8.8486C24.632 9.62277 23.608 10.7151 22.936 12.1468C22.8613 12.2953 22.808 12.4543 22.7013 12.7301C23.032 12.624 23.224 12.5604 23.4267 12.4968C23.4587 12.5286 23.4907 12.5604 23.5227 12.6028C23.2987 12.8679 23.1067 13.1755 22.8507 13.4088C22.36 13.8542 22.1893 14.4163 22.136 15.042C22.104 15.3495 22.264 15.4238 22.5307 15.3177C22.648 15.2647 22.7653 15.2117 22.936 15.1905C22.6693 15.7737 22.168 16.2616 22.3387 16.9615C22.1893 16.9615 22.0507 16.9615 21.9013 16.9615C21.368 16.5373 20.8347 16.1131 20.312 15.6889C20.8987 15.6783 21.0267 15.2011 21.3253 14.7344C20.696 14.8405 20.664 14.4693 20.76 14.1618C20.92 13.6739 21.144 13.1967 21.4107 12.7619C21.6347 12.4013 21.9653 12.1044 22.3173 11.7014C22.04 11.7014 21.8907 11.7014 21.6773 11.7014C21.7413 11.4999 21.752 11.3196 21.8373 11.1923C22.2427 10.5772 22.68 9.98334 23.096 9.37885C23.3093 9.0713 23.512 8.75315 23.7253 8.435C23.8 8.38197 23.8747 8.33955 23.9493 8.28653C24.504 8.07442 25.0587 7.89414 25.656 8.14866C25.7627 8.19108 25.8693 8.2335 25.976 8.27592C26.104 8.30774 26.2533 8.35016 26.4027 8.40318Z" fill="#787878"/>
<path d="M34.7973 13.7589C34.5947 14.0771 34.2 14.4058 34.2107 14.724C34.2427 15.4982 33.9333 16.1345 33.5493 16.7284C33.0587 17.4919 32.4827 18.2131 31.9067 18.913C30.84 20.2175 29.5493 21.278 28.152 22.2112C27.8 22.4445 27.3413 22.5188 26.936 22.6672C26.8613 22.4233 26.7867 22.1688 26.712 21.9249C26.712 21.7446 26.712 21.5749 26.712 21.3946C27.1813 21.1189 27.6507 20.8432 28.12 20.578C28.2907 20.4826 28.472 20.4189 28.6533 20.3447C28.952 20.2175 29.3253 20.1644 29.5493 19.9523C30.168 19.4009 30.7653 18.8388 31.2773 18.1919C31.608 17.7783 31.7253 17.2162 31.992 16.7496C32.5893 15.6785 33.5707 14.8088 33.3147 13.3453C33.2293 12.8469 33.688 12.253 33.9013 11.7121C33.9973 11.8606 34.0827 12.0091 34.1787 12.1576C34.2533 12.3379 34.3173 12.5075 34.392 12.6878C34.5307 12.9742 34.6693 13.2605 34.8187 13.5468C34.808 13.6211 34.808 13.6953 34.7973 13.7589Z" fill="#535353"/>
<path d="M33.9013 11.7224C33.688 12.2739 33.2187 12.8678 33.3147 13.3556C33.5707 14.8085 32.5893 15.6887 31.992 16.7598C31.7253 17.2265 31.608 17.7885 31.2773 18.2021C30.7653 18.8384 30.1573 19.4111 29.5493 19.9626C29.3147 20.1641 28.952 20.2277 28.6533 20.355C28.472 20.4292 28.2907 20.4928 28.12 20.5883C27.6507 20.8534 27.1813 21.1291 26.712 21.4049C26.7867 21.1928 26.8507 20.9807 26.9253 20.7686C27.1067 20.4504 27.2987 20.1323 27.48 19.8141C27.6933 19.7505 27.928 19.7187 28.12 19.6126C29.5387 18.8596 30.5413 17.6931 31.3627 16.3568C31.5653 16.0175 31.672 15.6251 31.8 15.2433C31.8747 15.01 31.8747 14.7555 31.96 14.5222C32.088 14.1722 32.3013 13.854 32.408 13.5041C32.4933 13.2283 32.5573 12.889 32.4613 12.645C32.3227 12.3481 32.312 12.1042 32.408 11.8072C32.4933 11.5421 32.5147 11.2558 32.568 10.98C32.824 10.7998 33.08 10.6195 33.336 10.4392C33.4 10.5134 33.464 10.5877 33.528 10.6619C33.592 10.8104 33.6667 10.9588 33.7307 11.1073C33.784 11.33 33.848 11.5315 33.9013 11.7224Z" fill="#565656"/>
<path d="M23.704 8.41423C23.5014 8.73238 23.288 9.05053 23.0747 9.35808C22.6587 9.96257 22.232 10.5671 21.816 11.1716C21.7307 11.2988 21.7094 11.4897 21.656 11.6806C21.88 11.6806 22.0187 11.6806 22.296 11.6806C21.944 12.0836 21.6134 12.3805 21.3894 12.7411C21.1227 13.1759 20.8987 13.6532 20.7387 14.141C20.6427 14.4485 20.6747 14.8197 21.304 14.7137C21.0054 15.1803 20.888 15.6575 20.2907 15.6681C19.9707 15.4242 19.6507 15.1803 19.3307 14.9364C19.2987 14.9046 19.256 14.8621 19.224 14.8303C19.5227 14.5228 19.9814 14.3319 20.0347 13.7804C19.8214 13.8016 19.6614 13.8122 19.4374 13.8228C19.5227 13.0168 19.7894 12.3381 20.2907 11.7442C20.7814 11.1716 21.2827 10.6201 21.784 10.058C21.752 10.0262 21.72 9.99439 21.688 9.96257C21.4214 10.0898 21.1547 10.2171 20.824 10.3868C20.9947 9.96257 21.1227 9.64442 21.2507 9.32627C21.8587 9.07174 22.456 8.81722 23.064 8.5627C23.288 8.50967 23.5014 8.46725 23.704 8.41423Z" fill="#737373"/>
<path d="M21.2613 9.3255C21.1333 9.64366 21.0053 9.96181 20.8346 10.386C21.1653 10.2269 21.432 10.0997 21.6986 9.96181C21.7306 9.99362 21.7626 10.0254 21.7946 10.0573C21.2933 10.6193 20.792 11.1708 20.3013 11.7435C19.8 12.3268 19.5333 13.0161 19.448 13.8221C19.6613 13.8009 19.832 13.7903 20.0453 13.7797C19.992 14.3311 19.5333 14.522 19.2346 14.8296C18.84 14.5114 18.456 14.1933 18.0613 13.8751C18.2533 13.6418 18.4453 13.4085 18.7013 13.1115C18.1466 13.0161 18.1893 12.7616 18.3066 12.4328C18.5946 11.648 18.9573 10.9163 19.5546 10.3118C19.7893 10.0679 19.9173 9.7285 20.0986 9.44216L20.088 9.41034C20.3013 9.38913 20.5253 9.36792 20.7386 9.33611C20.9093 9.3255 21.0906 9.3255 21.2613 9.3255Z" fill="#6E6E6E"/>
<path d="M13.624 12.1679C13.7626 11.8498 13.9013 11.5422 14.04 11.2241C14.104 11.118 14.1786 11.0226 14.2106 10.9165C14.4133 10.3332 14.6586 9.81359 15.3946 9.81359C15.608 9.79238 15.8213 9.76056 16.0346 9.73935C16.1093 9.74996 16.1733 9.76056 16.248 9.77117C16.1733 10.0257 16.0773 10.2696 16.0453 10.5241C16.0133 10.768 16.056 11.012 16.0666 11.2559C16.12 11.2665 16.184 11.2771 16.2373 11.2877C16.0666 11.5316 15.864 11.7543 15.7253 12.0195C15.5226 12.4118 15.352 12.836 15.1813 13.239C14.936 13.3769 14.68 13.5254 14.4346 13.6632C14.1466 13.7693 13.8693 13.8753 13.5813 13.9814C13.2933 14.0875 13.0053 14.1935 12.728 14.2996C13.0266 13.5784 13.3253 12.8785 13.624 12.1679Z" fill="#5D5D5D"/>
<path d="M12.7386 25.7536C12.7386 25.5733 12.728 25.4037 12.728 25.2234C12.7386 25.0113 12.7493 24.7992 12.7706 24.5871C12.9413 24.7355 13.1866 24.8416 13.272 25.0219C13.688 25.8703 14.1146 26.6869 14.808 27.3762C15.1386 27.6944 15.288 28.2034 15.512 28.617C14.84 28.7973 14.1573 28.967 13.4853 29.1473C13.2826 29.1791 13.0693 29.2215 12.8666 29.2533C12.856 28.7973 12.8453 28.3307 12.824 27.8747C12.8133 27.6626 12.8133 27.4504 12.8026 27.2383C12.7813 26.7399 12.76 26.2415 12.7386 25.7536Z" fill="#484848"/>
<path d="M20.0987 9.43143C19.9173 9.72838 19.7893 10.0677 19.5547 10.3011C18.9573 10.9161 18.5947 11.6373 18.3067 12.4221C18.1893 12.7508 18.1467 13.0054 18.7013 13.1008C18.4453 13.3977 18.2533 13.6311 18.0613 13.8644C17.848 13.6841 17.6347 13.5144 17.4213 13.3341C17.24 13.1538 17.0587 12.9841 16.888 12.8039C17.1653 12.6448 17.5173 12.4221 17.1973 12.1145C16.9733 11.8918 17.0373 11.7858 17.1227 11.5949C17.432 10.9374 17.752 10.2798 18.0613 9.62232C18.168 9.59051 18.2747 9.55869 18.3813 9.52688C18.9573 9.49506 19.5227 9.46325 20.0987 9.43143Z" fill="#686868"/>
<path d="M17.7413 9.60205C17.848 9.61266 17.9546 9.61266 18.0613 9.62326C17.752 10.2808 17.432 10.9383 17.1226 11.5958C17.0373 11.7867 16.9733 11.8928 17.1973 12.1155C17.5066 12.423 17.1546 12.6457 16.888 12.8048C16.4293 12.9109 15.9706 13.0169 15.5013 13.123C15.3946 13.1548 15.288 13.1866 15.1813 13.229C15.3626 12.8154 15.5226 12.4018 15.7253 12.0094C15.864 11.7443 16.0666 11.5216 16.2373 11.2777C16.184 11.2671 16.12 11.2565 16.0666 11.2458C16.056 11.0019 16.0133 10.7474 16.0453 10.5141C16.0773 10.2596 16.1733 10.0157 16.248 9.76113C16.7493 9.70811 17.2506 9.65508 17.7413 9.60205Z" fill="#636363"/>
<path d="M30.5307 9.56936C30.68 9.61178 30.8293 9.66481 30.968 9.70723C31.3947 9.82389 31.8213 9.92994 32.248 10.0466C32.3867 10.089 32.5253 10.142 32.664 10.1845C32.888 10.2799 33.112 10.3647 33.336 10.4602C33.08 10.6405 32.824 10.8208 32.568 11.0011C32.1093 11.2874 31.64 11.5737 31.1813 11.8601C30.8613 12.0722 30.5413 12.2843 30.2213 12.4858C30.36 12.157 30.488 11.8176 30.6373 11.4995C30.7227 11.3086 30.9253 11.1495 30.936 10.9692C30.9467 10.7253 30.8613 10.4602 30.7333 10.2587C30.6907 10.2057 30.3493 10.3329 30.1467 10.3966C30.0187 10.439 29.9013 10.5132 29.6987 10.5026C29.8693 10.1845 30.0507 9.8557 30.2213 9.53755C30.328 9.53755 30.4347 9.55876 30.5307 9.56936Z" fill="#787878"/>
<path d="M13.4747 29.1468C14.1467 28.9665 14.8293 28.7968 15.5013 28.6165C15.6827 28.5847 15.8533 28.5529 16.0347 28.5105C16.92 29.168 17.6987 29.9634 18.84 30.1967C19.4373 30.3239 20.024 30.5254 20.6213 30.6739C21.4427 30.8754 22.264 31.0663 23.0747 31.2678C23 31.9359 22.9253 32.604 22.8507 33.2828C22.1147 33.3358 21.4 33.2085 20.6747 33.1661C20.024 33.1237 19.48 32.9222 18.8933 32.7631C18.7333 32.7207 18.552 32.7419 18.3813 32.7419C18.3493 32.7419 18.3067 32.7631 18.2747 32.7525C17.6667 32.4344 17.0587 32.1162 16.4507 31.7875C16.4187 31.7769 16.4187 31.7132 16.3867 31.7026C15.6293 31.4057 15.096 30.7588 14.4133 30.3558C14.296 30.2921 14.1787 30.2179 14.104 30.1118C13.8907 29.7937 13.688 29.4649 13.4747 29.1468Z" fill="#3A3A3A"/>
<path d="M25.848 33.1665C26.0294 33.1878 26.2214 33.262 26.3814 33.2196C27.032 33.0499 27.6614 32.8378 28.3014 32.6469C28.3014 34.3755 28.3014 36.1042 28.3014 37.8328C26.456 37.4086 24.6107 36.9844 22.7654 36.5602C22.7654 36.4966 22.7654 36.4329 22.7654 36.3693C22.9147 36.242 23.064 36.1254 23.2027 35.9769C24.0774 35.0437 24.9627 34.0998 25.848 33.1665Z" fill="#3B3B3B"/>
<path d="M25.848 33.1658C24.9626 34.1096 24.0773 35.0429 23.192 35.9761C23.064 36.114 22.904 36.2306 22.7546 36.3685C22.7866 35.658 22.8293 34.9474 22.8613 34.2369C22.8613 33.993 22.8613 33.7491 22.8613 33.4945C22.8613 33.4203 22.8613 33.3461 22.8613 33.2824C22.936 32.6143 23.0106 31.9462 23.0853 31.2675C24.2586 30.5357 25.432 29.804 26.616 29.0828C26.968 28.8813 27.32 28.6904 27.672 28.4889C27.9813 28.7328 27.8533 28.998 27.7146 29.2843C27.0853 30.5781 26.4666 31.872 25.848 33.1658Z" fill="#0D0D0D"/>
<path d="M27.6614 28.4895C27.3094 28.691 26.9574 28.8819 26.6054 29.0834C26.4987 28.6698 26.3494 28.6486 25.944 28.8925C25.6134 29.094 25.2827 29.3167 24.92 29.4122C24.536 29.5182 24.0667 29.6349 23.9174 28.9986C23.1707 29.3379 22.424 30.0591 21.7627 28.9668C20.9094 29.4228 20.2374 29.3485 20.12 28.5426C18.8614 28.7122 18.8614 28.7122 18.616 27.9063C17.6667 28.0123 17.5707 27.9381 17.4107 26.9942C17.2294 26.9624 17.0587 26.9412 16.8774 26.9094C16.984 26.6655 17.0907 26.4109 17.1974 26.167C17.304 26.061 17.4 25.9549 17.5067 25.8489C17.8054 25.9231 18.104 26.0079 18.424 26.0928C18.392 26.7503 18.6374 26.9094 19.704 26.8669C19.8747 27.9381 20.6107 27.6093 21.2294 27.4396C21.6987 28.5638 22.4347 27.9169 23 27.7896C23.192 27.9487 23.3414 28.182 23.4694 28.1608C23.928 28.1077 24.376 27.9699 24.824 27.8744C25.016 27.832 25.2187 27.779 25.4214 27.7896C25.6454 27.8002 25.9014 27.9593 26.0827 27.885C26.7334 27.6305 27.3414 27.3124 27.9707 27.0154C28.0454 27.1215 28.1094 27.2381 28.184 27.3442C28.2907 27.8532 28.1627 28.2562 27.6614 28.4895Z" fill="#686868"/>
<path d="M16.888 26.9201C17.0587 26.952 17.24 26.9732 17.4213 27.005C17.5707 27.9488 17.6667 28.0231 18.6267 27.917C18.8613 28.723 18.8613 28.723 20.1307 28.5533C20.2587 29.3593 20.92 29.4336 21.7733 28.9775C22.4347 30.0699 23.1813 29.3487 23.928 29.0093C24.0773 29.6457 24.5467 29.529 24.9307 29.4229C25.2933 29.3275 25.624 29.1048 25.9547 28.9033C26.36 28.6594 26.4987 28.6806 26.616 29.0942C25.4427 29.8259 24.2693 30.5577 23.0853 31.2788C22.264 31.0773 21.4427 30.8971 20.632 30.685C20.0347 30.5365 19.448 30.335 18.8507 30.2077C17.7093 29.9744 16.92 29.1684 16.0453 28.5215C16.2587 28.0655 16.472 27.5989 16.6853 27.1429C16.7493 27.058 16.824 26.9838 16.888 26.9201Z" fill="#636363"/>
<path d="M16.888 26.9199C16.8133 26.9941 16.7493 27.0578 16.6747 27.132C16.4293 26.9623 15.3627 25.5306 15.2453 25.2761C15.1707 25.1064 15.032 24.9686 14.9253 24.8307C14.8933 24.7883 14.8187 24.7777 14.7973 24.7352C14.4987 23.9717 14.2 23.2081 13.9013 22.4445C13.816 22.2218 13.752 21.9991 13.6773 21.7764C13.656 21.7234 13.592 21.6916 13.592 21.6492C13.4747 20.7265 13.3467 19.8039 13.24 18.8812C13.208 18.5843 13.1973 18.2767 13.1867 17.9798C13.176 17.651 13.1333 17.3117 13.1653 16.9829C13.2827 15.986 13.432 14.9891 13.5707 14.0029C13.8587 13.8968 14.136 13.7908 14.424 13.6847C14.392 14.0453 14.36 14.4165 14.328 14.777C14.296 15.074 14.264 15.3815 14.232 15.6785C14.1787 16.1557 14.1147 16.6329 14.0827 17.1102C14.0613 17.3965 14.136 17.6828 14.104 17.9692C13.9653 18.9873 14.328 19.9523 14.4133 20.9492C14.4133 20.9598 14.4347 20.981 14.4347 20.9916C14.4987 21.2143 14.552 21.4477 14.6373 21.6704C14.936 22.4339 15.2347 23.1975 15.544 23.9611C15.576 24.0353 15.6827 24.0671 15.736 24.1414C16.088 24.6822 16.2907 25.3185 16.8773 25.6897C16.92 25.7215 16.9093 25.8276 16.9413 25.8806C17.016 25.9973 17.112 26.0927 17.208 26.1988C17.112 26.4215 16.9947 26.6654 16.888 26.9199Z" fill="#4F4F4F"/>
<path d="M24.3546 16.9406C24.1093 16.4315 24.4613 16.0603 24.7386 15.6361C24.5786 15.6149 24.5146 15.5831 24.4506 15.5937C24.2586 15.6255 23.928 15.7422 23.896 15.6998C23.7893 15.4983 23.6826 15.2225 23.736 15.021C23.8213 14.7135 24.0346 14.4378 24.216 14.162C24.3546 13.9499 24.5253 13.759 24.6853 13.5681C24.6533 13.5363 24.632 13.4939 24.6 13.4621C24.376 13.5257 24.1413 13.6 23.9173 13.6636C23.8746 13.6318 23.832 13.5893 23.7786 13.5575C24.024 13.0697 24.1733 12.5076 24.5146 12.1046C25.112 11.3941 25.7306 10.6623 26.6373 10.3018C26.8293 10.2275 27.064 10.2593 27.2773 10.2381C27.224 10.429 27.1706 10.6199 27.1173 10.8108C27.096 10.885 27.064 10.9593 27.128 11.1396C27.32 10.9911 27.512 10.8426 27.7146 10.6942C27.896 10.5563 28.0773 10.3548 28.28 10.323C28.4933 10.2912 28.8133 10.3654 28.9413 10.5139C29.0373 10.6305 28.9093 10.9381 28.856 11.1608C28.8346 11.2668 28.7706 11.3623 28.664 11.6168C28.92 11.5107 29.0373 11.4789 29.144 11.4153C29.624 11.1502 29.9013 11.288 29.88 11.8289C29.8693 12.0728 29.6986 12.3061 29.6026 12.5394C29.528 12.7091 29.4426 12.8788 29.368 13.0379C29.336 13.1121 29.272 13.1864 29.272 13.2712C29.1866 14.5014 29.112 15.7422 29.0373 16.9724C27.48 16.9406 25.9226 16.9406 24.3546 16.9406ZM25.8693 14.3105C25.9013 14.3423 25.944 14.3847 25.976 14.4165C25.8586 14.5756 25.7093 14.7135 25.6346 14.8832C25.5493 15.0847 25.4106 15.3922 25.5066 15.5195C25.6133 15.6786 25.9333 15.7422 26.1573 15.7422C26.3173 15.7422 26.5093 15.5831 26.648 15.4558C27.2133 14.915 27.768 14.3847 28.3013 13.8121C28.4933 13.6 28.6426 13.3136 28.696 13.0273C28.728 12.847 28.6 12.5925 28.4613 12.444C28.408 12.3804 28.1306 12.5076 27.96 12.5713C27.8106 12.6349 27.672 12.7197 27.5333 12.8046C27.4906 12.6031 27.5333 12.5182 27.576 12.4228C27.6613 12.2107 27.736 11.9986 27.8106 11.7865C27.5653 11.7653 27.288 11.6592 27.064 11.7335C26.04 12.0834 25.432 12.847 25.1013 13.8439C25.0373 14.0454 25.1013 14.2999 25.112 14.5332C25.304 14.4696 25.4853 14.3953 25.6773 14.3317C25.7413 14.3211 25.8053 14.3211 25.8693 14.3105Z" fill="#828282"/>
<path d="M27.4693 19.8144C27.288 20.1326 27.096 20.4507 26.9147 20.7689C26.776 20.7477 26.6373 20.7265 26.456 20.6947C26.6373 20.3447 26.776 20.0796 26.9253 19.8038C26.8827 19.7614 26.84 19.7296 26.7973 19.6872C26.5627 19.8781 26.3493 20.0902 26.104 20.2493C25.7413 20.4932 25.3787 20.7371 24.984 20.9068C24.8453 20.9704 24.5893 20.8962 24.4613 20.8007C24.3867 20.7477 24.4507 20.4932 24.4933 20.3341C24.536 20.175 24.6213 20.0371 24.6853 19.8887C24.312 19.9947 24.0667 20.2386 23.768 20.3447C23.5333 20.4295 23.2453 20.3341 22.9787 20.3235C23 20.1008 23 19.8675 23.0427 19.6448C23.064 19.5175 23.1493 19.3902 23.224 19.2418C22.7013 19.3796 22.264 19.4963 21.8267 19.6129C21.8587 18.7327 21.8907 17.8419 21.9227 16.9617C22.072 16.9617 22.2107 16.9617 22.36 16.9617C22.392 16.9617 22.4347 16.9617 22.4667 16.9617C22.5627 17.0147 22.6587 17.1101 22.7653 17.1207C22.936 17.142 23.1067 17.1101 23.3627 17.0995C23.256 17.2586 23.224 17.3222 23.1707 17.3753C22.8507 17.6828 22.872 17.9692 23.192 18.2767C23.5333 18.6161 23.7573 18.3403 24.0027 18.1494C24.12 18.054 24.2693 17.9904 24.3973 17.9161C24.44 17.9585 24.472 18.001 24.5147 18.0328C24.4293 18.1706 24.3227 18.2873 24.2587 18.4358C24.184 18.5842 24.056 18.8282 24.12 18.9024C24.2373 19.0509 24.504 19.2206 24.632 19.1781C24.984 19.0615 25.304 18.8494 25.624 18.6585C25.8267 18.5312 25.9973 18.3615 26.1787 18.2131C26.2213 18.2555 26.264 18.2979 26.3173 18.3403C26.168 18.6267 26.0187 18.913 25.8267 19.2842C26.6373 19.316 27.2347 19.0827 27.768 18.6585C27.9493 18.51 28.1627 18.3934 28.3547 18.2555C28.0453 18.7539 27.7573 19.2842 27.4693 19.8144Z" fill="#868686"/>
<path d="M28.3333 18.2232C28.1307 18.361 27.928 18.4777 27.7467 18.6261C27.2027 19.0504 26.616 19.2837 25.8053 19.2519C25.9973 18.8807 26.1467 18.5943 26.296 18.308C26.2533 18.2656 26.2107 18.2232 26.1573 18.1807C25.976 18.3292 25.8053 18.4989 25.6027 18.6261C25.2827 18.8276 24.9627 19.0397 24.6107 19.1458C24.472 19.1882 24.2053 19.0185 24.0987 18.8701C24.0453 18.7958 24.1733 18.5519 24.2373 18.4034C24.3013 18.2656 24.408 18.1383 24.4933 18.0004C24.4507 17.958 24.4187 17.9156 24.376 17.8838C24.248 17.958 24.0987 18.0323 23.9813 18.1171C23.7253 18.308 23.512 18.5837 23.1707 18.2444C22.8613 17.9368 22.8293 17.6505 23.1493 17.3429C23.2027 17.3005 23.224 17.2263 23.3413 17.0672C23.0853 17.0778 22.9147 17.1096 22.744 17.0884C22.6373 17.0778 22.5413 16.9824 22.4453 16.9293C23.0853 16.9293 23.7253 16.9293 24.3653 16.9187C25.9227 16.9187 27.4907 16.9293 29.048 16.9293L29.0693 16.9187C28.8133 17.3747 28.568 17.799 28.3333 18.2232Z" fill="#8B8B8B"/>
<path d="M29.0374 16.9511C29.112 15.7209 29.1867 14.4801 29.272 13.2499C29.272 13.1757 29.336 13.0908 29.368 13.0166C29.656 12.8363 29.9334 12.656 30.2214 12.4863C30.5414 12.2742 30.8613 12.0621 31.1813 11.8606C31.2347 12.4545 31.1493 13.006 30.7867 13.5044C30.6907 13.6317 30.6907 13.8332 30.6693 14.0029C30.648 14.2786 30.7334 14.5755 30.6374 14.8195C30.3174 15.6679 29.912 16.4845 29.048 16.9511H29.0374Z" fill="#5D5D5D"/>
<path d="M27.4373 24.3746C27.48 24.6928 27.5227 25.0109 27.5653 25.3291C27.352 25.4457 27.1387 25.573 26.9253 25.6896C26.4347 25.9548 25.9547 26.2305 25.336 26.1457C25.3573 25.9336 25.368 25.7639 25.3893 25.4988C25.1547 25.6154 24.984 25.6896 24.8347 25.7851C24.6427 25.9017 24.4827 26.1138 24.2693 26.1669C23.9387 26.2517 23.576 26.2517 23.2347 26.2305C23.1813 26.2305 23.1707 25.8487 23.1387 25.6366C23.1387 25.626 23.1173 25.6154 23.0533 25.5518C22.8507 25.679 22.648 25.8699 22.4133 25.923C22.1253 25.9866 21.7947 25.9866 21.5173 25.9017C21.432 25.8805 21.464 25.4775 21.4427 25.2548C21.4427 25.223 21.4107 25.2018 21.4107 25.2124C21.0267 25.276 20.6427 25.4351 20.3013 25.3715C19.7147 25.276 20.12 24.7352 20.024 24.417C18.9147 24.6185 18.9147 24.6185 18.7013 23.961C18.9893 23.7807 19.2667 23.6004 19.5547 23.4202C19.6933 23.3883 19.832 23.3459 19.9707 23.3141C20.2053 23.5898 20.4507 23.6959 20.7813 23.4308C21.016 23.2399 21.0907 23.3671 21.1013 23.6429C21.112 23.855 21.208 24.1731 21.3467 24.2261C21.56 24.311 21.8587 24.2367 22.1147 24.1943C22.264 24.1731 22.4133 24.0989 22.5947 24.0352C22.4987 24.714 22.584 24.8306 23.1813 24.7776C23.4373 24.7564 23.6933 24.5973 23.9493 24.4913C24.088 24.4276 24.216 24.3322 24.28 24.2898C24.4293 24.5443 24.5573 24.8731 24.632 24.8624C25.1227 24.7776 25.624 24.6822 26.072 24.4807C26.456 24.3004 26.776 23.9822 27.128 23.7171C27.2453 23.9398 27.3413 24.1519 27.4373 24.3746Z" fill="#737373"/>
<path d="M27.1386 23.7167C26.7866 23.9712 26.4666 24.3 26.0826 24.4803C25.6346 24.6818 25.1333 24.7878 24.6426 24.8621C24.568 24.8727 24.44 24.5333 24.2906 24.2894C24.2266 24.3318 24.0986 24.4273 23.96 24.4909C23.7146 24.6076 23.4586 24.756 23.192 24.7772C22.5946 24.8197 22.5093 24.703 22.6053 24.0349C22.424 24.0985 22.2746 24.1727 22.1253 24.194C21.8693 24.2258 21.5706 24.3106 21.3573 24.2258C21.208 24.1621 21.1226 23.844 21.112 23.6425C21.1013 23.3668 21.0266 23.2395 20.792 23.4304C20.4613 23.6955 20.216 23.5895 19.9813 23.3137C20.408 23.0698 20.8346 22.8153 21.2613 22.5714C21.528 22.5183 21.784 22.4547 22.0826 22.3911C22.0933 22.4759 22.1146 22.5502 22.104 22.6138C21.9866 23.2289 22.072 23.3455 22.6906 23.3137C22.8826 23.3031 23.0746 23.1865 23.256 23.1016C23.3946 23.0486 23.5226 22.9744 23.7253 22.8683C23.6826 23.1759 23.6506 23.3561 23.6293 23.5364C24.5893 24.1833 25.1013 23.1653 25.848 22.9107C25.7306 23.6531 25.784 23.6955 26.4453 23.5046C26.648 23.4516 26.8506 23.3774 27.0533 23.3137C27.0746 23.441 27.1066 23.5789 27.1386 23.7167Z" fill="#787878"/>
<path d="M27.0427 23.3038C26.84 23.3674 26.6374 23.431 26.4347 23.4946C25.7734 23.6855 25.72 23.6431 25.8374 22.9008C25.0907 23.1553 24.5787 24.1734 23.6187 23.5265C23.64 23.3568 23.672 23.1765 23.7147 22.8583C23.5014 22.9644 23.3734 23.0386 23.2454 23.0917C23.064 23.1659 22.872 23.2931 22.68 23.3038C22.0614 23.3356 21.976 23.2189 22.0934 22.6038C22.104 22.5402 22.0827 22.4766 22.072 22.3811C21.784 22.4447 21.5174 22.5084 21.2507 22.5614C21.464 22.2539 21.944 22.116 21.8054 21.6069C22.2854 21.5009 22.7654 21.3842 23.2667 21.2676C23.256 21.3418 23.2454 21.4054 23.2347 21.4797C23.2027 21.6918 23.1814 21.9039 23.1494 22.116C23.4374 22.1372 23.736 22.2114 24.0027 22.169C24.184 22.1372 24.344 21.9251 24.5147 21.8084C24.6747 21.7024 24.8454 21.6069 25.1334 21.4373C25.048 21.713 25.0054 21.819 24.984 21.9357C24.952 22.0842 24.952 22.2326 24.9307 22.3811C25.08 22.3811 25.24 22.4129 25.3787 22.3705C25.8267 22.2326 26.2534 22.0736 26.7014 21.9251C26.776 22.169 26.8507 22.4235 26.9254 22.6674C26.968 22.8796 27.0107 23.0917 27.0427 23.3038Z" fill="#7D7D7D"/>
<path d="M18.7013 23.9502C18.9253 24.5971 18.9253 24.5971 20.024 24.4062C20.1307 24.7243 19.7147 25.2652 20.3014 25.3607C20.6427 25.4137 21.0267 25.2652 21.4107 25.2016C21.4 25.191 21.432 25.2122 21.4427 25.244C21.464 25.4667 21.432 25.8697 21.5174 25.8909C21.7947 25.9758 22.1254 25.9758 22.4134 25.9121C22.648 25.8591 22.8507 25.6682 23.0534 25.5409C23.1174 25.6046 23.1387 25.6152 23.1387 25.6258C23.1707 25.8379 23.192 26.2197 23.2347 26.2197C23.576 26.2515 23.928 26.2409 24.2694 26.156C24.472 26.103 24.632 25.8909 24.8347 25.7743C24.984 25.6788 25.1547 25.6046 25.3894 25.4879C25.368 25.753 25.3574 25.9227 25.336 26.1348C25.9547 26.2303 26.4454 25.9439 26.9254 25.6788C27.1387 25.5622 27.352 25.4455 27.5654 25.3182C27.6294 25.4561 27.704 25.6046 27.768 25.7424C27.8427 26.1666 27.9067 26.5909 27.9814 27.0151C27.352 27.312 26.7334 27.6302 26.0934 27.8847C25.912 27.9589 25.656 27.7892 25.432 27.7892C25.24 27.7786 25.0374 27.8317 24.8347 27.8741C24.3867 27.9695 23.9387 28.1074 23.48 28.1604C23.352 28.171 23.2027 27.9483 23.0107 27.7892C22.456 27.9059 21.7094 28.5634 21.24 27.4393C20.6214 27.6089 19.8854 27.9377 19.7147 26.8666C18.648 26.9196 18.4027 26.7605 18.4347 26.0924C18.1147 26.0076 17.816 25.9333 17.5173 25.8485C17.6667 25.5303 17.8053 25.2122 17.9547 24.894C18.2107 24.5865 18.456 24.2683 18.7013 23.9502Z" fill="#6E6E6E"/>
<path d="M21.9013 16.9401C21.8693 17.8203 21.8373 18.7112 21.8053 19.5914C21.8053 19.9838 21.8053 20.3762 21.8053 20.7579C21.6133 20.7685 21.4107 20.7579 21.2187 20.7898C20.728 20.864 20.4507 20.5883 20.536 20.1004C20.568 19.9201 20.5893 19.7398 20.6213 19.5702C19.1813 19.549 20.0667 18.5733 19.9493 18.0642C19.2773 17.9158 19.2773 17.9158 19.736 16.2189C19.3093 16.1129 19.16 15.816 19.2453 15.4024C19.2773 15.2433 19.3093 15.0948 19.352 14.9357C19.672 15.1796 19.992 15.4236 20.312 15.6675C20.8347 16.0917 21.368 16.5159 21.9013 16.9401Z" fill="#636363"/>
<path d="M21.8054 20.7692C21.8054 20.3768 21.8054 19.9844 21.8054 19.6026C22.2427 19.4859 22.68 19.3693 23.2027 19.2314C23.128 19.3799 23.0427 19.5072 23.0214 19.6344C22.9787 19.8571 22.9787 20.0904 22.9574 20.3131C23.224 20.3237 23.512 20.4192 23.7467 20.3344C24.0454 20.2283 24.2907 19.9844 24.664 19.8783C24.6 20.0268 24.5147 20.1753 24.472 20.3237C24.4294 20.4828 24.376 20.7373 24.44 20.7904C24.568 20.8964 24.8347 20.9601 24.9627 20.8964C25.3574 20.7161 25.72 20.4722 26.0827 20.2389C26.328 20.0692 26.552 19.8677 26.776 19.6768C26.8187 19.7193 26.8614 19.7511 26.904 19.7935C26.7654 20.0586 26.6267 20.3344 26.4347 20.6843C26.616 20.7161 26.7547 20.7373 26.8934 20.7586C26.8187 20.9707 26.7547 21.1828 26.68 21.3949C26.68 21.5752 26.68 21.7448 26.68 21.9251C26.2427 22.0736 25.8054 22.2327 25.3574 22.3705C25.2187 22.413 25.0587 22.3811 24.9094 22.3811C24.9307 22.2327 24.9307 22.0842 24.9627 21.9357C24.984 21.8191 25.0267 21.713 25.112 21.4373C24.824 21.607 24.6534 21.7024 24.4934 21.8085C24.3227 21.9251 24.1627 22.1372 23.9814 22.169C23.704 22.2115 23.4054 22.1372 23.128 22.116C23.16 21.9039 23.1814 21.6918 23.2134 21.4797C23.224 21.4161 23.2347 21.3418 23.2454 21.2676C22.744 21.3843 22.264 21.4903 21.784 21.607C21.816 21.3312 21.8054 21.0449 21.8054 20.7692Z" fill="#828282"/>
<path d="M29.0587 16.9402C29.9227 16.4842 30.328 15.6676 30.648 14.8086C30.744 14.5647 30.6587 14.2677 30.68 13.992C30.6907 13.8223 30.7013 13.6314 30.7973 13.4936C31.16 12.9951 31.2347 12.433 31.192 11.8498C31.6507 11.5634 32.12 11.2771 32.5787 10.9908C32.5253 11.2665 32.5147 11.5528 32.4187 11.818C32.312 12.1149 32.3333 12.3482 32.472 12.6558C32.5787 12.8891 32.504 13.239 32.4187 13.5148C32.312 13.8647 32.0987 14.1829 31.9707 14.5329C31.8853 14.7556 31.8853 15.0207 31.8107 15.254C31.6827 15.6358 31.576 16.0282 31.3733 16.3675C30.552 17.7038 29.5493 18.881 28.1307 19.6233C27.9387 19.7294 27.704 19.7612 27.4907 19.8248C27.7787 19.2946 28.056 18.7749 28.344 18.2446C28.568 17.7992 28.8133 17.375 29.0587 16.9402Z" fill="#585858"/>
<path d="M21.8053 20.769C21.8053 21.0554 21.816 21.3311 21.816 21.6174C21.944 22.1159 21.464 22.2643 21.2613 22.5719C20.8347 22.8158 20.408 23.0703 19.9813 23.3142C19.8427 23.3461 19.704 23.3885 19.5653 23.4203C19.5547 23.2188 19.544 23.0173 19.5333 22.8264C18.776 22.731 18.6693 22.6143 18.5947 21.9356C18.584 21.7977 18.5093 21.575 18.4133 21.5432C17.848 21.3735 17.848 20.9599 17.88 20.4933C17.8907 20.3554 17.816 20.1433 17.7093 20.0691C17.3253 19.804 17.336 19.4434 17.336 19.0404C17.336 18.7647 17.24 18.4995 17.1973 18.2238C17.1547 17.9268 17.048 17.6087 17.0907 17.3224C17.144 16.8982 17.496 16.4846 17.0587 16.0603C17.016 16.0179 17.08 15.8907 17.0693 15.8164C16.9733 14.9574 17.8587 14.2363 17.4213 13.3348C17.6347 13.5151 17.848 13.6848 18.0613 13.8651C18.456 14.1832 18.84 14.5014 19.2347 14.8196C19.2667 14.8514 19.3093 14.8938 19.3413 14.9256C19.3093 15.0847 19.2667 15.2332 19.2347 15.3922C19.16 15.8058 19.2987 16.1028 19.7253 16.2088C19.2667 17.9162 19.2667 17.9162 19.9387 18.0541C20.056 18.5738 19.1707 19.5388 20.6107 19.56C20.5893 19.7297 20.5573 19.91 20.5253 20.0903C20.44 20.5781 20.7173 20.8645 21.208 20.7796C21.4107 20.769 21.6133 20.7796 21.8053 20.769Z" fill="#5D5D5D"/>
<path d="M17.9546 24.9053C17.8053 25.2234 17.6666 25.5416 17.5173 25.8597C17.4106 25.9658 17.3146 26.0718 17.208 26.1779C17.1226 26.0718 17.0266 25.9764 16.9413 25.8597C16.8986 25.8067 16.92 25.6901 16.8773 25.6688C16.2906 25.2977 16.088 24.6614 15.736 24.1205C15.6933 24.0463 15.576 24.0144 15.544 23.9402C15.2346 23.1766 14.936 22.4131 14.6373 21.6495C14.552 21.4268 14.4986 21.2041 14.4346 20.9708C14.4346 20.9496 14.4133 20.939 14.4133 20.9284C14.3173 19.9315 13.9653 18.9664 14.104 17.9483C14.136 17.6726 14.0613 17.3756 14.0826 17.0893C14.1146 16.6121 14.1786 16.1348 14.232 15.6576C14.264 15.3607 14.296 15.0531 14.328 14.7562C14.36 14.3956 14.392 14.0244 14.424 13.6638C14.6693 13.526 14.9253 13.3775 15.1706 13.2396C15.2773 13.2078 15.384 13.176 15.4906 13.1336C15.7466 13.6532 15.608 14.1199 15.4053 14.6395C15.2346 15.0637 15.256 15.5622 15.2026 16.0288C15.1706 16.3363 15.1706 16.6439 15.16 16.9514C15.1493 17.3438 15.1386 17.7468 15.16 18.1392C15.1706 18.4149 15.2453 18.6907 15.256 18.977C15.2773 19.2315 15.224 19.4967 15.2773 19.7406C15.3733 20.239 15.5013 20.7375 15.64 21.2359C15.6826 21.395 15.8 21.5435 15.8746 21.6919C15.9706 21.8828 16.0453 22.0843 16.1413 22.2646C16.5253 22.9645 16.9093 23.6645 17.304 24.3644C17.3146 24.3856 17.368 24.3962 17.4 24.4174C17.592 24.5765 17.7733 24.7356 17.9546 24.9053Z" fill="#515151"/>
<path d="M17.9546 24.9051C17.7733 24.746 17.5813 24.5763 17.4 24.4172C17.3786 24.396 17.3253 24.396 17.304 24.3642C16.9093 23.6643 16.5253 22.9643 16.1413 22.2644C16.0453 22.0841 15.9706 21.8826 15.8746 21.6917C15.8 21.5327 15.6826 21.3948 15.64 21.2357C15.5013 20.7373 15.3733 20.2494 15.2773 19.7404C15.2346 19.4965 15.2773 19.2313 15.256 18.9768C15.2346 18.7011 15.1706 18.4254 15.16 18.139C15.1386 17.7466 15.16 17.3436 15.16 16.9512C15.1706 16.6437 15.1706 16.3361 15.2026 16.0286C15.2453 15.562 15.2346 15.0635 15.4053 14.6393C15.6186 14.1197 15.7466 13.653 15.4906 13.1334C15.9493 13.0273 16.408 12.9213 16.8773 12.8152C17.0586 12.9955 17.24 13.1652 17.4106 13.3455C17.848 14.2469 16.9626 14.9681 17.0586 15.8271C17.0693 15.9119 17.0053 16.0392 17.048 16.071C17.4853 16.4952 17.1333 16.9088 17.08 17.333C17.0373 17.63 17.144 17.9375 17.1866 18.2345C17.2293 18.5102 17.3253 18.7753 17.3253 19.0511C17.3253 19.4434 17.3253 19.8146 17.6986 20.0797C17.8053 20.154 17.88 20.3661 17.8693 20.504C17.8373 20.9706 17.8373 21.3842 18.4026 21.5539C18.4986 21.5857 18.5733 21.7978 18.584 21.9463C18.6586 22.625 18.7653 22.7416 19.5226 22.8371C19.5333 23.028 19.544 23.2295 19.5546 23.431C19.2666 23.6113 18.9893 23.7915 18.7013 23.9718C18.456 24.2688 18.2106 24.5869 17.9546 24.9051Z" fill="#565656"/>
<path d="M25.8693 14.3098C25.8053 14.3205 25.7307 14.3204 25.6667 14.3417C25.4747 14.4053 25.2933 14.4689 25.1013 14.5432C25.0907 14.3098 25.0267 14.0659 25.0907 13.8538C25.4213 12.8569 26.0293 12.0828 27.0533 11.7434C27.2667 11.6692 27.544 11.7752 27.8 11.7964C27.7253 12.0085 27.64 12.2206 27.5653 12.4327C27.5333 12.5282 27.4907 12.613 27.5227 12.8145C27.6613 12.7403 27.8 12.6448 27.9493 12.5812C28.12 12.5176 28.3867 12.3903 28.4507 12.454C28.5893 12.6024 28.7173 12.8569 28.6853 13.0372C28.632 13.313 28.4827 13.6099 28.2907 13.822C27.768 14.3947 27.2027 14.9355 26.6373 15.4658C26.4987 15.5931 26.3173 15.7521 26.1467 15.7521C25.9227 15.7521 25.6027 15.6885 25.496 15.5294C25.4107 15.4022 25.5387 15.0946 25.624 14.8931C25.6987 14.7234 25.848 14.575 25.9653 14.4265C25.944 14.3841 25.912 14.3417 25.8693 14.3098Z" fill="#878787"/>
</g>
<defs>
<clipPath id="clip0">
<rect x="11" y="8" width="28" height="34" fill="white"/>
</clipPath>
</defs>
</svg>
